<?xml version="1.0" encoding="UTF-8" standalone="no"?>
<svg
   viewBox="0 0 448 512"
   version="1.1"
   id="svg4"
   sodipodi:docname="add-file-white.svg"
   inkscape:version="1.2.1 (9c6d41e410, 2022-07-14, custom)"
   xmlns:inkscape="http://www.inkscape.org/namespaces/inkscape"
   xmlns:sodipodi="http://sodipodi.sourceforge.net/DTD/sodipodi-0.dtd"
   xmlns="http://www.w3.org/2000/svg"
   xmlns:svg="http://www.w3.org/2000/svg">
  <defs
     id="defs8" />
  <sodipodi:namedview
     id="namedview6"
     pagecolor="#505050"
     bordercolor="#ffffff"
     borderopacity="1"
     inkscape:showpageshadow="0"
     inkscape:pageopacity="0"
     inkscape:pagecheckerboard="1"
     inkscape:deskcolor="#505050"
     showgrid="false"
     inkscape:zoom="2.1875"
     inkscape:cx="224"
     inkscape:cy="256"
     inkscape:window-width="2560"
     inkscape:window-height="1362"
     inkscape:window-x="1080"
     inkscape:window-y="37"
     inkscape:window-maximized="1"
     inkscape:current-layer="svg4" />
  <!-- Font Awesome Pro 5.15.4 by @fontawesome - https://fontawesome.com License - https://fontawesome.com/license (Commercial License) -->
  <path
     d="M416 208H272V64c0-17.67-14.33-32-32-32h-32c-17.67 0-32 14.33-32 32v144H32c-17.67 0-32 14.33-32 32v32c0 17.67 14.33 32 32 32h144v144c0 17.67 14.33 32 32 32h32c17.67 0 32-14.33 32-32V304h144c17.67 0 32-14.33 32-32v-32c0-17.67-14.33-32-32-32z"
     id="path2"
     style="fill:#ffffff" />
</svg>
