<?xml version="1.0" encoding="utf-8"?>
<!-- Generator: Adobe Illustrator 17.1.0, SVG Export Plug-In . SVG Version: 6.00 Build 0)  -->
<!DOCTYPE svg PUBLIC "-//W3C//DTD SVG 1.1//EN" "http://www.w3.org/Graphics/SVG/1.1/DTD/svg11.dtd">
<svg version="1.1" id="Layer_1" xmlns="http://www.w3.org/2000/svg" xmlns:xlink="http://www.w3.org/1999/xlink" x="0px" y="0px"
	 viewBox="0 0 739.2 147.5" enable-background="new 0 0 739.2 147.5" xml:space="preserve">
<polygon fill="#FFFFFF" points="137.5,43 107.2,12.6 76.5,5.5 45.8,12.6 15.4,43 8.3,73.7 15.4,104.4 45.8,134.7 76.5,141.9
	107.2,134.7 137.5,104.4 144.7,73.7 "/>
<linearGradient id="SVGID_1_" gradientUnits="userSpaceOnUse" x1="8.2746" y1="73.6834" x2="76.4733" y2="73.6834">
	<stop  offset="0.175" style="stop-color:#EA1D2C"/>
	<stop  offset="0.9673" style="stop-color:#FFC809"/>
</linearGradient>
<polygon fill="url(#SVGID_1_)" points="76.5,5.5 76.5,141.9 45.8,134.8 15.4,104.4 8.3,73.7 15.4,43 45.8,12.6 "/>
<linearGradient id="SVGID_2_" gradientUnits="userSpaceOnUse" x1="76.4733" y1="73.6834" x2="144.672" y2="73.6834">
	<stop  offset="0.1541" style="stop-color:#2DB5AE"/>
	<stop  offset="0.8842" style="stop-color:#124C96"/>
</linearGradient>
<polygon fill="url(#SVGID_2_)" points="76.5,5.5 76.5,141.9 107.2,134.8 137.5,104.4 144.7,73.7 137.5,43 107.2,12.6 "/>
<g>
	<g>
		<g>

				<linearGradient id="SVGID_3_" gradientUnits="userSpaceOnUse" x1="-705.3989" y1="71.6372" x2="-763.4831" y2="69.5304" gradientTransform="matrix(1 0 0 1 808.5472 0)">
				<stop  offset="0" style="stop-color:#FFFFFF"/>
				<stop  offset="1" style="stop-color:#FFFFFF;stop-opacity:0"/>
			</linearGradient>
			<polyline fill="url(#SVGID_3_)" points="45.8,134.7 76.5,5.5 15.4,104.4 76.5,73.9 15.4,43 			"/>

				<linearGradient id="SVGID_4_" gradientUnits="userSpaceOnUse" x1="925.2852" y1="574.2005" x2="931.9371" y2="591.1329" gradientTransform="matrix(1 0 0 -1 -866.5223 718.5138)">
				<stop  offset="0" style="stop-color:#FFFFFF"/>
				<stop  offset="1" style="stop-color:#FFFFFF;stop-opacity:0"/>
			</linearGradient>
			<polygon fill="url(#SVGID_4_)" points="45.8,134.7 76.5,134.9 76.5,141.9 			"/>

				<linearGradient id="SVGID_5_" gradientUnits="userSpaceOnUse" x1="925.2852" y1="11845.1338" x2="931.9371" y2="11862.0664" gradientTransform="matrix(1 0 0 1 -866.5223 -11842.0869)">
				<stop  offset="0" style="stop-color:#FFFFFF"/>
				<stop  offset="1" style="stop-color:#FFFFFF;stop-opacity:0"/>
			</linearGradient>
			<polygon fill="url(#SVGID_5_)" points="45.8,12.6 76.5,12.5 76.5,5.5 			"/>

				<linearGradient id="SVGID_6_" gradientUnits="userSpaceOnUse" x1="918.4487" y1="101.2323" x2="898.0397" y2="118.7689" gradientTransform="matrix(1 0 0 1 -866.5223 0)">
				<stop  offset="0" style="stop-color:#FFFFFF"/>
				<stop  offset="1" style="stop-color:#FFFFFF;stop-opacity:0"/>
			</linearGradient>
			<polygon fill="url(#SVGID_6_)" points="15.4,104.4 45.8,134.7 36.9,111.9 			"/>

				<linearGradient id="SVGID_7_" gradientUnits="userSpaceOnUse" x1="918.8699" y1="470.0966" x2="898.0812" y2="487.9595" gradientTransform="matrix(1 0 0 -1 -866.5223 516.5876)">
				<stop  offset="0" style="stop-color:#FFFFFF"/>
				<stop  offset="1" style="stop-color:#FFFFFF;stop-opacity:0"/>
			</linearGradient>
			<polygon fill="url(#SVGID_7_)" points="15.4,43 45.8,12.6 36.9,35.8 			"/>

				<linearGradient id="SVGID_8_" gradientUnits="userSpaceOnUse" x1="864.4911" y1="35.2215" x2="895.2021" y2="56.4595" gradientTransform="matrix(1 0 0 1 -866.5223 0)">
				<stop  offset="0" style="stop-color:#FFFFFF"/>
				<stop  offset="1" style="stop-color:#FFFFFF;stop-opacity:0"/>
			</linearGradient>
			<polygon fill="url(#SVGID_8_)" points="15.4,73.7 36.9,35.8 15.4,43 			"/>

				<linearGradient id="SVGID_9_" gradientUnits="userSpaceOnUse" x1="864.561" y1="457.3199" x2="895.272" y2="478.5579" gradientTransform="matrix(1 0 0 -1 -866.5223 569.5604)">
				<stop  offset="0" style="stop-color:#FFFFFF"/>
				<stop  offset="1" style="stop-color:#FFFFFF;stop-opacity:0"/>
			</linearGradient>
			<polygon fill="url(#SVGID_9_)" points="15.4,73.7 36.9,111.9 15.4,104.4 			"/>

				<linearGradient id="SVGID_10_" gradientUnits="userSpaceOnUse" x1="932.7512" y1="39.9246" x2="919.4407" y2="17.8412" gradientTransform="matrix(1 0 0 1 -866.5223 0)">
				<stop  offset="0" style="stop-color:#FFFFFF"/>
				<stop  offset="1" style="stop-color:#FFFFFF;stop-opacity:0"/>
			</linearGradient>
			<polygon fill="url(#SVGID_10_)" points="45.8,12.6 36.9,35.8 76.5,12.5 			"/>

				<linearGradient id="SVGID_11_" gradientUnits="userSpaceOnUse" x1="932.7784" y1="454.7327" x2="919.4993" y2="432.7014" gradientTransform="matrix(1 0 0 -1 -866.5223 562.2782)">
				<stop  offset="0" style="stop-color:#FFFFFF"/>
				<stop  offset="1" style="stop-color:#FFFFFF;stop-opacity:0"/>
			</linearGradient>
			<polygon fill="url(#SVGID_11_)" points="45.8,134.7 36.9,111.9 76.5,134.9 			"/>

				<linearGradient id="SVGID_12_" gradientUnits="userSpaceOnUse" x1="876.1476" y1="39.3649" x2="905.9249" y2="67.0042" gradientTransform="matrix(1 0 0 1 -866.5223 0)">
				<stop  offset="0" style="stop-color:#FFFFFF"/>
				<stop  offset="1" style="stop-color:#FFFFFF;stop-opacity:0"/>
			</linearGradient>
			<polygon fill="url(#SVGID_12_)" points="15.4,73.7 45.7,73.8 36.9,35.8 			"/>

				<linearGradient id="SVGID_13_" gradientUnits="userSpaceOnUse" x1="928.2754" y1="329.5125" x2="894.1381" y2="347.5762" gradientTransform="matrix(1 0 0 -1 -866.5223 433.1687)">
				<stop  offset="0" style="stop-color:#FFFFFF"/>
				<stop  offset="1" style="stop-color:#FFFFFF;stop-opacity:0"/>
			</linearGradient>
			<polygon fill="url(#SVGID_13_)" points="15.4,73.7 45.7,73.8 36.9,111.9 			"/>

				<linearGradient id="SVGID_14_" gradientUnits="userSpaceOnUse" x1="903.1669" y1="5.5075" x2="938.4149" y2="38.2249" gradientTransform="matrix(1 0 0 1 -866.5223 0)">
				<stop  offset="0" style="stop-color:#FFFFFF"/>
				<stop  offset="1" style="stop-color:#FFFFFF;stop-opacity:0"/>
			</linearGradient>
			<polygon fill="url(#SVGID_14_)" points="36.9,35.8 76.5,49.5 76.5,12.5 			"/>

				<linearGradient id="SVGID_15_" gradientUnits="userSpaceOnUse" x1="946.5109" y1="80.2366" x2="913.2958" y2="47.4786" gradientTransform="matrix(1 0 0 1 -866.5223 0)">
				<stop  offset="0" style="stop-color:#FFFFFF"/>
				<stop  offset="1" style="stop-color:#FFFFFF;stop-opacity:0"/>
			</linearGradient>
			<polygon fill="url(#SVGID_15_)" points="76.5,49.4 45.7,73.8 36.9,35.8 			"/>

				<linearGradient id="SVGID_16_" gradientUnits="userSpaceOnUse" x1="903.1061" y1="380.678" x2="938.3054" y2="413.3501" gradientTransform="matrix(1 0 0 -1 -866.5223 522.7517)">
				<stop  offset="0" style="stop-color:#FFFFFF"/>
				<stop  offset="1" style="stop-color:#FFFFFF;stop-opacity:0"/>
			</linearGradient>
			<polygon fill="url(#SVGID_16_)" points="36.9,111.9 76.5,98.3 76.5,134.9 			"/>

				<linearGradient id="SVGID_17_" gradientUnits="userSpaceOnUse" x1="946.4569" y1="455.2536" x2="913.2801" y2="422.5334" gradientTransform="matrix(1 0 0 -1 -866.5223 522.7517)">
				<stop  offset="0" style="stop-color:#FFFFFF"/>
				<stop  offset="1" style="stop-color:#FFFFFF;stop-opacity:0"/>
			</linearGradient>
			<polygon fill="url(#SVGID_17_)" points="76.5,98.3 58,83.1 45.7,73.8 36.9,111.9 			"/>

				<linearGradient id="SVGID_18_" gradientUnits="userSpaceOnUse" x1="956.9342" y1="86.6602" x2="927.414" y2="85.5895" gradientTransform="matrix(1 0 0 1 -866.5223 0)">
				<stop  offset="0" style="stop-color:#FFFFFF"/>
				<stop  offset="1" style="stop-color:#FFFFFF;stop-opacity:0"/>
			</linearGradient>
			<polygon fill="url(#SVGID_18_)" points="45.7,73.8 76.5,74 76.5,98.3 58,83.1 			"/>

				<linearGradient id="SVGID_19_" gradientUnits="userSpaceOnUse" x1="956.9368" y1="515.8157" x2="927.4191" y2="514.7451" gradientTransform="matrix(1 0 0 -1 -866.5223 577.0123)">
				<stop  offset="0" style="stop-color:#FFFFFF"/>
				<stop  offset="1" style="stop-color:#FFFFFF;stop-opacity:0"/>
			</linearGradient>
			<polygon fill="url(#SVGID_19_)" points="45.7,73.8 76.5,74 76.5,49.4 			"/>

				<linearGradient id="SVGID_20_" gradientUnits="userSpaceOnUse" x1="967.9954" y1="78.6744" x2="918.3992" y2="76.8755" gradientTransform="matrix(1 0 0 1 -866.5223 0)">
				<stop  offset="0" style="stop-color:#FFFFFF"/>
				<stop  offset="1" style="stop-color:#FFFFFF;stop-opacity:0"/>
			</linearGradient>
			<polygon fill="url(#SVGID_20_)" points="45.7,12.5 76.5,141.9 26.5,54 			"/>

				<linearGradient id="SVGID_21_" gradientUnits="userSpaceOnUse" x1="969.7161" y1="78.9853" x2="912.8853" y2="76.9241" gradientTransform="matrix(1 0 0 1 -866.5223 0)">
				<stop  offset="0" style="stop-color:#FFFFFF"/>
				<stop  offset="1" style="stop-color:#FFFFFF;stop-opacity:0"/>
			</linearGradient>
			<polyline fill="url(#SVGID_21_)" points="76.5,49.4 58,83.1 15.4,104.4 76.5,98.3 			"/>

				<linearGradient id="SVGID_22_" gradientUnits="userSpaceOnUse" x1="969.6965" y1="424.0961" x2="912.8977" y2="422.036" gradientTransform="matrix(1 0 0 -1 -866.5223 492.7249)">
				<stop  offset="0" style="stop-color:#FFFFFF"/>
				<stop  offset="1" style="stop-color:#FFFFFF;stop-opacity:0"/>
			</linearGradient>
			<polyline fill="url(#SVGID_22_)" points="76.5,98.3 58,83.1 45.7,73.8 15.4,43.1 76.5,49.4 			"/>

				<linearGradient id="SVGID_23_" gradientUnits="userSpaceOnUse" x1="7809.3667" y1="55.8033" x2="7830.0098" y2="55.0546" gradientTransform="matrix(-1 0 0 1 7896.833 0)">
				<stop  offset="0" style="stop-color:#FFFFFF"/>
				<stop  offset="1" style="stop-color:#FFFFFF;stop-opacity:0"/>
			</linearGradient>
			<polyline fill="url(#SVGID_23_)" points="57.1,24 76.5,98.3 76.5,12.5 			"/>

				<linearGradient id="SVGID_24_" gradientUnits="userSpaceOnUse" x1="7807.1533" y1="458.5323" x2="7832.6489" y2="457.6076" gradientTransform="matrix(-1 0 0 -1 7896.833 557.1663)">
				<stop  offset="0" style="stop-color:#FFFFFF"/>
				<stop  offset="1" style="stop-color:#FFFFFF;stop-opacity:0"/>
			</linearGradient>
			<polyline fill="url(#SVGID_24_)" points="51.8,128.7 76.5,56.3 76.5,141.9 			"/>

				<linearGradient id="SVGID_25_" gradientUnits="userSpaceOnUse" x1="7834.5786" y1="60.1519" x2="7869.5674" y2="58.8829" gradientTransform="matrix(-1 0 0 1 7896.833 0)">
				<stop  offset="0" style="stop-color:#FFFFFF"/>
				<stop  offset="1" style="stop-color:#FFFFFF;stop-opacity:0"/>
			</linearGradient>
			<polyline fill="url(#SVGID_25_)" points="15.4,43 45.7,73.8 15.4,73.7 8.3,73.7 			"/>

				<linearGradient id="SVGID_26_" gradientUnits="userSpaceOnUse" x1="-230.1819" y1="58.9961" x2="-247.0547" y2="58.3841" gradientTransform="matrix(1 0 0 1 264.0777 0)">
				<stop  offset="0" style="stop-color:#FFFFFF"/>
				<stop  offset="1" style="stop-color:#FFFFFF;stop-opacity:0"/>
			</linearGradient>
			<polyline fill="url(#SVGID_26_)" points="15.4,43 26.5,54.2 15.4,73.7 			"/>

				<linearGradient id="SVGID_27_" gradientUnits="userSpaceOnUse" x1="7909.1514" y1="120.1943" x2="7866.543" y2="68.2494" gradientTransform="matrix(-1 0 0 1 7896.833 0)">
				<stop  offset="0" style="stop-color:#FFFFFF"/>
				<stop  offset="1" style="stop-color:#FFFFFF;stop-opacity:0"/>
			</linearGradient>
			<polyline opacity="0.3" fill="url(#SVGID_27_)" points="45.7,73.8 15.4,104.4 37,35.7 			"/>

				<linearGradient id="SVGID_28_" gradientUnits="userSpaceOnUse" x1="7909.0669" y1="218.9795" x2="7866.6216" y2="167.2334" gradientTransform="matrix(-1 0 0 -1 7896.833 246.2239)">
				<stop  offset="0" style="stop-color:#FFFFFF"/>
				<stop  offset="1" style="stop-color:#FFFFFF;stop-opacity:0"/>
			</linearGradient>
			<polyline opacity="0.3" fill="url(#SVGID_28_)" points="45.7,73.8 15.4,43 37,111.3 			"/>

				<linearGradient id="SVGID_29_" gradientUnits="userSpaceOnUse" x1="7878.7881" y1="-567.4705" x2="7836.1753" y2="-619.4202" gradientTransform="matrix(-1 0 0 1 7896.833 718.0335)">
				<stop  offset="0" style="stop-color:#FFFFFF"/>
				<stop  offset="1" style="stop-color:#FFFFFF;stop-opacity:0"/>
			</linearGradient>
			<polyline opacity="0.3" fill="url(#SVGID_29_)" points="76.1,104.2 45.8,134.7 67.3,66.1 			"/>

				<linearGradient id="SVGID_30_" gradientUnits="userSpaceOnUse" x1="7878.7881" y1="-152.5529" x2="7836.1753" y2="-204.5027" gradientTransform="matrix(-1 0 0 -1 7896.833 -155.7554)">
				<stop  offset="0" style="stop-color:#FFFFFF"/>
				<stop  offset="1" style="stop-color:#FFFFFF;stop-opacity:0"/>
			</linearGradient>
			<polyline opacity="0.3" fill="url(#SVGID_30_)" points="76.1,43.2 45.8,12.6 67.3,81.3 			"/>

				<linearGradient id="SVGID_31_" gradientUnits="userSpaceOnUse" x1="7880.4878" y1="60.081" x2="7841.7969" y2="51.8963" gradientTransform="matrix(-1 0 0 1 7896.833 0)">
				<stop  offset="0" style="stop-color:#FFFFFF"/>
				<stop  offset="1" style="stop-color:#FFFFFF;stop-opacity:0"/>
			</linearGradient>
			<polyline fill="url(#SVGID_31_)" points="76.5,49.4 36.9,35.8 45.7,73.8 			"/>

				<linearGradient id="SVGID_32_" gradientUnits="userSpaceOnUse" x1="7881.2314" y1="560.3463" x2="7842.4541" y2="552.1432" gradientTransform="matrix(-1 0 0 -1 7896.833 651.101)">
				<stop  offset="0" style="stop-color:#FFFFFF"/>
				<stop  offset="1" style="stop-color:#FFFFFF;stop-opacity:0"/>
			</linearGradient>
			<polyline fill="url(#SVGID_32_)" points="76.5,98.4 36.9,111.9 58,83.1 			"/>

				<linearGradient id="SVGID_33_" gradientUnits="userSpaceOnUse" x1="7819.6152" y1="60.2452" x2="7841.3706" y2="31.2766" gradientTransform="matrix(-1 0 0 1 7896.833 0)">
				<stop  offset="0" style="stop-color:#FFFFFF"/>
				<stop  offset="1" style="stop-color:#FFFFFF;stop-opacity:0"/>
			</linearGradient>
			<polyline fill="url(#SVGID_33_)" points="63.3,12.6 76.5,49.4 36.9,35.8 			"/>

				<linearGradient id="SVGID_34_" gradientUnits="userSpaceOnUse" x1="7819.6436" y1="753.1251" x2="7841.3818" y2="724.1794" gradientTransform="matrix(-1 0 0 -1 7896.833 840.6171)">
				<stop  offset="0" style="stop-color:#FFFFFF"/>
				<stop  offset="1" style="stop-color:#FFFFFF;stop-opacity:0"/>
			</linearGradient>
			<polyline fill="url(#SVGID_34_)" points="63.3,135.1 76.5,98.3 36.9,112 			"/>

				<linearGradient id="SVGID_35_" gradientUnits="userSpaceOnUse" x1="1663.7646" y1="3058.3264" x2="1610.9902" y2="3005.3127" gradientTransform="matrix(0.7071 -0.7071 -0.7071 -0.7071 1016.5672 3331.3379)">
				<stop  offset="0" style="stop-color:#FFFFFF"/>
				<stop  offset="1" style="stop-color:#FFFFFF;stop-opacity:0"/>
			</linearGradient>
			<polyline opacity="0.3" fill="url(#SVGID_35_)" points="45.7,73.8 45.8,12.6 26.1,39.4 15.4,73.7 			"/>

				<linearGradient id="SVGID_36_" gradientUnits="userSpaceOnUse" x1="1404.0668" y1="2798.6299" x2="1351.4701" y2="2745.7947" gradientTransform="matrix(0.7071 0.7071 -0.7071 0.7071 1016.5672 -2816.7812)">
				<stop  offset="0" style="stop-color:#FFFFFF"/>
				<stop  offset="1" style="stop-color:#FFFFFF;stop-opacity:0"/>
			</linearGradient>
			<polyline opacity="0.3" fill="url(#SVGID_36_)" points="45.7,73.8 45.8,134.7 27.2,108.5 15.4,73.7 			"/>

				<linearGradient id="SVGID_37_" gradientUnits="userSpaceOnUse" x1="735.7974" y1="107.229" x2="705.5952" y2="126.4755" gradientTransform="matrix(-1 0 0 1 770.8323 0)">
				<stop  offset="0" style="stop-color:#FFFFFF"/>
				<stop  offset="1" style="stop-color:#FFFFFF;stop-opacity:0"/>
			</linearGradient>
			<polyline fill="url(#SVGID_37_)" points="84.7,134.9 52.5,106.6 59.7,134.7 			"/>

				<linearGradient id="SVGID_38_" gradientUnits="userSpaceOnUse" x1="736.3424" y1="-562.4982" x2="706.0447" y2="-543.1909" gradientTransform="matrix(-1 0 0 -1 770.8323 -522.25)">
				<stop  offset="0" style="stop-color:#FFFFFF"/>
				<stop  offset="1" style="stop-color:#FFFFFF;stop-opacity:0"/>
			</linearGradient>
			<polyline fill="url(#SVGID_38_)" points="84.2,12.4 52,41 59.4,12.4 			"/>
			<linearGradient id="SVGID_39_" gradientUnits="userSpaceOnUse" x1="0.8308" y1="42.7629" x2="21.1314" y2="71.4638">
				<stop  offset="0" style="stop-color:#FFFFFF"/>
				<stop  offset="0.3566" style="stop-color:#FFFFFF;stop-opacity:0.6975"/>
				<stop  offset="1" style="stop-color:#FFFFFF;stop-opacity:0"/>
			</linearGradient>
			<polygon opacity="0.7" fill="url(#SVGID_39_)" points="8.3,73.7 15.4,73.7 15.4,43 			"/>

				<linearGradient id="SVGID_40_" gradientUnits="userSpaceOnUse" x1="0.8308" y1="683.0823" x2="21.1314" y2="711.7833" gradientTransform="matrix(1 0 0 -1 0 787.6902)">
				<stop  offset="0" style="stop-color:#FFFFFF"/>
				<stop  offset="0.3566" style="stop-color:#FFFFFF;stop-opacity:0.6975"/>
				<stop  offset="1" style="stop-color:#FFFFFF;stop-opacity:0"/>
			</linearGradient>
			<polygon opacity="0.7" fill="url(#SVGID_40_)" points="8.3,73.7 15.4,73.7 15.4,104.4 			"/>
		</g>
		<g>

				<linearGradient id="SVGID_41_" gradientUnits="userSpaceOnUse" x1="1730.1511" y1="71.6372" x2="1672.067" y2="69.5304" gradientTransform="matrix(-1 0 0 1 1779.9495 0)">
				<stop  offset="0" style="stop-color:#FFFFFF"/>
				<stop  offset="1" style="stop-color:#FFFFFF;stop-opacity:0"/>
			</linearGradient>
			<polyline fill="url(#SVGID_41_)" points="107.2,134.7 76.5,5.5 137.5,104.4 76.5,73.9 137.6,43 			"/>

				<linearGradient id="SVGID_42_" gradientUnits="userSpaceOnUse" x1="3360.8352" y1="574.2005" x2="3367.4873" y2="591.1329" gradientTransform="matrix(-1 0 0 -1 3455.019 718.5138)">
				<stop  offset="0" style="stop-color:#FFFFFF"/>
				<stop  offset="1" style="stop-color:#FFFFFF;stop-opacity:0"/>
			</linearGradient>
			<polygon fill="url(#SVGID_42_)" points="107.2,134.7 76.5,134.9 76.5,141.9 			"/>

				<linearGradient id="SVGID_43_" gradientUnits="userSpaceOnUse" x1="3360.8352" y1="11845.1338" x2="3367.4873" y2="11862.0664" gradientTransform="matrix(-1 0 0 1 3455.019 -11842.0869)">
				<stop  offset="0" style="stop-color:#FFFFFF"/>
				<stop  offset="1" style="stop-color:#FFFFFF;stop-opacity:0"/>
			</linearGradient>
			<polygon fill="url(#SVGID_43_)" points="107.2,12.6 76.5,12.5 76.5,5.5 			"/>

				<linearGradient id="SVGID_44_" gradientUnits="userSpaceOnUse" x1="3353.9988" y1="101.2323" x2="3333.5898" y2="118.7689" gradientTransform="matrix(-1 0 0 1 3455.019 0)">
				<stop  offset="0" style="stop-color:#FFFFFF"/>
				<stop  offset="1" style="stop-color:#FFFFFF;stop-opacity:0"/>
			</linearGradient>
			<polygon fill="url(#SVGID_44_)" points="137.5,104.4 107.2,134.7 116,111.9 			"/>

				<linearGradient id="SVGID_45_" gradientUnits="userSpaceOnUse" x1="3354.4199" y1="470.0966" x2="3333.6313" y2="487.9595" gradientTransform="matrix(-1 0 0 -1 3455.019 516.5876)">
				<stop  offset="0" style="stop-color:#FFFFFF"/>
				<stop  offset="1" style="stop-color:#FFFFFF;stop-opacity:0"/>
			</linearGradient>
			<polygon fill="url(#SVGID_45_)" points="137.5,43 107.2,12.6 116,35.8 			"/>

				<linearGradient id="SVGID_46_" gradientUnits="userSpaceOnUse" x1="3300.0413" y1="35.2215" x2="3330.7522" y2="56.4595" gradientTransform="matrix(-1 0 0 1 3455.019 0)">
				<stop  offset="0" style="stop-color:#FFFFFF"/>
				<stop  offset="1" style="stop-color:#FFFFFF;stop-opacity:0"/>
			</linearGradient>
			<polygon fill="url(#SVGID_46_)" points="137.5,73.7 116,35.8 137.5,43 			"/>

				<linearGradient id="SVGID_47_" gradientUnits="userSpaceOnUse" x1="3300.1111" y1="457.3199" x2="3330.822" y2="478.5579" gradientTransform="matrix(-1 0 0 -1 3455.019 569.5604)">
				<stop  offset="0" style="stop-color:#FFFFFF"/>
				<stop  offset="1" style="stop-color:#FFFFFF;stop-opacity:0"/>
			</linearGradient>
			<polygon fill="url(#SVGID_47_)" points="137.5,73.7 116,111.9 137.5,104.4 			"/>

				<linearGradient id="SVGID_48_" gradientUnits="userSpaceOnUse" x1="3368.3013" y1="39.9246" x2="3354.9907" y2="17.8412" gradientTransform="matrix(-1 0 0 1 3455.019 0)">
				<stop  offset="0" style="stop-color:#FFFFFF"/>
				<stop  offset="1" style="stop-color:#FFFFFF;stop-opacity:0"/>
			</linearGradient>
			<polygon fill="url(#SVGID_48_)" points="107.2,12.6 116,35.8 76.5,12.5 			"/>

				<linearGradient id="SVGID_49_" gradientUnits="userSpaceOnUse" x1="3368.3286" y1="454.7327" x2="3355.0493" y2="432.7014" gradientTransform="matrix(-1 0 0 -1 3455.019 562.2782)">
				<stop  offset="0" style="stop-color:#FFFFFF"/>
				<stop  offset="1" style="stop-color:#FFFFFF;stop-opacity:0"/>
			</linearGradient>
			<polygon fill="url(#SVGID_49_)" points="107.2,134.7 116,111.9 76.5,134.9 			"/>

				<linearGradient id="SVGID_50_" gradientUnits="userSpaceOnUse" x1="3311.6978" y1="39.3649" x2="3341.4749" y2="67.0042" gradientTransform="matrix(-1 0 0 1 3455.019 0)">
				<stop  offset="0" style="stop-color:#FFFFFF"/>
				<stop  offset="1" style="stop-color:#FFFFFF;stop-opacity:0"/>
			</linearGradient>
			<polygon fill="url(#SVGID_50_)" points="137.5,73.7 107.2,73.8 116,35.8 			"/>

				<linearGradient id="SVGID_51_" gradientUnits="userSpaceOnUse" x1="3363.8254" y1="329.5125" x2="3329.6882" y2="347.5762" gradientTransform="matrix(-1 0 0 -1 3455.019 433.1687)">
				<stop  offset="0" style="stop-color:#FFFFFF"/>
				<stop  offset="1" style="stop-color:#FFFFFF;stop-opacity:0"/>
			</linearGradient>
			<polygon fill="url(#SVGID_51_)" points="137.6,73.7 107.2,73.8 116,111.9 			"/>

				<linearGradient id="SVGID_52_" gradientUnits="userSpaceOnUse" x1="3338.717" y1="5.5075" x2="3373.9648" y2="38.2249" gradientTransform="matrix(-1 0 0 1 3455.019 0)">
				<stop  offset="0" style="stop-color:#FFFFFF"/>
				<stop  offset="1" style="stop-color:#FFFFFF;stop-opacity:0"/>
			</linearGradient>
			<polygon fill="url(#SVGID_52_)" points="116,35.8 76.5,49.5 76.5,12.5 			"/>

				<linearGradient id="SVGID_53_" gradientUnits="userSpaceOnUse" x1="3382.061" y1="80.2366" x2="3348.8459" y2="47.4786" gradientTransform="matrix(-1 0 0 1 3455.019 0)">
				<stop  offset="0" style="stop-color:#FFFFFF"/>
				<stop  offset="1" style="stop-color:#FFFFFF;stop-opacity:0"/>
			</linearGradient>
			<polygon fill="url(#SVGID_53_)" points="76.5,49.4 107.2,73.8 116,35.8 			"/>

				<linearGradient id="SVGID_54_" gradientUnits="userSpaceOnUse" x1="3338.6562" y1="380.678" x2="3373.8555" y2="413.3501" gradientTransform="matrix(-1 0 0 -1 3455.019 522.7517)">
				<stop  offset="0" style="stop-color:#FFFFFF"/>
				<stop  offset="1" style="stop-color:#FFFFFF;stop-opacity:0"/>
			</linearGradient>
			<polygon fill="url(#SVGID_54_)" points="116,111.9 76.5,98.3 76.5,134.9 			"/>

				<linearGradient id="SVGID_55_" gradientUnits="userSpaceOnUse" x1="3382.0071" y1="455.2536" x2="3348.8301" y2="422.5334" gradientTransform="matrix(-1 0 0 -1 3455.019 522.7517)">
				<stop  offset="0" style="stop-color:#FFFFFF"/>
				<stop  offset="1" style="stop-color:#FFFFFF;stop-opacity:0"/>
			</linearGradient>
			<polygon fill="url(#SVGID_55_)" points="76.5,98.3 94.9,83.1 107.2,73.8 116,111.9 			"/>

				<linearGradient id="SVGID_56_" gradientUnits="userSpaceOnUse" x1="3392.4844" y1="86.6602" x2="3362.9641" y2="85.5895" gradientTransform="matrix(-1 0 0 1 3455.019 0)">
				<stop  offset="0" style="stop-color:#FFFFFF"/>
				<stop  offset="1" style="stop-color:#FFFFFF;stop-opacity:0"/>
			</linearGradient>
			<polygon fill="url(#SVGID_56_)" points="107.2,73.8 76.5,74 76.5,98.3 94.9,83.1 			"/>

				<linearGradient id="SVGID_57_" gradientUnits="userSpaceOnUse" x1="3392.4868" y1="515.8157" x2="3362.9692" y2="514.7451" gradientTransform="matrix(-1 0 0 -1 3455.019 577.0123)">
				<stop  offset="0" style="stop-color:#FFFFFF"/>
				<stop  offset="1" style="stop-color:#FFFFFF;stop-opacity:0"/>
			</linearGradient>
			<polygon fill="url(#SVGID_57_)" points="107.2,73.8 76.5,74 76.5,49.4 			"/>

				<linearGradient id="SVGID_58_" gradientUnits="userSpaceOnUse" x1="3403.5454" y1="78.6744" x2="3353.9492" y2="76.8755" gradientTransform="matrix(-1 0 0 1 3455.019 0)">
				<stop  offset="0" style="stop-color:#FFFFFF"/>
				<stop  offset="1" style="stop-color:#FFFFFF;stop-opacity:0"/>
			</linearGradient>
			<polygon fill="url(#SVGID_58_)" points="107.2,12.5 76.5,141.9 126.4,54 			"/>

				<linearGradient id="SVGID_59_" gradientUnits="userSpaceOnUse" x1="3405.2661" y1="78.9853" x2="3348.4353" y2="76.9241" gradientTransform="matrix(-1 0 0 1 3455.019 0)">
				<stop  offset="0" style="stop-color:#FFFFFF"/>
				<stop  offset="1" style="stop-color:#FFFFFF;stop-opacity:0"/>
			</linearGradient>
			<polyline fill="url(#SVGID_59_)" points="76.5,49.4 94.9,83.1 137.6,104.4 76.5,98.3 			"/>

				<linearGradient id="SVGID_60_" gradientUnits="userSpaceOnUse" x1="3405.2466" y1="424.0961" x2="3348.4478" y2="422.036" gradientTransform="matrix(-1 0 0 -1 3455.019 492.7249)">
				<stop  offset="0" style="stop-color:#FFFFFF"/>
				<stop  offset="1" style="stop-color:#FFFFFF;stop-opacity:0"/>
			</linearGradient>
			<polyline fill="url(#SVGID_60_)" points="76.5,98.3 94.9,83.1 107.2,73.8 137.5,43.1 76.5,49.4 			"/>

				<linearGradient id="SVGID_61_" gradientUnits="userSpaceOnUse" x1="5373.8164" y1="55.8033" x2="5394.4595" y2="55.0546" gradientTransform="matrix(1 0 0 1 -5308.3364 0)">
				<stop  offset="0" style="stop-color:#FFFFFF"/>
				<stop  offset="1" style="stop-color:#FFFFFF;stop-opacity:0"/>
			</linearGradient>
			<polyline fill="url(#SVGID_61_)" points="95.9,24 76.5,98.3 76.5,12.5 			"/>

				<linearGradient id="SVGID_62_" gradientUnits="userSpaceOnUse" x1="5371.603" y1="458.5323" x2="5397.0986" y2="457.6076" gradientTransform="matrix(1 0 0 -1 -5308.3364 557.1663)">
				<stop  offset="0" style="stop-color:#FFFFFF"/>
				<stop  offset="1" style="stop-color:#FFFFFF;stop-opacity:0"/>
			</linearGradient>
			<polyline fill="url(#SVGID_62_)" points="101.2,128.7 76.5,56.3 76.5,141.9 			"/>

				<linearGradient id="SVGID_63_" gradientUnits="userSpaceOnUse" x1="5399.0283" y1="60.1519" x2="5434.0171" y2="58.8829" gradientTransform="matrix(1 0 0 1 -5308.3364 0)">
				<stop  offset="0" style="stop-color:#FFFFFF"/>
				<stop  offset="1" style="stop-color:#FFFFFF;stop-opacity:0"/>
			</linearGradient>
			<polyline fill="url(#SVGID_63_)" points="137.5,43 107.2,73.8 137.5,73.7 144.7,73.7 			"/>

				<linearGradient id="SVGID_64_" gradientUnits="userSpaceOnUse" x1="2205.3682" y1="58.9961" x2="2188.4954" y2="58.3841" gradientTransform="matrix(-1 0 0 1 2324.4189 0)">
				<stop  offset="0" style="stop-color:#FFFFFF"/>
				<stop  offset="1" style="stop-color:#FFFFFF;stop-opacity:0"/>
			</linearGradient>
			<polyline fill="url(#SVGID_64_)" points="137.5,43 126.5,54.2 137.5,73.7 			"/>

				<linearGradient id="SVGID_65_" gradientUnits="userSpaceOnUse" x1="5473.6016" y1="120.1943" x2="5430.9927" y2="68.2494" gradientTransform="matrix(1 0 0 1 -5308.3364 0)">
				<stop  offset="0" style="stop-color:#FFFFFF"/>
				<stop  offset="1" style="stop-color:#FFFFFF;stop-opacity:0"/>
			</linearGradient>
			<polyline opacity="0.3" fill="url(#SVGID_65_)" points="107.2,73.8 137.5,104.4 116,35.7 			"/>

				<linearGradient id="SVGID_66_" gradientUnits="userSpaceOnUse" x1="5473.5171" y1="218.9795" x2="5431.0713" y2="167.2334" gradientTransform="matrix(1 0 0 -1 -5308.3364 246.2239)">
				<stop  offset="0" style="stop-color:#FFFFFF"/>
				<stop  offset="1" style="stop-color:#FFFFFF;stop-opacity:0"/>
			</linearGradient>
			<polyline opacity="0.3" fill="url(#SVGID_66_)" points="107.2,73.8 137.5,43 116,111.3 			"/>

				<linearGradient id="SVGID_67_" gradientUnits="userSpaceOnUse" x1="5443.2383" y1="-567.4705" x2="5400.6255" y2="-619.4202" gradientTransform="matrix(1 0 0 1 -5308.3364 718.0335)">
				<stop  offset="0" style="stop-color:#FFFFFF"/>
				<stop  offset="1" style="stop-color:#FFFFFF;stop-opacity:0"/>
			</linearGradient>
			<polyline opacity="0.3" fill="url(#SVGID_67_)" points="76.8,104.2 107.2,134.7 85.6,66.1 			"/>

				<linearGradient id="SVGID_68_" gradientUnits="userSpaceOnUse" x1="5443.2378" y1="-152.5529" x2="5400.625" y2="-204.5027" gradientTransform="matrix(1 0 0 -1 -5308.3364 -155.7554)">
				<stop  offset="0" style="stop-color:#FFFFFF"/>
				<stop  offset="1" style="stop-color:#FFFFFF;stop-opacity:0"/>
			</linearGradient>
			<polyline opacity="0.3" fill="url(#SVGID_68_)" points="76.8,43.2 107.2,12.6 85.6,81.3 			"/>

				<linearGradient id="SVGID_69_" gradientUnits="userSpaceOnUse" x1="5444.938" y1="60.081" x2="5406.2466" y2="51.8963" gradientTransform="matrix(1 0 0 1 -5308.3364 0)">
				<stop  offset="0" style="stop-color:#FFFFFF"/>
				<stop  offset="1" style="stop-color:#FFFFFF;stop-opacity:0"/>
			</linearGradient>
			<polyline fill="url(#SVGID_69_)" points="76.5,49.4 116,35.8 107.2,73.8 			"/>

				<linearGradient id="SVGID_70_" gradientUnits="userSpaceOnUse" x1="5445.6816" y1="560.3463" x2="5406.9038" y2="552.1432" gradientTransform="matrix(1 0 0 -1 -5308.3364 651.101)">
				<stop  offset="0" style="stop-color:#FFFFFF"/>
				<stop  offset="1" style="stop-color:#FFFFFF;stop-opacity:0"/>
			</linearGradient>
			<polyline fill="url(#SVGID_70_)" points="76.4,98.4 116,111.9 94.9,83.1 			"/>

				<linearGradient id="SVGID_71_" gradientUnits="userSpaceOnUse" x1="5384.0649" y1="60.2452" x2="5405.8203" y2="31.2766" gradientTransform="matrix(1 0 0 1 -5308.3364 0)">
				<stop  offset="0" style="stop-color:#FFFFFF"/>
				<stop  offset="1" style="stop-color:#FFFFFF;stop-opacity:0"/>
			</linearGradient>
			<polyline fill="url(#SVGID_71_)" points="89.6,12.6 76.5,49.4 116,35.8 			"/>

				<linearGradient id="SVGID_72_" gradientUnits="userSpaceOnUse" x1="5384.0938" y1="753.1251" x2="5405.8315" y2="724.1794" gradientTransform="matrix(1 0 0 -1 -5308.3364 840.6171)">
				<stop  offset="0" style="stop-color:#FFFFFF"/>
				<stop  offset="1" style="stop-color:#FFFFFF;stop-opacity:0"/>
			</linearGradient>
			<polyline fill="url(#SVGID_72_)" points="89.6,135.1 76.5,98.3 116,112 			"/>

				<linearGradient id="SVGID_73_" gradientUnits="userSpaceOnUse" x1="3385.9751" y1="1336.1158" x2="3333.2007" y2="1283.1022" gradientTransform="matrix(-0.7071 -0.7071 0.7071 -0.7071 1571.9294 3331.3379)">
				<stop  offset="0" style="stop-color:#FFFFFF"/>
				<stop  offset="1" style="stop-color:#FFFFFF;stop-opacity:0"/>
			</linearGradient>
			<polyline opacity="0.3" fill="url(#SVGID_73_)" points="107.2,73.8 107.2,12.6 126.9,39.4 137.5,73.7 			"/>

				<linearGradient id="SVGID_74_" gradientUnits="userSpaceOnUse" x1="3126.2773" y1="1076.4193" x2="3073.6807" y2="1023.5842" gradientTransform="matrix(-0.7071 0.7071 0.7071 0.7071 1571.9294 -2816.7812)">
				<stop  offset="0" style="stop-color:#FFFFFF"/>
				<stop  offset="1" style="stop-color:#FFFFFF;stop-opacity:0"/>
			</linearGradient>
			<polyline opacity="0.3" fill="url(#SVGID_74_)" points="107.2,73.8 107.2,134.7 125.7,108.5 137.5,73.7 			"/>

				<linearGradient id="SVGID_75_" gradientUnits="userSpaceOnUse" x1="-1699.7527" y1="107.229" x2="-1729.955" y2="126.4755" gradientTransform="matrix(1 0 0 1 1817.6643 0)">
				<stop  offset="0" style="stop-color:#FFFFFF"/>
				<stop  offset="1" style="stop-color:#FFFFFF;stop-opacity:0"/>
			</linearGradient>
			<polyline fill="url(#SVGID_75_)" points="68.3,134.9 100.5,106.6 93.2,134.7 			"/>

				<linearGradient id="SVGID_76_" gradientUnits="userSpaceOnUse" x1="-1699.2076" y1="-562.4982" x2="-1729.5054" y2="-543.1909" gradientTransform="matrix(1 0 0 -1 1817.6643 -522.25)">
				<stop  offset="0" style="stop-color:#FFFFFF"/>
				<stop  offset="1" style="stop-color:#FFFFFF;stop-opacity:0"/>
			</linearGradient>
			<polyline fill="url(#SVGID_76_)" points="68.7,12.4 100.9,41 93.6,12.4 			"/>

				<linearGradient id="SVGID_77_" gradientUnits="userSpaceOnUse" x1="2436.3809" y1="42.7629" x2="2456.6814" y2="71.4638" gradientTransform="matrix(-1 0 0 1 2588.4966 0)">
				<stop  offset="0" style="stop-color:#FFFFFF"/>
				<stop  offset="0.3566" style="stop-color:#FFFFFF;stop-opacity:0.6975"/>
				<stop  offset="1" style="stop-color:#FFFFFF;stop-opacity:0"/>
			</linearGradient>
			<polygon opacity="0.7" fill="url(#SVGID_77_)" points="144.7,73.7 137.5,73.7 137.5,43 			"/>

				<linearGradient id="SVGID_78_" gradientUnits="userSpaceOnUse" x1="2436.3809" y1="683.0823" x2="2456.6814" y2="711.7833" gradientTransform="matrix(-1 0 0 -1 2588.4966 787.6902)">
				<stop  offset="0" style="stop-color:#FFFFFF"/>
				<stop  offset="0.3566" style="stop-color:#FFFFFF;stop-opacity:0.6975"/>
				<stop  offset="1" style="stop-color:#FFFFFF;stop-opacity:0"/>
			</linearGradient>
			<polygon opacity="0.7" fill="url(#SVGID_78_)" points="144.7,73.7 137.5,73.7 137.5,104.4 			"/>
		</g>
	</g>
	<radialGradient id="SVGID_79_" cx="76.4733" cy="73.6804" r="32.4833" gradientUnits="userSpaceOnUse">
		<stop  offset="0" style="stop-color:#FFFFFF"/>
		<stop  offset="1" style="stop-color:#FFFFFF;stop-opacity:0"/>
	</radialGradient>
	<circle fill="url(#SVGID_79_)" cx="76.5" cy="73.7" r="32.5"/>
</g>
<g>
	<path d="M105.3,58.8c-0.8-1.4-1.9-2.6-3.3-3.6c-1.4-1-3.1-1.8-5.1-2.3c-1.3-0.4-3.8-0.6-6.2-0.6v0h-0.4c-3.2-0.1-6.2,0-6.5,0H72.6
		l0,0v1.8c3.8,0.6,6.8,3.3,6.9,8.3c0.3,9.1-7.5,9.3-9.4,9.4c-1.8,0.1-5.5,0.1-5.5,0.1h-5.4V53.9h5.4v-1.7H46.5v1.7h6.7v39.4h-6.7
		v1.8h18.1v-1.8h-5.4V73.7h5.4l4.4,0.1c3.8,0,11.2,1.7,11.2,10.3c0,6.1-3.9,8.7-7.7,9.1v1.9h18v-1.8h-1.2h-4.1V75.4v-1v-0.7h4
		c5.2,0,7.5-0.4,7.5-0.4c3.1-0.6,7-2.2,9-6c0.5-1.1,0.8-2.4,0.8-3.7C106.5,61.8,106.1,60.2,105.3,58.8z M90.6,71.8h-5.3V53.9h5.3
		c3.9,0,10,1.4,10,9S94.5,71.8,90.6,71.8z"/>
</g>
<g>
	<g>
		<polygon points="181.2,53.4 187.9,53.4 187.9,73.1 167.9,73.1 167.9,53.4 174.5,53.4 174.5,52.6 155.2,52.6 155.2,53.4
			161.9,53.4 161.9,94.5 155.2,94.5 155.2,95.4 174.5,95.4 174.5,94.5 167.9,94.5 167.9,73.9 187.9,73.9 187.9,94.5 181.2,94.5
			181.2,95.4 200.5,95.4 200.5,94.5 193.9,94.5 193.9,53.4 200.5,53.4 200.5,52.6 181.2,52.6 		"/>
		<path d="M227.9,69.6h-9.7v0.8h4.6v13.9c0,1.7-0.3,3.2-0.8,4.5c-0.5,1.3-1.2,2.5-2,3.5c-0.8,1-1.6,1.7-2.6,2.2
			c-0.9,0.5-1.9,0.8-2.7,0.8c-1,0-1.9-0.2-2.5-0.6c-0.6-0.4-1.2-0.9-1.6-1.6c-0.4-0.7-0.7-1.4-0.8-2.3c-0.1-0.9-0.2-1.8-0.2-2.9
			V69.6h-9.8v0.8h4.6v17.1c0,1.2,0.1,2.2,0.3,3c0.2,0.8,0.4,1.5,0.7,2c0.3,0.5,0.6,0.9,0.9,1.2c0.3,0.3,0.7,0.6,0.9,0.8
			c0.6,0.4,1.3,0.8,2.3,1.1c1,0.4,2.3,0.5,3.9,0.5c1.3,0,2.5-0.2,3.5-0.6c1-0.4,1.8-1,2.6-1.6c0.7-0.7,1.4-1.4,1.9-2.2
			c0.5-0.8,0.9-1.6,1.3-2.4h0.1v6.1h9.7v-0.8h-4.6V69.6z"/>
		<path d="M280.4,77.9c0-6-2.9-9-8.8-9c-1.2,0-2.4,0.2-3.3,0.5c-1,0.3-1.8,0.8-2.6,1.3c-0.7,0.5-1.3,1.2-1.8,1.8
			c-0.5,0.7-0.9,1.4-1.1,2.1h-0.1c-0.5-2-1.5-3.5-3-4.4c-1.5-0.9-3.3-1.3-5.3-1.3c-2.2,0-4.2,0.6-5.7,1.7c-1.6,1.1-2.8,2.9-3.6,5.3
			h-0.1v-6.3h-9.7v0.8h4.6v24.1h-4.6v0.8h14.4v-0.8H245V81.2c0-2.1,0.3-3.8,0.9-5.3c0.6-1.4,1.3-2.6,2.2-3.5c0.9-0.9,1.8-1.6,2.8-2
			c1-0.4,1.9-0.6,2.8-0.6c1.2,0,2.2,0.4,2.9,1.3c0.7,0.8,1.1,2.1,1.1,3.9v19.6h-4.6v0.8h14.4v-0.8h-4.6V79.2c0-1.6,0.2-3,0.8-4.2
			c0.5-1.2,1.2-2.2,2-2.9c0.8-0.8,1.7-1.3,2.7-1.7c1-0.4,2-0.6,3-0.6c1.3,0,2.3,0.4,3,1.1c0.7,0.8,1.1,1.8,1.1,3.2v20.4h-4.6v0.8
			H285v-0.8h-4.6V77.9z"/>
		<path d="M313.1,94.8c-0.5,0.2-0.9,0.2-1.4,0.2c-0.7,0-1.2-0.2-1.6-0.6c-0.4-0.4-0.5-1.2-0.5-2.3v-15c0-1.1-0.2-2.1-0.5-3.1
			c-0.3-1-0.9-1.9-1.6-2.6c-0.8-0.8-1.8-1.4-3-1.9c-1.2-0.5-2.8-0.7-4.6-0.7c-1.5,0-2.9,0.2-4.1,0.5c-1.2,0.4-2.2,0.9-2.9,1.5
			c-0.8,0.6-1.4,1.3-1.8,2.1c-0.4,0.8-0.6,1.6-0.6,2.5c0,0.8,0.2,1.4,0.5,1.9c0.3,0.5,1.1,0.7,2.5,0.7c0.8,0,1.3-0.2,1.7-0.6
			c0.4-0.4,0.6-0.9,0.6-1.4c0-0.3-0.1-0.8-0.2-1.5c-0.1-0.7-0.2-1.3-0.2-2c0-1,0.4-1.8,1.3-2.3c0.9-0.5,2-0.7,3.3-0.7
			c1,0,1.8,0.1,2.4,0.4c0.6,0.3,1.1,0.7,1.4,1.2c0.3,0.5,0.5,1.2,0.7,2c0.1,0.8,0.2,1.6,0.2,2.6c0,1.2-0.1,2.2-0.3,2.9
			c-0.2,0.7-0.5,1.3-1,1.7c-0.5,0.5-1.2,0.9-2,1.2c-0.9,0.3-2,0.7-3.3,1.1c-1.1,0.4-2.2,0.7-3.3,1c-1.1,0.3-2.1,0.7-3,1.2
			c-0.9,0.5-1.6,1.2-2.2,2c-0.6,0.8-0.8,2-0.8,3.4c0,0.6,0.1,1.3,0.3,2c0.2,0.7,0.6,1.3,1.1,1.9c0.6,0.6,1.3,1,2.3,1.4
			c1,0.4,2.3,0.6,4,0.6c1.5,0,2.7-0.2,3.7-0.5c1-0.3,1.7-0.8,2.3-1.3c0.6-0.5,1-1,1.3-1.6c0.3-0.5,0.5-1,0.7-1.4h0.1
			c0.3,1.5,0.9,2.6,1.8,3.5c0.9,0.8,2.3,1.2,4.2,1.2c1,0,1.9-0.2,2.6-0.5c0.7-0.3,1.3-0.7,1.9-1.1l-0.5-0.7
			C314,94.4,313.6,94.6,313.1,94.8z M304.5,86.6c0,0.8-0.1,1.7-0.2,2.7c-0.1,1-0.4,1.9-0.8,2.7c-0.4,0.8-1,1.5-1.9,2.1
			c-0.8,0.6-1.9,0.8-3.2,0.8c-0.9,0-1.7-0.2-2.3-0.5c-0.6-0.3-1-0.7-1.4-1.2c-0.3-0.5-0.5-1.1-0.7-1.7c-0.1-0.6-0.2-1.3-0.2-1.9
			c0-1.4,0.3-2.6,1-3.5c0.7-0.9,1.7-1.7,2.9-2.2l4.5-1.8c1.2-0.5,1.9-1,2-1.6h0.1V86.6z"/>
		<path d="M345.7,77c0-2.8-0.8-4.8-2.5-6.1c-1.7-1.3-3.8-1.9-6.5-1.9c-1.7,0-3.2,0.3-4.4,0.8c-1.2,0.5-2.2,1.2-3,2
			c-0.8,0.8-1.4,1.5-1.9,2.3c-0.5,0.8-0.8,1.5-1.1,2h-0.1v-6.4h-9.7v0.8h4.6v24.1h-4.6v0.8h14.4v-0.8h-4.6V80.9
			c0-1.6,0.2-3.1,0.8-4.4c0.5-1.4,1.2-2.5,2.1-3.5c0.9-1,1.9-1.8,3.1-2.3c1.2-0.6,2.4-0.8,3.7-0.8c1.6,0,2.7,0.5,3.5,1.5
			c0.7,1,1.1,2.3,1.1,3.8v19.4h-4.6v0.8h14.4v-0.8h-4.6V77z"/>
	</g>
	<g>
		<path d="M474.5,57.8c0.6-0.6,0.9-1.4,0.9-2.3c0-0.9-0.3-1.6-0.9-2.3c-0.6-0.6-1.4-0.9-2.3-0.9c-0.9,0-1.6,0.3-2.3,0.9
			c-0.6,0.6-0.9,1.4-0.9,2.3c0,0.9,0.3,1.6,0.9,2.3c0.6,0.6,1.4,0.9,2.3,0.9C473.2,58.8,473.9,58.5,474.5,57.8z"/>
		<g>
			<path d="M404.5,75.4c-1.2-0.9-2.6-1.6-4.1-2.1c-1.5-0.5-3-0.8-4.4-0.9v-0.1c1.4-0.2,2.7-0.5,4-1c1.3-0.5,2.4-1.2,3.4-2
				c1-0.8,1.8-1.8,2.3-2.9c0.6-1.1,0.9-2.3,0.9-3.7c0-1-0.2-2-0.6-3.2c-0.4-1.2-1.1-2.3-2.2-3.3c-1.1-1-2.6-1.9-4.4-2.6
				c-1.9-0.7-4.3-1.1-7.2-1.1c-0.6,0-1.1,0-1.7,0c-0.6,0-1.2,0-1.9,0c-0.6,0-1.3,0.1-1.9,0.1c-0.6,0-1.2,0-1.8,0h-10.5v0.8h6.7v41.1
				h-6.7v0.8h10.5c0.7,0,1.4,0,2,0c0.6,0,1.3,0,1.9,0.1c0.6,0,1.2,0.1,1.7,0.1c0.5,0,1.1,0,1.7,0c2.8,0,5.2-0.3,7.3-0.9
				c2.1-0.6,3.8-1.5,5.2-2.6c1.4-1.1,2.4-2.4,3.1-3.9c0.7-1.5,1-3.2,1-5c0-1.7-0.4-3.2-1.1-4.6C406.7,77.4,405.8,76.3,404.5,75.4z
				 M387,53.4c0.5-0.1,1.2-0.1,1.9-0.1c0.7,0,1.5,0,2.2,0c1,0,2.1,0.1,3.2,0.3c1.1,0.2,2,0.6,2.9,1.3c0.9,0.6,1.6,1.6,2.1,2.9
				c0.5,1.3,0.8,2.9,0.8,5c0,1.8-0.2,3.4-0.5,4.6c-0.4,1.2-0.9,2.2-1.5,2.9c-0.7,0.7-1.5,1.2-2.4,1.5c-0.9,0.3-1.9,0.4-3.1,0.4H387
				V53.4z M401.1,88.7c-0.4,1.5-1,2.7-1.9,3.6c-0.9,0.9-2,1.5-3.3,1.9c-1.3,0.4-3,0.5-4.8,0.5c-1.1,0-1.9,0-2.5-0.1
				c-0.6-0.1-1.1-0.1-1.6-0.1V72.8h6.6c2.7,0,4.7,0.9,6.1,2.8c1.4,1.8,2,4.4,2,7.6C401.7,85.4,401.5,87.3,401.1,88.7z"/>
			<path d="M433.5,70.5c-0.4-0.5-1-0.8-1.7-1.1c-0.7-0.3-1.5-0.5-2.4-0.5c-1.3,0-2.4,0.2-3.3,0.7c-0.9,0.5-1.7,1.1-2.3,1.8
				c-0.6,0.7-1.1,1.4-1.5,2.2c-0.4,0.8-0.6,1.4-0.8,2h-0.1v-6.1h-9.7v0.8h4.6v24.1h-4.6v0.8h15v-0.8h-5.2V80.8
				c0-1.7,0.2-3.2,0.6-4.5c0.4-1.3,0.9-2.4,1.6-3.3c0.6-0.9,1.3-1.6,2-2.1c0.7-0.5,1.4-0.7,2-0.7c1.4,0,2.1,0.6,2.1,1.9
				c0,0.5,0,0.9-0.1,1.2c-0.1,0.3-0.2,0.5-0.3,0.8c-0.1,0.2-0.2,0.4-0.3,0.7c-0.1,0.2-0.1,0.5-0.1,0.9c0,1.1,0.9,1.7,2.6,1.7
				c0.8,0,1.5-0.2,2.1-0.7c0.6-0.4,0.9-1.3,0.9-2.6c0-0.6-0.1-1.2-0.3-1.8C434.3,71.5,434,71,433.5,70.5z"/>
			<path d="M461.5,94.8c-0.5,0.2-0.9,0.2-1.4,0.2c-0.7,0-1.2-0.2-1.6-0.6c-0.4-0.4-0.5-1.2-0.5-2.3v-15c0-1.1-0.2-2.1-0.5-3.1
				c-0.3-1-0.9-1.9-1.6-2.6c-0.8-0.8-1.8-1.4-3-1.9c-1.2-0.5-2.8-0.7-4.6-0.7c-1.5,0-2.9,0.2-4.1,0.5c-1.2,0.4-2.2,0.9-2.9,1.5
				c-0.8,0.6-1.4,1.3-1.8,2.1c-0.4,0.8-0.6,1.6-0.6,2.5c0,0.8,0.2,1.4,0.5,1.9c0.3,0.5,1.1,0.7,2.5,0.7c0.8,0,1.3-0.2,1.7-0.6
				c0.4-0.4,0.6-0.9,0.6-1.4c0-0.3-0.1-0.8-0.2-1.5c-0.1-0.7-0.2-1.3-0.2-2c0-1,0.4-1.8,1.3-2.3c0.9-0.5,2-0.7,3.3-0.7
				c1,0,1.8,0.1,2.4,0.4c0.6,0.3,1.1,0.7,1.4,1.2c0.3,0.5,0.5,1.2,0.7,2c0.1,0.8,0.2,1.6,0.2,2.6c0,1.2-0.1,2.2-0.3,2.9
				c-0.2,0.7-0.5,1.3-1,1.7c-0.5,0.5-1.2,0.9-2,1.2c-0.9,0.3-2,0.7-3.3,1.1c-1.1,0.4-2.2,0.7-3.3,1c-1.1,0.3-2.1,0.7-3,1.2
				c-0.9,0.5-1.6,1.2-2.2,2c-0.6,0.8-0.8,2-0.8,3.4c0,0.6,0.1,1.3,0.3,2c0.2,0.7,0.6,1.3,1.1,1.9c0.6,0.6,1.3,1,2.3,1.4
				c1,0.4,2.3,0.6,4,0.6c1.5,0,2.7-0.2,3.7-0.5c1-0.3,1.7-0.8,2.3-1.3c0.6-0.5,1-1,1.3-1.6c0.3-0.5,0.5-1,0.7-1.4h0.1
				c0.3,1.5,0.9,2.6,1.8,3.5c0.9,0.8,2.3,1.2,4.2,1.2c1,0,1.9-0.2,2.6-0.5c0.7-0.3,1.3-0.7,1.9-1.1l-0.5-0.7
				C462.4,94.4,462,94.6,461.5,94.8z M452.8,86.6c0,0.8-0.1,1.7-0.2,2.7c-0.1,1-0.4,1.9-0.8,2.7c-0.4,0.8-1,1.5-1.9,2.1
				c-0.8,0.6-1.9,0.8-3.2,0.8c-0.9,0-1.7-0.2-2.3-0.5c-0.6-0.3-1-0.7-1.4-1.2c-0.3-0.5-0.5-1.1-0.7-1.7c-0.1-0.6-0.2-1.3-0.2-1.9
				c0-1.4,0.3-2.6,1-3.5c0.7-0.9,1.7-1.7,2.9-2.2l4.5-1.8c1.2-0.5,1.9-1,2-1.6h0.1V86.6z"/>
			<polygon points="475,69.6 465.2,69.6 465.2,70.4 469.8,70.4 469.8,94.5 465.2,94.5 465.2,95.4 479.6,95.4 479.6,94.5 475,94.5
							"/>
			<path d="M511.9,77c0-2.8-0.8-4.8-2.5-6.1c-1.7-1.3-3.8-1.9-6.5-1.9c-1.7,0-3.2,0.3-4.4,0.8c-1.2,0.5-2.2,1.2-3,2
				c-0.8,0.8-1.4,1.5-1.9,2.3c-0.5,0.8-0.8,1.5-1.1,2h-0.1v-6.4h-9.7v0.8h4.6v24.1h-4.6v0.8h14.4v-0.8h-4.6V80.9
				c0-1.6,0.2-3.1,0.8-4.4c0.5-1.4,1.2-2.5,2.1-3.5c0.9-1,1.9-1.8,3.1-2.3c1.2-0.6,2.4-0.8,3.7-0.8c1.6,0,2.7,0.5,3.5,1.5
				c0.7,1,1.1,2.3,1.1,3.8v19.4h-4.6v0.8h14.4v-0.8h-4.6V77z"/>
		</g>
	</g>
	<g>
		<path d="M569.5,55.5c-1.4-1-3.1-1.8-5-2.3c-1.9-0.5-4.1-0.8-6.3-0.8c-0.6,0-1.1,0-1.7,0c-0.5,0-1.1,0-1.7,0
			c-0.6,0-1.1,0.1-1.7,0.1c-0.6,0-1.1,0-1.7,0h-11.3v0.8h6.7v41.1h-6.7v0.8h19.3v-0.8h-6.7V74.7c0.7,0.1,1.5,0.2,2.3,0.3
			c0.9,0.1,1.6,0.1,2.2,0.1c2.2,0,4.3-0.3,6.3-0.8c2-0.5,3.8-1.3,5.3-2.2c1.5-1,2.7-2.1,3.7-3.5c0.9-1.4,1.4-3,1.4-4.8
			c0-1.7-0.4-3.3-1.2-4.7C572,57.7,570.9,56.5,569.5,55.5z M564.6,71.7c-1.7,1.7-4,2.6-6.9,2.6c-0.7,0-1.5,0-2.3-0.1
			c-0.9-0.1-1.7-0.2-2.5-0.4V53.4c0.3,0,0.8-0.1,1.4-0.1c0.6,0,1.3-0.1,2.1-0.1c1.9,0,3.6,0.2,5,0.5c1.4,0.3,2.5,0.9,3.4,1.7
			c0.9,0.8,1.5,1.9,1.9,3.3c0.4,1.4,0.6,3.1,0.6,5.1C567.1,67.3,566.3,70,564.6,71.7z"/>
		<path d="M596.7,70.5c-0.4-0.5-1-0.8-1.7-1.1c-0.7-0.3-1.5-0.5-2.4-0.5c-1.3,0-2.4,0.2-3.3,0.7c-0.9,0.5-1.7,1.1-2.3,1.8
			c-0.6,0.7-1.1,1.4-1.5,2.2c-0.4,0.8-0.6,1.4-0.8,2h-0.1v-6.1h-9.7v0.8h4.6v24.1h-4.6v0.8h15v-0.8h-5.2V80.8c0-1.7,0.2-3.2,0.6-4.5
			c0.4-1.3,0.9-2.4,1.6-3.3c0.6-0.9,1.3-1.6,2-2.1c0.7-0.5,1.4-0.7,2-0.7c1.4,0,2.1,0.6,2.1,1.9c0,0.5,0,0.9-0.1,1.2
			c-0.1,0.3-0.2,0.5-0.3,0.8c-0.1,0.2-0.2,0.4-0.3,0.7c-0.1,0.2-0.1,0.5-0.1,0.9c0,1.1,0.9,1.7,2.6,1.7c0.8,0,1.5-0.2,2.1-0.7
			c0.6-0.4,0.9-1.3,0.9-2.6c0-0.6-0.1-1.2-0.3-1.8C597.4,71.5,597.1,71,596.7,70.5z"/>
		<path d="M628.5,82.5c0-2-0.4-3.8-1.3-5.5c-0.9-1.7-2-3.1-3.3-4.4c-1.3-1.2-2.8-2.2-4.5-2.9c-1.7-0.7-3.3-1-4.9-1
			c-1.6,0-3.2,0.3-4.9,1c-1.7,0.7-3.2,1.6-4.5,2.9c-1.3,1.2-2.4,2.7-3.3,4.4c-0.9,1.7-1.3,3.5-1.3,5.5c0,1.9,0.4,3.7,1.2,5.3
			c0.8,1.7,1.9,3.1,3.2,4.4c1.3,1.2,2.8,2.2,4.5,2.9c1.7,0.7,3.4,1.1,5.2,1.1c1.8,0,3.5-0.4,5.2-1.1c1.7-0.7,3.2-1.7,4.5-2.9
			c1.3-1.2,2.4-2.7,3.2-4.4C628.1,86.2,628.5,84.4,628.5,82.5z M621.8,89.3c-0.4,1.7-1,3-1.7,3.9c-0.7,0.9-1.6,1.5-2.5,1.8
			c-1,0.3-2,0.4-3.1,0.4c-1.1,0-2.1-0.1-3.1-0.4c-1-0.3-1.8-0.9-2.5-1.8c-0.7-0.9-1.3-2.2-1.7-3.9c-0.4-1.7-0.7-3.9-0.7-6.8
			c0-2.4,0.2-4.4,0.5-6c0.3-1.6,0.8-2.9,1.5-4c0.7-1,1.5-1.8,2.5-2.2c1-0.4,2.2-0.7,3.5-0.7c1.4,0,2.5,0.2,3.5,0.7
			c1,0.4,1.8,1.2,2.5,2.2c0.7,1,1.2,2.3,1.5,4c0.3,1.6,0.5,3.6,0.5,6C622.5,85.3,622.2,87.6,621.8,89.3z"/>
		<path d="M639.9,52.4c-0.9,0-1.6,0.3-2.3,0.9c-0.6,0.6-0.9,1.4-0.9,2.3c0,0.9,0.3,1.6,0.9,2.3c0.6,0.6,1.4,0.9,2.3,0.9
			c0.9,0,1.6-0.3,2.3-0.9c0.6-0.6,0.9-1.4,0.9-2.3c0-0.9-0.3-1.6-0.9-2.3C641.6,52.7,640.8,52.4,639.9,52.4z"/>
		<path d="M632.8,70.4h4.6v35.3c0,2.1-0.3,3.6-0.9,4.5c-0.6,0.9-1.5,1.4-2.7,1.4c-0.6,0-1.2-0.2-1.7-0.6c-0.5-0.4-0.8-1-0.8-1.8
			c0-0.7,0.1-1.2,0.2-1.7c0.1-0.4,0.2-0.9,0.2-1.4c0-0.6-0.2-1.2-0.5-1.5c-0.4-0.4-0.9-0.6-1.6-0.6c-0.8,0-1.4,0.2-1.9,0.7
			c-0.5,0.5-0.8,1.2-0.8,2.2c0,0.9,0.2,1.7,0.7,2.4c0.5,0.7,1,1.3,1.7,1.7c0.7,0.4,1.4,0.8,2.1,1c0.8,0.2,1.5,0.3,2.1,0.3
			c0.6,0,1.2-0.1,1.9-0.2c0.7-0.1,1.4-0.4,2-0.8c0.7-0.4,1.3-0.9,1.9-1.5c0.6-0.6,1.2-1.4,1.7-2.4c0.2-0.4,0.4-0.8,0.6-1.3
			c0.2-0.5,0.4-1.1,0.5-1.9c0.2-0.8,0.3-1.8,0.4-3.1c0.1-1.3,0.1-2.9,0.1-4.8v-27h-9.8V70.4z"/>
		<path d="M657.7,80.5h18.5c0-2.2-0.4-4-1.1-5.5c-0.7-1.5-1.7-2.7-2.8-3.6c-1.1-0.9-2.3-1.6-3.6-2c-1.3-0.4-2.5-0.6-3.6-0.6
			c-1.9,0-3.6,0.4-5.3,1.2c-1.6,0.8-3.1,1.8-4.3,3.1c-1.2,1.3-2.2,2.8-2.9,4.4c-0.7,1.7-1.1,3.4-1.1,5.1c0,2,0.3,3.9,1,5.6
			c0.7,1.7,1.6,3.1,2.9,4.3c1.2,1.2,2.7,2.1,4.4,2.8c1.7,0.6,3.6,1,5.6,1c2,0,3.6-0.3,4.9-0.9c1.3-0.6,2.3-1.3,3-2.2
			c0.7-0.8,1.3-1.6,1.6-2.5c0.3-0.8,0.6-1.5,0.7-1.9l-0.9-0.2c-0.2,0.5-0.4,1.1-0.7,1.9c-0.3,0.8-0.8,1.5-1.5,2.3
			c-0.7,0.7-1.6,1.4-2.7,1.9c-1.1,0.5-2.6,0.8-4.4,0.8c-1.8,0-3.2-0.4-4.2-1.1c-1.1-0.8-1.9-1.7-2.4-2.9c-0.5-1.2-0.9-2.5-1.1-3.9
			c-0.2-1.4-0.2-2.8-0.2-4.1c0-0.6,0-1.2,0-1.6C657.7,81.3,657.7,80.9,657.7,80.5z M658.3,75.8c0.3-1.2,0.7-2.3,1.2-3.2
			c0.5-0.9,1.2-1.7,2.1-2.2c0.9-0.5,2-0.8,3.4-0.8c0.8,0,1.5,0.1,2.1,0.3c0.7,0.2,1.2,0.6,1.7,1.1c0.5,0.5,0.8,1.2,1.1,2.1
			c0.3,0.9,0.4,2,0.4,3.4c0,0.5,0,1,0,1.5c0,0.5,0,1-0.1,1.6h-12.3C657.9,78.3,658,77,658.3,75.8z"/>
		<path d="M704.2,90.4c-0.3,0.8-0.8,1.5-1.5,2.3c-0.7,0.7-1.6,1.4-2.7,1.9c-1.1,0.5-2.6,0.8-4.4,0.8c-1.6,0-3-0.3-4-1
			c-1-0.7-1.8-1.6-2.4-2.7c-0.6-1.1-1-2.5-1.2-4c-0.2-1.5-0.3-3.1-0.3-4.9c0-3,0.2-5.4,0.8-7.2c0.5-1.8,1.1-3.1,1.9-4
			c0.8-0.9,1.6-1.4,2.6-1.7c0.9-0.2,1.9-0.3,2.7-0.3c1.2,0,2.3,0.3,3.2,0.8c0.9,0.5,1.4,1.2,1.4,2.1c0,0.5-0.1,1.2-0.4,2
			c-0.3,0.8-0.4,1.5-0.4,2c0,0.7,0.3,1.2,0.9,1.5c0.6,0.3,1.3,0.5,2,0.5c1,0,1.8-0.3,2.3-0.8c0.5-0.5,0.8-1.2,0.8-2.1
			c0-1.2-0.3-2.3-0.9-3.2c-0.6-0.9-1.4-1.6-2.3-2.1c-0.9-0.5-2-0.9-3.1-1.2c-1.1-0.3-2.3-0.4-3.3-0.4c-1.9,0-3.7,0.4-5.4,1.1
			c-1.7,0.7-3.2,1.7-4.4,2.9c-1.3,1.2-2.3,2.7-3,4.4c-0.7,1.7-1.1,3.5-1.1,5.5c0,2.5,0.4,4.6,1.3,6.4c0.9,1.7,2,3.1,3.3,4.2
			c1.4,1.1,2.9,1.8,4.5,2.3c1.6,0.5,3.2,0.7,4.7,0.7c2,0,3.6-0.3,4.9-0.9c1.3-0.6,2.3-1.3,3-2.2c0.7-0.8,1.3-1.6,1.6-2.5
			c0.3-0.8,0.6-1.5,0.7-1.9l-0.9-0.2C704.7,89,704.5,89.7,704.2,90.4z"/>
		<path d="M727.3,90.3c-0.2,1.3-0.8,2.5-1.7,3.5c-0.9,1-2,1.5-3.4,1.5c-0.4,0-0.8-0.1-1.2-0.2c-0.4-0.1-0.8-0.4-1.2-0.8
			c-0.4-0.4-0.7-0.9-0.9-1.6c-0.2-0.7-0.3-1.6-0.3-2.7V70.4h8.5v-0.8h-8.5v-8.2c-0.4,0.3-0.8,0.6-1.3,0.7c-0.4,0.1-1,0.2-1.6,0.2
			c-0.7,0-1.2,0-1.4-0.1c-0.3-0.1-0.6-0.2-0.9-0.3v7.7h-4.6v0.8h4.6v19.1c0,2.1,0.6,3.8,1.8,4.9c1.2,1.2,3.3,1.7,6.3,1.7
			c1.2,0,2.2-0.2,3-0.6c0.8-0.4,1.5-0.9,2-1.4c0.5-0.6,0.9-1.2,1.1-1.8c0.2-0.6,0.4-1.2,0.5-1.7L727.3,90.3z"/>
	</g>
</g>
</svg>
