<?xml version="1.0" encoding="utf-8"?>
<!-- Generator: Adobe Illustrator 17.1.0, SVG Export Plug-In . SVG Version: 6.00 Build 0)  -->
<!DOCTYPE svg PUBLIC "-//W3C//DTD SVG 1.1//EN" "http://www.w3.org/Graphics/SVG/1.1/DTD/svg11.dtd">
<svg version="1.1" xmlns="http://www.w3.org/2000/svg" xmlns:xlink="http://www.w3.org/1999/xlink" x="0px" y="0px"
	 viewBox="0 0 649.9 271" style="enable-background:new 0 0 649.9 271;" xml:space="preserve">
<style type="text/css">
	.st0{fill:#F5F5F5;}
	.st1{fill:#222221;}
	.st2{fill:#181818;}
	.st3{fill:url(#SVGID_1_);}
	.st4{fill:none;stroke:#FFFFFF;stroke-width:2;stroke-linecap:round;stroke-linejoin:round;stroke-miterlimit:10;}
	.st5{fill:none;stroke:#FFFFFF;stroke-linecap:round;stroke-linejoin:round;stroke-miterlimit:10;}
	.st6{fill:#82C558;}
	.st7{fill:#FFFFFF;}
	.st8{fill:none;stroke:#222222;stroke-width:2;stroke-linecap:round;stroke-linejoin:round;stroke-miterlimit:10;}
	.st9{fill:none;stroke:#222222;stroke-linecap:round;stroke-linejoin:round;stroke-miterlimit:10;}
	.st10{fill:url(#SVGID_2_);}
	.st11{fill:#222222;}
	.st12{fill:url(#SVGID_3_);}
	.st13{fill:url(#SVGID_4_);}
	.st14{fill:#FFFDFC;}
	.st15{fill:#333333;}
	.st16{fill:url(#SVGID_5_);}
	.st17{fill:url(#SVGID_6_);}
	.st18{fill:url(#SVGID_7_);}
	.st19{fill:url(#SVGID_8_);}
	.st20{fill:url(#SVGID_9_);}
	.st21{fill:url(#SVGID_10_);}
	.st22{fill:none;}
	.st23{fill:url(#SVGID_11_);}
	.st24{fill:url(#SVGID_12_);}
	.st25{fill:url(#SVGID_13_);}
	.st26{fill:url(#SVGID_14_);}
	.st27{fill:url(#SVGID_15_);}
	.st28{fill:url(#SVGID_16_);}
	.st29{fill:url(#SVGID_17_);}
	.st30{fill:url(#SVGID_18_);}
</style>
<g id="Layer_1">
	<g>
		<path class="st0" d="M1690.5,1006.8H-445c-6.6,0-12-5.4-12-12V645.3c0-6.6,5.4-12,12-12h2135.6V1006.8z"/>
		<path class="st1" d="M2414.7,1006.8h-724.2V633.3h724.2c6.6,0,12,5.4,12,12v349.5C2426.7,1001.4,2421.3,1006.8,2414.7,1006.8z"/>
	</g>
	<g>
		<path class="st0" d="M1690.5,1674.5H-445c-6.6,0-12-5.4-12-12V1313c0-6.6,5.4-12,12-12h2135.6V1674.5z"/>
		<path class="st1" d="M2414.7,1674.5h-724.2V1301h724.2c6.6,0,12,5.4,12,12v349.5C2426.7,1669.1,2421.3,1674.5,2414.7,1674.5z"/>
	</g>
	<g>
		<g>
			<path class="st2" d="M540,798.4h32.8v6.8h-24.9v16h23.2v6.8h-23.2v16h25.2v6.8H540V798.4z"/>
			<path class="st2" d="M583.4,798.4h19.2c11.2,0,16.5,6,16.5,13.8c0,6.5-4,9.8-8.8,11v0.5c5.2,0.3,10.9,4.9,10.9,13
				c0,8-5.5,14.1-17.7,14.1h-20.1V798.4z M601.9,821.1c5.3,0,9.5-3.2,9.5-8.3c0-4.3-3-7.6-9.3-7.6h-10.8v15.9H601.9z M602.7,844
				c7.6,0,10.6-3.3,10.6-7.7c0-5-4-9.1-10.3-9.1h-11.7V844H602.7z"/>
			<path class="st2" d="M630.5,798.4h18.7c12.1,0,18.1,6.8,18.1,16.4c0,7-3.2,12.4-9.6,14.8l11.6,21.2h-9L649.6,831
				c-0.2,0-0.3,0-0.5,0h-10.7v19.8h-7.9V798.4z M648.4,824.1c7.7,0,10.9-3.4,10.9-9.3c0-5.9-3.2-9.6-11-9.6h-9.9v19H648.4z"/>
			<path class="st2" d="M673,850.8l18.8-52.4h9.1l18.8,52.4h-8.4l-4.8-13.9h-20.5l-4.8,13.9H673z M704.3,830.3l-7.7-22.4h-0.4
				l-7.7,22.4H704.3z"/>
			<path class="st2" d="M735.2,850.8h-7.9v-52.4h7.9V850.8z"/>
			<path class="st2" d="M789,850.8h-7.3l-26.6-38.4h-0.5v38.4h-7.9v-52.4h7.3l26.6,38.5h0.5v-38.5h7.8V850.8z"/>
			<path class="st2" d="M818.2,804.5c-6.4,0-10.5,3.3-10.5,7.7c0,5,5.4,6.9,9.5,8l5.1,1.3c6.6,1.6,15.1,5.3,15.1,14.7
				c0,8.9-7.1,15.3-19.4,15.3c-11.7,0-19.1-5.9-19.6-15.3h7.9c0.5,5.7,5.5,8.4,11.6,8.4c6.7,0,11.6-3.4,11.6-8.5
				c0-4.7-4.3-6.5-9.9-8l-6.2-1.7c-8.4-2.3-13.6-6.5-13.6-13.8c0-9,8.1-15,18.6-15c10.6,0,18.1,6.1,18.3,14.5h-7.6
				C828.5,807.3,824.2,804.5,818.2,804.5z"/>
		</g>
		<linearGradient id="SVGID_1_" gradientUnits="userSpaceOnUse" x1="284.1322" y1="824.613" x2="487.296" y2="824.613">
			<stop  offset="0" style="stop-color:#F7DB2E"/>
			<stop  offset="0.5" style="stop-color:#82C558"/>
			<stop  offset="1" style="stop-color:#127E7A"/>
		</linearGradient>
		<polyline class="st3" points="385.2,722 334.5,735.9 297.5,773.3 284.1,824.1 298,874.8 334.9,911.6 385.7,927.2 436.9,911.3
			473.7,874.4 487.3,823.1 473.4,772.4 436.1,735.4 385.2,722 		"/>
		<g>
			<g>
				<path class="st4" d="M471.3,876.8c-5.9-1.8-11.8-3.7-17.6-5.9c-16.9-6.4-30.8-17.9-47.8-23.9c-15.6-5.5-31.9-9-48.2-11.6
					c-3.7-0.6-7.5-1.4-11.3-1.4c-10.4,0.1-18.3,6.5-23.7,14.8c-5.7,8.6-14.1,20.5-24.2,26.6"/>
			</g>
			<g>
				<path class="st5" d="M474,873.2c-6.7-1.9-13.3-4-19.8-6.4c-16.6-6.1-30.5-16.8-46.8-23.6c-13.4-5.7-27.3-11-41.4-15
					c-15-4.3-27.3,2.4-37.9,12.2c-6.6,6-13.4,11.9-20.6,17.1c-3.5,2.5-7.6,5.7-12,8.1"/>
			</g>
			<g>
				<path class="st5" d="M475,869.3c-7.1-2-14.2-4.1-21.2-6.6c-15.9-5.8-29.7-16.6-44.4-24.9c-11.7-6.6-25.9-17.5-39.7-19
					c-16.1-1.7-27.5,8.2-40.2,16.1c-8.5,5.3-17.1,10.5-25.9,15.2c-3.1,1.7-6.9,4.1-10.8,5.8"/>
			</g>
			<g>
				<path class="st4" d="M476,865.6c-7.7-1.9-15.3-4.1-22.7-6.9c-16.6-6.2-30.6-20.6-44.1-31.6c-13.7-11.1-27.4-23.6-46.5-15.1
					c-11.5,5.1-22.6,11-34,16.4c-9.6,4.6-19.3,9.1-29.1,13.3c-2.8,1.2-6.1,3-9.5,4.4"/>
			</g>
			<g>
				<path class="st5" d="M477,861.8c-8.6-2-17.2-4.3-25.3-7.7c-20.1-8.3-29.8-29.3-42.3-45.5c-10.4-13.5-27.6-8.8-40.7-3.7
					c-15.8,6.1-31.7,12.3-47.6,18.3c-8.8,3.4-17.7,6.7-26.6,9.9c-2,0.7-4.5,2-7,2.9"/>
			</g>
			<g>
				<path class="st4" d="M478.6,856c-10.5-2.1-20.9-4.7-30.1-9.7c-15.5-8.4-21.6-27-31-41.1c-6.4-9.6-17.9-15.5-29.4-12.4
					c-4.7,1.3-9.3,3-14,4.5c-19.2,6.1-38.3,12.2-57.5,18.4c-10.7,3.4-21.3,6.8-32,10.2"/>
			</g>
			<g>
				<path class="st5" d="M480.2,849.7c-11.9-3.6-23.5-7.9-33.7-15.6c-13.3-10-23.4-24.6-34.5-36.9c-11.5-12.8-26-12.1-40.7-7
					c-17.3,5.9-34.6,12-51.8,18.2c-9.9,3.6-19.9,7.3-29.7,11.2c-1.3,0.5-3.1,1.1-5.1,1.8"/>
			</g>
			<g>
				<path class="st4" d="M483.3,838.2c-10.9-4.2-21.8-8.5-31.9-14.5c-16-9.4-29-22.8-43.1-34.9c-13.3-11.4-28-11.3-43.7-5.5
					c-15.4,5.7-30.7,11.7-45.9,18c-9,3.8-18,7.6-26.8,12c-1.7,0.8-3.6,1.7-5.6,2.7"/>
			</g>
			<g>
				<path class="st4" d="M486.7,825.3c-25.5-12.8-50.4-26.4-75.1-40.8c-15-8.8-29.6-16.5-47.7-10.2c-11.8,4.1-23.4,9.1-34.8,14.1
					c-10,4.4-19.9,8.9-29.5,14.2c-3.7,2-8,4.2-11.8,6.9"/>
			</g>
			<g>
				<path class="st5" d="M485.2,815.6c-11.8-7.2-23.5-14.3-36-20.3c-12.3-6-25.1-11.1-37.6-16.6c-13.4-5.8-26.1-13-41.1-12.6
					c-13.8,0.4-26.6,7.4-38.8,13.3c-13.6,6.6-30.3,14.1-42.4,24.8"/>
			</g>
			<g>
				<path class="st4" d="M482.1,804c-10.5-8-20.9-15.6-33.2-21.1c-11.4-5.1-23.9-8-35.8-11.6c-11.1-3.3-22.1-7-33.2-9.9
					c-16-4.1-31.2,0.8-45.3,8.1c-15.1,7.7-31.2,17-43.7,29.2"/>
			</g>
		</g>
	</g>
	<g>
		<g>
			<path class="st2" d="M1308.3,798.4h32.8v6.8h-24.9v16h23.2v6.8h-23.2v16h25.2v6.8h-33.1V798.4z"/>
			<path class="st2" d="M1351.7,798.4h19.2c11.2,0,16.5,6,16.5,13.8c0,6.5-4,9.8-8.8,11v0.5c5.2,0.3,10.9,4.9,10.9,13
				c0,8-5.5,14.1-17.7,14.1h-20.1V798.4z M1370.2,821.1c5.3,0,9.5-3.2,9.5-8.3c0-4.3-3-7.6-9.3-7.6h-10.8v15.9H1370.2z M1371,844
				c7.6,0,10.6-3.3,10.6-7.7c0-5-4-9.1-10.3-9.1h-11.7V844H1371z"/>
			<path class="st2" d="M1398.8,798.4h18.7c12.1,0,18.1,6.8,18.1,16.4c0,7-3.2,12.4-9.6,14.8l11.6,21.2h-9L1418,831
				c-0.2,0-0.3,0-0.5,0h-10.7v19.8h-7.9V798.4z M1416.8,824.1c7.7,0,10.9-3.4,10.9-9.3c0-5.9-3.2-9.6-11-9.6h-9.9v19H1416.8z"/>
			<path class="st2" d="M1441.3,850.8l18.8-52.4h9.1l18.8,52.4h-8.4l-4.8-13.9h-20.5l-4.8,13.9H1441.3z M1472.7,830.3l-7.7-22.4
				h-0.4l-7.7,22.4H1472.7z"/>
			<path class="st2" d="M1503.6,850.8h-7.9v-52.4h7.9V850.8z"/>
			<path class="st2" d="M1557.3,850.8h-7.3l-26.6-38.4h-0.5v38.4h-7.9v-52.4h7.3l26.6,38.5h0.5v-38.5h7.8V850.8z"/>
			<path class="st2" d="M1586.6,804.5c-6.4,0-10.5,3.3-10.5,7.7c0,5,5.4,6.9,9.5,8l5.1,1.3c6.6,1.6,15.1,5.3,15.1,14.7
				c0,8.9-7.1,15.3-19.4,15.3c-11.7,0-19.1-5.9-19.6-15.3h7.9c0.5,5.7,5.5,8.4,11.6,8.4c6.7,0,11.6-3.4,11.6-8.5
				c0-4.7-4.3-6.5-9.9-8l-6.2-1.7c-8.4-2.3-13.6-6.5-13.6-13.8c0-9,8.1-15,18.6-15c10.6,0,18.1,6.1,18.3,14.5h-7.6
				C1596.8,807.3,1592.6,804.5,1586.6,804.5z"/>
		</g>
		<polyline class="st1" points="1153.5,722 1102.8,735.9 1065.8,773.3 1052.5,824.1 1066.3,874.8 1103.3,911.6 1154.1,927.2
			1205.3,911.3 1242,874.4 1255.6,823.1 1241.8,772.4 1204.4,735.4 1153.5,722 		"/>
		<g>
			<g>
				<path class="st4" d="M1239.7,876.8c-5.9-1.8-11.8-3.7-17.6-5.9c-16.9-6.4-30.8-17.9-47.8-23.9c-15.6-5.5-31.9-9-48.2-11.6
					c-3.7-0.6-7.5-1.4-11.3-1.4c-10.4,0.1-18.3,6.5-23.7,14.8c-5.7,8.6-14.1,20.5-24.2,26.6"/>
			</g>
			<g>
				<path class="st5" d="M1242.3,873.2c-6.7-1.9-13.3-4-19.8-6.4c-16.6-6.1-30.5-16.8-46.8-23.6c-13.4-5.7-27.3-11-41.4-15
					c-15-4.3-27.3,2.4-37.9,12.2c-6.6,6-13.4,11.9-20.6,17.1c-3.5,2.5-7.6,5.7-12,8.1"/>
			</g>
			<g>
				<path class="st5" d="M1243.4,869.3c-7.1-2-14.2-4.1-21.2-6.6c-15.9-5.8-29.7-16.6-44.4-24.9c-11.7-6.6-25.9-17.5-39.7-19
					c-16.1-1.7-27.5,8.2-40.2,16.1c-8.5,5.3-17.1,10.5-25.9,15.2c-3.1,1.7-6.9,4.1-10.8,5.8"/>
			</g>
			<g>
				<path class="st4" d="M1244.4,865.6c-7.7-1.9-15.3-4.1-22.7-6.9c-16.6-6.2-30.6-20.6-44.1-31.6c-13.7-11.1-27.4-23.6-46.5-15.1
					c-11.5,5.1-22.6,11-34,16.4c-9.6,4.6-19.3,9.1-29.1,13.3c-2.8,1.2-6.1,3-9.5,4.4"/>
			</g>
			<g>
				<path class="st5" d="M1245.4,861.8c-8.6-2-17.2-4.3-25.3-7.7c-20.1-8.3-29.8-29.3-42.3-45.5c-10.4-13.5-27.6-8.8-40.7-3.7
					c-15.8,6.1-31.7,12.3-47.6,18.3c-8.8,3.4-17.7,6.7-26.6,9.9c-2,0.7-4.5,2-7,2.9"/>
			</g>
			<g>
				<path class="st4" d="M1246.9,856c-10.5-2.1-20.9-4.7-30.1-9.7c-15.5-8.4-21.6-27-31-41.1c-6.4-9.6-17.9-15.5-29.4-12.4
					c-4.7,1.3-9.3,3-14,4.5c-19.2,6.1-38.3,12.2-57.5,18.4c-10.7,3.4-21.3,6.8-32,10.2"/>
			</g>
			<g>
				<path class="st5" d="M1248.6,849.7c-11.9-3.6-23.5-7.9-33.7-15.6c-13.3-10-23.4-24.6-34.5-36.9c-11.5-12.8-26-12.1-40.7-7
					c-17.3,5.9-34.6,12-51.8,18.2c-9.9,3.6-19.9,7.3-29.7,11.2c-1.3,0.5-3.1,1.1-5.1,1.8"/>
			</g>
			<g>
				<path class="st4" d="M1251.6,838.2c-10.9-4.2-21.8-8.5-31.9-14.5c-16-9.4-29-22.8-43.1-34.9c-13.3-11.4-28-11.3-43.7-5.5
					c-15.4,5.7-30.7,11.7-45.9,18c-9,3.8-18,7.6-26.8,12c-1.7,0.8-3.6,1.7-5.6,2.7"/>
			</g>
			<g>
				<path class="st4" d="M1255,825.3c-25.5-12.8-50.4-26.4-75.1-40.8c-15-8.8-29.6-16.5-47.7-10.2c-11.8,4.1-23.4,9.1-34.8,14.1
					c-10,4.4-19.9,8.9-29.5,14.2c-3.7,2-8,4.2-11.8,6.9"/>
			</g>
			<g>
				<path class="st5" d="M1253.6,815.6c-11.8-7.2-23.5-14.3-36-20.3c-12.3-6-25.1-11.1-37.6-16.6c-13.4-5.8-26.1-13-41.1-12.6
					c-13.8,0.4-26.6,7.4-38.8,13.3c-13.6,6.6-30.3,14.1-42.4,24.8"/>
			</g>
			<g>
				<path class="st4" d="M1250.4,804c-10.5-8-20.9-15.6-33.2-21.1c-11.4-5.1-23.9-8-35.8-11.6c-11.1-3.3-22.1-7-33.2-9.9
					c-16-4.1-31.2,0.8-45.3,8.1c-15.1,7.7-31.2,17-43.7,29.2"/>
			</g>
		</g>
	</g>
	<g>
		<g>
			<path class="st2" d="M-129.3,798.4h32.8v6.8h-24.9v16h23.2v6.8h-23.2v16h25.2v6.8h-33.1V798.4z"/>
			<path class="st2" d="M-85.9,798.4h19.2c11.2,0,16.5,6,16.5,13.8c0,6.5-4,9.8-8.8,11v0.5c5.2,0.3,10.9,4.9,10.9,13
				c0,8-5.5,14.1-17.7,14.1h-20.1V798.4z M-67.4,821.1c5.3,0,9.5-3.2,9.5-8.3c0-4.3-3-7.6-9.3-7.6H-78v15.9H-67.4z M-66.6,844
				c7.6,0,10.6-3.3,10.6-7.7c0-5-4-9.1-10.3-9.1H-78V844H-66.6z"/>
			<path class="st2" d="M-38.8,798.4h18.7C-8,798.4-2,805.2-2,814.8c0,7-3.2,12.4-9.6,14.8L0,850.8h-9L-19.6,831c-0.2,0-0.3,0-0.5,0
				h-10.7v19.8h-7.9V798.4z M-20.9,824.1c7.7,0,10.9-3.4,10.9-9.3c0-5.9-3.2-9.6-11-9.6h-9.9v19H-20.9z"/>
			<path class="st2" d="M3.7,850.8l18.8-52.4h9.1l18.8,52.4h-8.4l-4.8-13.9H16.9l-4.8,13.9H3.7z M35,830.3l-7.7-22.4h-0.4l-7.7,22.4
				H35z"/>
			<path class="st2" d="M65.9,850.8H58v-52.4h7.9V850.8z"/>
			<path class="st2" d="M119.7,850.8h-7.3l-26.6-38.4h-0.5v38.4h-7.9v-52.4h7.3l26.6,38.5h0.5v-38.5h7.8V850.8z"/>
			<path class="st2" d="M148.9,804.5c-6.4,0-10.5,3.3-10.5,7.7c0,5,5.4,6.9,9.5,8l5.1,1.3c6.6,1.6,15.1,5.3,15.1,14.7
				c0,8.9-7.1,15.3-19.4,15.3c-11.7,0-19.1-5.9-19.6-15.3h7.9c0.5,5.7,5.5,8.4,11.6,8.4c6.7,0,11.6-3.4,11.6-8.5
				c0-4.7-4.3-6.5-9.9-8l-6.2-1.7c-8.4-2.3-13.6-6.5-13.6-13.8c0-9,8.1-15,18.6-15c10.6,0,18.1,6.1,18.3,14.5h-7.6
				C159.2,807.3,154.9,804.5,148.9,804.5z"/>
		</g>
		<polyline class="st6" points="-284.1,722 -334.8,735.9 -371.8,773.3 -385.2,824.1 -371.3,874.8 -334.4,911.6 -283.6,927.2
			-232.3,911.3 -195.6,874.4 -182,823.1 -195.9,772.4 -233.2,735.4 -284.1,722 		"/>
		<g>
			<g>
				<path class="st4" d="M-198,876.8c-5.9-1.8-11.8-3.7-17.6-5.9c-16.9-6.4-30.8-17.9-47.8-23.9c-15.6-5.5-31.9-9-48.2-11.6
					c-3.7-0.6-7.5-1.4-11.3-1.4c-10.4,0.1-18.3,6.5-23.7,14.8c-5.7,8.6-14.1,20.5-24.2,26.6"/>
			</g>
			<g>
				<path class="st5" d="M-195.3,873.2c-6.7-1.9-13.3-4-19.8-6.4c-16.6-6.1-30.5-16.8-46.8-23.6c-13.4-5.7-27.3-11-41.4-15
					c-15-4.3-27.3,2.4-37.9,12.2c-6.6,6-13.4,11.9-20.6,17.1c-3.5,2.5-7.6,5.7-12,8.1"/>
			</g>
			<g>
				<path class="st5" d="M-194.2,869.3c-7.1-2-14.2-4.1-21.2-6.6c-15.9-5.8-29.7-16.6-44.4-24.9c-11.7-6.6-25.9-17.5-39.7-19
					c-16.1-1.7-27.5,8.2-40.2,16.1c-8.5,5.3-17.1,10.5-25.9,15.2c-3.1,1.7-6.9,4.1-10.8,5.8"/>
			</g>
			<g>
				<path class="st4" d="M-193.3,865.6c-7.7-1.9-15.3-4.1-22.7-6.9c-16.6-6.2-30.6-20.6-44.1-31.6c-13.7-11.1-27.4-23.6-46.5-15.1
					c-11.5,5.1-22.6,11-34,16.4c-9.6,4.6-19.3,9.1-29.1,13.3c-2.8,1.2-6.1,3-9.5,4.4"/>
			</g>
			<g>
				<path class="st5" d="M-192.3,861.8c-8.6-2-17.2-4.3-25.3-7.7c-20.1-8.3-29.8-29.3-42.3-45.5c-10.4-13.5-27.6-8.8-40.7-3.7
					c-15.8,6.1-31.7,12.3-47.6,18.3c-8.8,3.4-17.7,6.7-26.6,9.9c-2,0.7-4.5,2-7,2.9"/>
			</g>
			<g>
				<path class="st4" d="M-190.7,856c-10.5-2.1-20.9-4.7-30.1-9.7c-15.5-8.4-21.6-27-31-41.1c-6.4-9.6-17.9-15.5-29.4-12.4
					c-4.7,1.3-9.3,3-14,4.5c-19.2,6.1-38.3,12.2-57.5,18.4c-10.7,3.4-21.3,6.8-32,10.2"/>
			</g>
			<g>
				<path class="st5" d="M-189.1,849.7c-11.9-3.6-23.5-7.9-33.7-15.6c-13.3-10-23.4-24.6-34.5-36.9c-11.5-12.8-26-12.1-40.7-7
					c-17.3,5.9-34.6,12-51.8,18.2c-9.9,3.6-19.9,7.3-29.7,11.2c-1.3,0.5-3.1,1.1-5.1,1.8"/>
			</g>
			<g>
				<path class="st4" d="M-186,838.2c-10.9-4.2-21.8-8.5-31.9-14.5c-16-9.4-29-22.8-43.1-34.9c-13.3-11.4-28-11.3-43.7-5.5
					c-15.4,5.7-30.7,11.7-45.9,18c-9,3.8-18,7.6-26.8,12c-1.7,0.8-3.6,1.7-5.6,2.7"/>
			</g>
			<g>
				<path class="st4" d="M-182.6,825.3c-25.5-12.8-50.4-26.4-75.1-40.8c-15-8.8-29.6-16.5-47.7-10.2c-11.8,4.1-23.4,9.1-34.8,14.1
					c-10,4.4-19.9,8.9-29.5,14.2c-3.7,2-8,4.2-11.8,6.9"/>
			</g>
			<g>
				<path class="st5" d="M-184,815.6c-11.8-7.2-23.5-14.3-36-20.3c-12.3-6-25.1-11.1-37.6-16.6c-13.4-5.8-26.1-13-41.1-12.6
					c-13.8,0.4-26.6,7.4-38.8,13.3c-13.6,6.6-30.3,14.1-42.4,24.8"/>
			</g>
			<g>
				<path class="st4" d="M-187.2,804c-10.5-8-20.9-15.6-33.2-21.1c-11.4-5.1-23.9-8-35.8-11.6c-11.1-3.3-22.1-7-33.2-9.9
					c-16-4.1-31.2,0.8-45.3,8.1c-15.1,7.7-31.2,17-43.7,29.2"/>
			</g>
		</g>
	</g>
	<text transform="matrix(1 0 0 1 -425.7698 593.3295)" style="font-family:'Inter-Regular'; font-size:21;">Optimized for the web (stroke lines)</text>
	<text transform="matrix(1 0 0 1 -425.7698 1268.4469)" style="font-family:'Inter-Regular'; font-size:21;">Optimized for print (expanded lines)</text>
	<g>
		<g>
			<path class="st7" d="M2046.4,798.4h32.8v6.8h-24.9v16h23.2v6.8h-23.2v16h25.2v6.8h-33.1V798.4z"/>
			<path class="st7" d="M2089.8,798.4h19.2c11.2,0,16.5,6,16.5,13.8c0,6.5-4,9.8-8.8,11v0.5c5.2,0.3,10.9,4.9,10.9,13
				c0,8-5.5,14.1-17.7,14.1h-20.1V798.4z M2108.3,821.1c5.3,0,9.5-3.2,9.5-8.3c0-4.3-3-7.6-9.3-7.6h-10.8v15.9H2108.3z M2109.1,844
				c7.6,0,10.6-3.3,10.6-7.7c0-5-4-9.1-10.3-9.1h-11.7V844H2109.1z"/>
			<path class="st7" d="M2136.9,798.4h18.7c12.1,0,18.1,6.8,18.1,16.4c0,7-3.2,12.4-9.6,14.8l11.6,21.2h-9L2156,831
				c-0.2,0-0.3,0-0.5,0h-10.7v19.8h-7.9V798.4z M2154.8,824.1c7.7,0,10.9-3.4,10.9-9.3c0-5.9-3.2-9.6-11-9.6h-9.9v19H2154.8z"/>
			<path class="st7" d="M2179.3,850.8l18.8-52.4h9.1l18.8,52.4h-8.4l-4.8-13.9h-20.5l-4.8,13.9H2179.3z M2210.7,830.3l-7.7-22.4
				h-0.4l-7.7,22.4H2210.7z"/>
			<path class="st7" d="M2241.6,850.8h-7.9v-52.4h7.9V850.8z"/>
			<path class="st7" d="M2295.4,850.8h-7.3l-26.6-38.4h-0.5v38.4h-7.9v-52.4h7.3l26.6,38.5h0.5v-38.5h7.8V850.8z"/>
			<path class="st7" d="M2324.6,804.5c-6.4,0-10.5,3.3-10.5,7.7c0,5,5.4,6.9,9.5,8l5.1,1.3c6.6,1.6,15.1,5.3,15.1,14.7
				c0,8.9-7.1,15.3-19.4,15.3c-11.7,0-19.1-5.9-19.6-15.3h7.9c0.5,5.7,5.5,8.4,11.6,8.4c6.7,0,11.6-3.4,11.6-8.5
				c0-4.7-4.3-6.5-9.9-8l-6.2-1.7c-8.4-2.3-13.6-6.5-13.6-13.8c0-9,8.1-15,18.6-15c10.6,0,18.1,6.1,18.3,14.5h-7.6
				C2334.9,807.3,2330.6,804.5,2324.6,804.5z"/>
		</g>
		<polyline class="st7" points="1891.6,722 1840.9,735.9 1803.9,773.3 1790.5,824.1 1804.4,874.8 1841.3,911.6 1892.1,927.2
			1943.3,911.3 1980.1,874.4 1993.7,823.1 1979.8,772.4 1942.4,735.4 1891.6,722 		"/>
		<g>
			<g>
				<path class="st8" d="M1977.7,876.8c-5.9-1.8-11.8-3.7-17.6-5.9c-16.9-6.4-30.8-17.9-47.8-23.9c-15.6-5.5-31.9-9-48.2-11.6
					c-3.7-0.6-7.5-1.4-11.3-1.4c-10.4,0.1-18.3,6.5-23.7,14.8c-5.7,8.6-14.1,20.5-24.2,26.6"/>
			</g>
			<g>
				<path class="st9" d="M1980.4,873.2c-6.7-1.9-13.3-4-19.8-6.4c-16.6-6.1-30.5-16.8-46.8-23.6c-13.4-5.7-27.3-11-41.4-15
					c-15-4.3-27.3,2.4-37.9,12.2c-6.6,6-13.4,11.9-20.6,17.1c-3.5,2.5-7.6,5.7-12,8.1"/>
			</g>
			<g>
				<path class="st9" d="M1981.4,869.3c-7.1-2-14.2-4.1-21.2-6.6c-15.9-5.8-29.7-16.6-44.4-24.9c-11.7-6.6-25.9-17.5-39.7-19
					c-16.1-1.7-27.5,8.2-40.2,16.1c-8.5,5.3-17.1,10.5-25.9,15.2c-3.1,1.7-6.9,4.1-10.8,5.8"/>
			</g>
			<g>
				<path class="st8" d="M1982.4,865.6c-7.7-1.9-15.3-4.1-22.7-6.9c-16.6-6.2-30.6-20.6-44.1-31.6c-13.7-11.1-27.4-23.6-46.5-15.1
					c-11.5,5.1-22.6,11-34,16.4c-9.6,4.6-19.3,9.1-29.1,13.3c-2.8,1.2-6.1,3-9.5,4.4"/>
			</g>
			<g>
				<path class="st9" d="M1983.4,861.8c-8.6-2-17.2-4.3-25.3-7.7c-20.1-8.3-29.8-29.3-42.3-45.5c-10.4-13.5-27.6-8.8-40.7-3.7
					c-15.8,6.1-31.7,12.3-47.6,18.3c-8.8,3.4-17.7,6.7-26.6,9.9c-2,0.7-4.5,2-7,2.9"/>
			</g>
			<g>
				<path class="st8" d="M1984.9,856c-10.5-2.1-20.9-4.7-30.1-9.7c-15.5-8.4-21.6-27-31-41.1c-6.4-9.6-17.9-15.5-29.4-12.4
					c-4.7,1.3-9.3,3-14,4.5c-19.2,6.1-38.3,12.2-57.5,18.4c-10.7,3.4-21.3,6.8-32,10.2"/>
			</g>
			<g>
				<path class="st9" d="M1986.6,849.7c-11.9-3.6-23.5-7.9-33.7-15.6c-13.3-10-23.4-24.6-34.5-36.9c-11.5-12.8-26-12.1-40.7-7
					c-17.3,5.9-34.6,12-51.8,18.2c-9.9,3.6-19.9,7.3-29.7,11.2c-1.3,0.5-3.1,1.1-5.1,1.8"/>
			</g>
			<g>
				<path class="st8" d="M1989.6,838.2c-10.9-4.2-21.8-8.5-31.9-14.5c-16-9.4-29-22.8-43.1-34.9c-13.3-11.4-28-11.3-43.7-5.5
					c-15.4,5.7-30.7,11.7-45.9,18c-9,3.8-18,7.6-26.8,12c-1.7,0.8-3.6,1.7-5.6,2.7"/>
			</g>
			<g>
				<path class="st8" d="M1993.1,825.3c-25.5-12.8-50.4-26.4-75.1-40.8c-15-8.8-29.6-16.5-47.7-10.2c-11.8,4.1-23.4,9.1-34.8,14.1
					c-10,4.4-19.9,8.9-29.5,14.2c-3.7,2-8,4.2-11.8,6.9"/>
			</g>
			<g>
				<path class="st9" d="M1991.6,815.6c-11.8-7.2-23.5-14.3-36-20.3c-12.3-6-25.1-11.1-37.6-16.6c-13.4-5.8-26.1-13-41.1-12.6
					c-13.8,0.4-26.6,7.4-38.8,13.3c-13.6,6.6-30.3,14.1-42.4,24.8"/>
			</g>
			<g>
				<path class="st8" d="M1988.4,804c-10.5-8-20.9-15.6-33.2-21.1c-11.4-5.1-23.9-8-35.8-11.6c-11.1-3.3-22.1-7-33.2-9.9
					c-16-4.1-31.2,0.8-45.3,8.1c-15.1,7.7-31.2,17-43.7,29.2"/>
			</g>
		</g>
	</g>
	<g>
		<g>
			<path class="st2" d="M540.1,1461.5h32.8v6.8H548v16h23.2v6.8H548v16h25.2v6.8h-33.1V1461.5z"/>
			<path class="st2" d="M583.5,1461.5h19.2c11.2,0,16.5,6,16.5,13.8c0,6.5-4,9.8-8.8,11v0.5c5.2,0.3,10.9,4.9,10.9,13
				c0,8-5.5,14.1-17.7,14.1h-20.1V1461.5z M602,1484.2c5.3,0,9.5-3.2,9.5-8.3c0-4.3-3-7.6-9.3-7.6h-10.8v15.9H602z M602.8,1507.1
				c7.6,0,10.6-3.3,10.6-7.7c0-5-4-9.1-10.3-9.1h-11.7v16.8H602.8z"/>
			<path class="st2" d="M630.6,1461.5h18.7c12.1,0,18.1,6.8,18.1,16.4c0,7-3.2,12.4-9.6,14.8l11.6,21.2h-9l-10.6-19.8
				c-0.2,0-0.3,0-0.5,0h-10.7v19.8h-7.9V1461.5z M648.5,1487.3c7.7,0,10.9-3.4,10.9-9.3c0-5.9-3.2-9.6-11-9.6h-9.9v19H648.5z"/>
			<path class="st2" d="M673.1,1513.9l18.8-52.4h9.1l18.8,52.4h-8.4l-4.8-13.9h-20.5l-4.8,13.9H673.1z M704.4,1493.4l-7.7-22.4h-0.4
				l-7.7,22.4H704.4z"/>
			<path class="st2" d="M735.3,1513.9h-7.9v-52.4h7.9V1513.9z"/>
			<path class="st2" d="M789.1,1513.9h-7.3l-26.6-38.4h-0.5v38.4h-7.9v-52.4h7.3l26.6,38.5h0.5v-38.5h7.8V1513.9z"/>
			<path class="st2" d="M818.3,1467.6c-6.4,0-10.5,3.3-10.5,7.7c0,5,5.4,6.9,9.5,8l5.1,1.3c6.6,1.6,15.1,5.3,15.1,14.7
				c0,8.9-7.1,15.3-19.4,15.3c-11.7,0-19.1-5.9-19.6-15.3h7.9c0.5,5.7,5.5,8.4,11.6,8.4c6.7,0,11.6-3.4,11.6-8.5
				c0-4.7-4.3-6.5-9.9-8l-6.2-1.7c-8.4-2.3-13.6-6.5-13.6-13.8c0-9,8.1-15,18.6-15c10.6,0,18.1,6.1,18.3,14.5h-7.6
				C828.6,1470.4,824.4,1467.6,818.3,1467.6z"/>
		</g>
		<linearGradient id="SVGID_2_" gradientUnits="userSpaceOnUse" x1="284.2565" y1="1487.7148" x2="487.4203" y2="1487.7148">
			<stop  offset="0" style="stop-color:#F7DB2E"/>
			<stop  offset="0.5" style="stop-color:#82C558"/>
			<stop  offset="1" style="stop-color:#127E7A"/>
		</linearGradient>
		<polyline class="st10" points="385.3,1385.1 334.6,1399 297.6,1436.4 284.3,1487.2 298.1,1537.9 335,1574.7 385.8,1590.3
			437.1,1574.4 473.8,1537.5 487.4,1486.2 473.6,1435.5 436.2,1398.5 385.3,1385.1 		"/>
		<g>
			<path class="st7" d="M454.5,1529.5c-8.9-3.3-17.2-8-25.3-12.5c-6.9-3.9-14-7.9-21.5-11.1c-16-6.7-29.2-11.5-41.4-15.1
				c-13-3.7-25.2,0.2-38.4,12.3c-7.6,6.9-14.1,12.4-20.6,17.1l-1.4,1c-3.1,2.3-6.7,4.9-10.5,6.9l0.3,1c0,0,0,0,0.1,0
				c3.9-2.1,7.5-4.7,10.7-7.1l1.4-1c5.7-4.2,11.5-8.9,17.9-14.7c-1.3,1.5-2.6,3.2-3.8,5c-6.5,9.8-14.4,20.6-23.9,26.3
				c0,0,0,0-0.1,0.1l0.1,0.3l1.2,1.2c9.7-5.9,17.8-16.8,24.4-26.7c4.3-6.5,11.8-14.3,22.9-14.4c2.9,0,6,0.5,8.9,1
				c0.7,0.1,1.5,0.3,2.2,0.4c19.8,3.2,34.6,6.8,48.1,11.6c8.6,3.1,16.6,7.7,24.4,12.1c7.4,4.3,15.1,8.6,23.4,11.8
				c5.5,2.1,11.5,4.1,17.1,5.8l1.6-1.6c-5.8-1.7-12.2-3.9-18-6.1c-8.2-3.1-15.8-7.4-23.1-11.6c-7.8-4.5-15.9-9.1-24.7-12.3
				c-13.6-4.8-28.5-8.4-48.4-11.7c-0.7-0.1-1.4-0.2-2.2-0.4c-3-0.5-6.2-1.1-9.3-1.1c-5,0-9.6,1.5-13.9,4.3
				c11.4-9.1,22.1-11.8,33.3-8.5c12.2,3.5,25.3,8.3,41.3,15c7.5,3.1,14.6,7.2,21.4,11c8.1,4.6,16.4,9.3,25.4,12.6
				c6,2.2,12.4,4.3,19.8,6.4c0,0,0,0,0,0l0.3-1C466.9,1533.8,460.4,1531.7,454.5,1529.5z"/>
			<path class="st7" d="M424,1509.1c-4.6-2.9-9.4-6-14.2-8.7c-2.7-1.5-5.4-3.2-8.4-5c-9.7-6-20.8-12.8-31.5-14
				c-13.6-1.5-23.7,5.2-34.4,12.2c-2,1.3-4.1,2.7-6.1,4c-7.5,4.7-16.5,10.1-25.9,15.2c-1,0.5-2.1,1.2-3.2,1.8
				c-2.3,1.3-4.8,2.8-7.4,3.9l0.3,1c0,0,0.1,0,0.1,0c2.6-1.2,5.3-2.7,7.6-4c1.1-0.6,2.2-1.3,3.2-1.8c9.4-5.1,18.4-10.5,25.9-15.2
				c2.1-1.3,4.2-2.7,6.2-4c10.5-6.9,20.5-13.5,33.8-12c10.5,1.1,21.5,7.9,31.1,13.8c2.9,1.8,5.7,3.5,8.4,5.1
				c4.8,2.7,9.6,5.7,14.2,8.6c9.6,6.1,19.5,12.4,30.3,16.3c6.3,2.3,13.2,4.5,21.3,6.6c0,0,0,0,0,0l0.3-1c-8-2.2-14.9-4.4-21.2-6.6
				C443.5,1521.4,433.6,1515.1,424,1509.1z"/>
			<path class="st7" d="M453.8,1520.9c-12.8-4.8-24-14.4-34.8-23.7c-3.1-2.7-6.1-5.2-9.1-7.7l-2-1.6c-13.2-10.8-26.8-21.9-45.5-13.6
				c-6.9,3.1-13.7,6.4-20.3,9.7c-4.5,2.2-9.1,4.5-13.7,6.7c-10.8,5.1-19.9,9.3-29.1,13.3c-1.2,0.5-2.5,1.1-3.8,1.8
				c-1.8,0.9-3.6,1.8-5.5,2.5l0.5,1.9c0,0,0.1,0,0.1,0c2-0.8,3.9-1.7,5.8-2.6c1.3-0.7,2.6-1.3,3.7-1.8c9.2-4,18.3-8.2,29.1-13.3
				c4.6-2.2,9.2-4.5,13.7-6.7c6.6-3.3,13.4-6.7,20.3-9.7c17.6-7.8,30.8,2.9,43.5,13.3l2,1.6c3,2.4,5.9,5,9,7.6
				c10.9,9.4,22.3,19.2,35.4,24.1c6.5,2.4,13.8,4.6,22.8,6.9l0.5-1.9c0,0,0,0,0,0C467.5,1525.5,460.3,1523.3,453.8,1520.9z"/>
			<path class="st7" d="M452,1516.8c-15.1-6.2-24.4-19.8-33.3-32.9c-2.8-4.2-5.8-8.5-8.8-12.4c-10.5-13.5-27.6-9.2-41.3-3.8
				c-18.6,7.2-33.7,13-47.6,18.3c-9,3.4-17.8,6.7-26.6,9.9c-1,0.4-2.2,0.9-3.4,1.4c-1.2,0.5-2.4,1-3.6,1.5l0.3,1c0,0,0,0,0,0
				c1.2-0.5,2.5-1,3.6-1.5c1.2-0.5,2.3-1,3.4-1.4c8.8-3.2,17.6-6.5,26.6-9.9c13.9-5.3,29-11.1,47.6-18.3c13.4-5.2,30.1-9.5,40.2,3.5
				c3,3.9,5.9,8.2,8.8,12.3c9,13.2,18.4,26.9,33.7,33.3c9,3.7,18.3,6.1,25.4,7.7l0.3-1c0,0,0,0,0,0
				C470.2,1522.8,461,1520.5,452,1516.8z"/>
			<path class="st7" d="M446.9,1496.8c-9.3-7-17.2-16.5-24.8-25.6c-3.1-3.8-6.4-7.6-9.6-11.3c-10-11.1-23.1-13.4-41.2-7.1
				c-19.9,6.8-36.4,12.6-51.8,18.2c-10,3.7-19.9,7.3-29.7,11.2c-0.9,0.4-2,0.7-3.2,1.1c-0.5,0.2-1,0.3-1.5,0.5l-0.3,1.1
				c0.1,0,0.2,0,0.3,0c0.6-0.2,1.2-0.4,1.8-0.6c1.2-0.4,2.4-0.8,3.3-1.2c9.8-4,19.6-7.6,29.7-11.2c15.4-5.6,31.8-11.4,51.8-18.2
				c17.3-5.9,29.8-4,39.4,6.2c-6.8-5.1-15.2-7.1-23.1-4.9c-3.2,0.9-6.3,1.9-9.4,3c-1.5,0.5-3.1,1-4.6,1.5l-89.5,28.6l0.5,1.9
				c0,0,0,0,0,0l89.5-28.6c1.5-0.5,3.1-1,4.6-1.5c3-1,6.2-2.1,9.3-2.9c10.3-2.8,21.6,2,28.3,12c2.6,3.9,5,8.2,7.3,12.4
				c6.2,11.2,12.6,22.8,24,29c9.9,5.4,20.9,8,30.3,9.8l0.5-1.9c0,0,0,0-0.1,0c-9.3-1.8-20.2-4.4-29.8-9.6c-11-6-17.2-17.3-23.2-28.2
				c-1.8-3.3-3.7-6.8-5.7-10c0.4,0.5,0.9,1,1.3,1.6c7.6,9.2,15.5,18.7,25,25.7c10.5,7.9,22.5,12.2,33.9,15.7c0,0,0,0,0,0l0.3-1
				C469.2,1508.9,457.3,1504.6,446.9,1496.8z"/>
			<path class="st7" d="M419.9,1460.8c-3.6-3.2-7.2-6.5-10.9-9.6c-12.4-10.6-26.6-12.4-44.7-5.7c-17.1,6.4-32.2,12.3-45.9,18
				c-8.7,3.6-17.9,7.6-26.8,12c-1,0.5-2.3,1.1-3.7,1.8c-0.4,0.2-0.8,0.4-1.2,0.6l-0.7,2.6c0.8-0.4,1.8-0.9,2.7-1.3
				c1.4-0.7,2.7-1.3,3.7-1.8c8.9-4.4,18.1-8.3,26.7-11.9c13.7-5.7,28.7-11.6,45.9-18c17.3-6.5,30.9-4.8,42.7,5.3
				c3.7,3.1,7.3,6.4,10.9,9.6c10,9,20.4,18.3,32.4,25.4c10.3,6.1,21.5,10.5,32.1,14.6c0,0,0.1,0,0.1,0l0.5-1.9
				c-10.5-4-21.5-8.4-31.7-14.4C440.2,1479,429.9,1469.8,419.9,1460.8z"/>
			<path class="st7" d="M412.3,1446.7c-16.5-9.7-30.6-16.5-48.5-10.3c-11.8,4.1-23.2,9-34.9,14.1c-8.9,3.9-19.3,8.6-29.5,14.2
				l-1.4,0.8c-2.8,1.5-6.4,3.5-9.4,5.4l-0.8,2.9c3.3-2.2,7.7-4.6,11.1-6.5l1.5-0.8c10.2-5.6,20.5-10.3,29.4-14.1
				c11.6-5.1,23-10,34.7-14.1c17.1-6,30.8,0.7,46.8,10.1c26.6,15.5,51.1,28.9,75.1,40.9c0.1,0,0.1,0,0.2,0l0.5-1.9
				C463.2,1475.5,438.7,1462.2,412.3,1446.7z"/>
			<path class="st7" d="M332,1443c1.2-0.6,2.4-1.2,3.5-1.7c11.2-5.5,22.7-11.2,35.1-11.6c12.4-0.4,23.1,4.5,34.4,9.6
				c2.2,1,4.3,2,6.5,2.9c3.5,1.5,7,3,10.5,4.5c9,3.8,18.2,7.8,27.1,12.1c12.4,6,24.7,13.4,36.4,20.6l-0.4-1.4
				c-11.4-7-23.5-14.2-35.6-20c-8.9-4.3-18.2-8.3-27.2-12.1c-3.5-1.5-7-3-10.5-4.5c-2.2-0.9-4.3-1.9-6.5-2.9
				c-10.9-5-22.2-10.1-34.9-9.7c-12.6,0.4-24.2,6.1-35.5,11.7c-1.2,0.6-2.4,1.2-3.5,1.7l-1.2,0.6c-13,6.3-29,14.1-40.7,23.8
				l-0.4,1.7c11.7-10,28.2-18.1,41.6-24.6L332,1443z"/>
			<path class="st7" d="M379.6,1425.4c7.4,1.9,14.9,4.3,22.1,6.5c3.6,1.1,7.4,2.3,11.1,3.4c2.9,0.9,5.8,1.7,8.7,2.5
				c9,2.6,18.4,5.2,27,9c12.1,5.4,23.5,13.7,34.1,21.8l-0.9-3.2c-10.1-7.7-20.9-15.3-32.4-20.4c-8.7-3.9-18.2-6.5-27.3-9.1
				c-2.9-0.8-5.8-1.6-8.7-2.5c-3.7-1.1-7.4-2.3-11-3.4c-7.3-2.3-14.8-4.6-22.2-6.5c-17.7-4.6-33.9,1.9-46,8.1
				c-18,9.2-32.3,18.6-42.6,27.9l-0.9,3.6c10.3-9.9,25.3-19.9,44.5-29.7C352.6,1424.4,366.3,1422,379.6,1425.4z"/>
		</g>
	</g>
	<g>
		<g>
			<path class="st2" d="M1308.3,1461.5h32.8v6.8h-24.9v16h23.2v6.8h-23.2v16h25.2v6.8h-33.1V1461.5z"/>
			<path class="st2" d="M1351.7,1461.5h19.2c11.2,0,16.5,6,16.5,13.8c0,6.5-4,9.8-8.8,11v0.5c5.2,0.3,10.9,4.9,10.9,13
				c0,8-5.5,14.1-17.7,14.1h-20.1V1461.5z M1370.2,1484.2c5.3,0,9.5-3.2,9.5-8.3c0-4.3-3-7.6-9.3-7.6h-10.8v15.9H1370.2z
				 M1371,1507.1c7.6,0,10.6-3.3,10.6-7.7c0-5-4-9.1-10.3-9.1h-11.7v16.8H1371z"/>
			<path class="st2" d="M1398.8,1461.5h18.7c12.1,0,18.1,6.8,18.1,16.4c0,7-3.2,12.4-9.6,14.8l11.6,21.2h-9l-10.6-19.8
				c-0.2,0-0.3,0-0.5,0h-10.7v19.8h-7.9V1461.5z M1416.8,1487.3c7.7,0,10.9-3.4,10.9-9.3c0-5.9-3.2-9.6-11-9.6h-9.9v19H1416.8z"/>
			<path class="st2" d="M1441.3,1513.9l18.8-52.4h9.1l18.8,52.4h-8.4l-4.8-13.9h-20.5l-4.8,13.9H1441.3z M1472.7,1493.4l-7.7-22.4
				h-0.4l-7.7,22.4H1472.7z"/>
			<path class="st2" d="M1503.6,1513.9h-7.9v-52.4h7.9V1513.9z"/>
			<path class="st2" d="M1557.3,1513.9h-7.3l-26.6-38.4h-0.5v38.4h-7.9v-52.4h7.3l26.6,38.5h0.5v-38.5h7.8V1513.9z"/>
			<path class="st2" d="M1586.6,1467.6c-6.4,0-10.5,3.3-10.5,7.7c0,5,5.4,6.9,9.5,8l5.1,1.3c6.6,1.6,15.1,5.3,15.1,14.7
				c0,8.9-7.1,15.3-19.4,15.3c-11.7,0-19.1-5.9-19.6-15.3h7.9c0.5,5.7,5.5,8.4,11.6,8.4c6.7,0,11.6-3.4,11.6-8.5
				c0-4.7-4.3-6.5-9.9-8l-6.2-1.7c-8.4-2.3-13.6-6.5-13.6-13.8c0-9,8.1-15,18.6-15c10.6,0,18.1,6.1,18.3,14.5h-7.6
				C1596.8,1470.4,1592.6,1467.6,1586.6,1467.6z"/>
		</g>
		<polyline points="1153.5,1385.1 1102.8,1399 1065.8,1436.4 1052.5,1487.2 1066.3,1537.9 1103.3,1574.7 1154.1,1590.3
			1205.3,1574.4 1242,1537.5 1255.6,1486.2 1241.8,1435.5 1204.4,1398.5 1153.5,1385.1 		"/>
		<g>
			<path class="st7" d="M1222.7,1529.5c-8.9-3.3-17.2-8-25.3-12.5c-6.9-3.9-14-7.9-21.5-11.1c-16-6.7-29.2-11.5-41.4-15.1
				c-13-3.7-25.2,0.2-38.4,12.3c-7.6,6.9-14.1,12.4-20.6,17.1l-1.4,1c-3.1,2.3-6.7,4.9-10.5,6.9l0.3,1c0,0,0,0,0.1,0
				c3.9-2.1,7.5-4.7,10.7-7.1l1.4-1c5.7-4.2,11.5-8.9,17.9-14.7c-1.3,1.5-2.6,3.2-3.8,5c-6.5,9.8-14.4,20.6-23.9,26.3
				c0,0,0,0-0.1,0.1l0.1,0.3l1.2,1.2c9.7-5.9,17.8-16.8,24.4-26.7c4.3-6.5,11.8-14.3,22.9-14.4c2.9,0,6,0.5,8.9,1
				c0.7,0.1,1.5,0.3,2.2,0.4c19.8,3.2,34.6,6.8,48.1,11.6c8.6,3.1,16.6,7.7,24.4,12.1c7.4,4.3,15.1,8.6,23.4,11.8
				c5.5,2.1,11.5,4.1,17.1,5.8l1.6-1.6c-5.8-1.7-12.2-3.9-18-6.1c-8.2-3.1-15.8-7.4-23.1-11.6c-7.8-4.5-15.9-9.1-24.7-12.3
				c-13.6-4.8-28.5-8.4-48.4-11.7c-0.7-0.1-1.4-0.2-2.2-0.4c-3-0.5-6.2-1.1-9.3-1.1c-5,0-9.6,1.5-13.9,4.3
				c11.4-9.1,22.1-11.8,33.3-8.5c12.2,3.5,25.3,8.3,41.3,15c7.5,3.1,14.6,7.2,21.4,11c8.1,4.6,16.4,9.3,25.4,12.6
				c6,2.2,12.4,4.3,19.8,6.4c0,0,0,0,0,0l0.3-1C1235.1,1533.8,1228.7,1531.7,1222.7,1529.5z"/>
			<path class="st7" d="M1192.3,1509.1c-4.6-2.9-9.4-6-14.2-8.7c-2.7-1.5-5.4-3.2-8.4-5c-9.7-6-20.8-12.8-31.5-14
				c-13.6-1.5-23.7,5.2-34.4,12.2c-2,1.3-4.1,2.7-6.1,4c-7.5,4.7-16.5,10.1-25.9,15.2c-1,0.5-2.1,1.2-3.2,1.8
				c-2.3,1.3-4.8,2.8-7.4,3.9l0.3,1c0,0,0.1,0,0.1,0c2.6-1.2,5.3-2.7,7.6-4c1.1-0.6,2.2-1.3,3.2-1.8c9.4-5.1,18.4-10.5,25.9-15.2
				c2.1-1.3,4.2-2.7,6.2-4c10.5-6.9,20.5-13.5,33.8-12c10.5,1.1,21.5,7.9,31.1,13.8c2.9,1.8,5.7,3.5,8.4,5.1
				c4.8,2.7,9.6,5.7,14.2,8.6c9.6,6.1,19.5,12.4,30.3,16.3c6.3,2.3,13.2,4.5,21.3,6.6c0,0,0,0,0,0l0.3-1c-8-2.2-14.9-4.4-21.2-6.6
				C1211.7,1521.4,1201.8,1515.1,1192.3,1509.1z"/>
			<path class="st7" d="M1222.1,1520.9c-12.8-4.8-24-14.4-34.8-23.7c-3.1-2.7-6.1-5.2-9.1-7.7l-2-1.6
				c-13.2-10.8-26.8-21.9-45.5-13.6c-6.9,3.1-13.7,6.4-20.3,9.7c-4.5,2.2-9.1,4.5-13.7,6.7c-10.8,5.1-19.9,9.3-29.1,13.3
				c-1.2,0.5-2.5,1.1-3.8,1.8c-1.8,0.9-3.6,1.8-5.5,2.5l0.5,1.9c0,0,0.1,0,0.1,0c2-0.8,3.9-1.7,5.8-2.6c1.3-0.7,2.6-1.3,3.7-1.8
				c9.2-4,18.3-8.2,29.1-13.3c4.6-2.2,9.2-4.5,13.7-6.7c6.6-3.3,13.4-6.7,20.3-9.7c17.6-7.8,30.8,2.9,43.5,13.3l2,1.6
				c3,2.4,5.9,5,9,7.6c10.9,9.4,22.3,19.2,35.4,24.1c6.5,2.4,13.8,4.6,22.8,6.9l0.5-1.9c0,0,0,0,0,0
				C1235.7,1525.5,1228.5,1523.3,1222.1,1520.9z"/>
			<path class="st7" d="M1220.2,1516.8c-15.1-6.2-24.4-19.8-33.3-32.9c-2.8-4.2-5.8-8.5-8.8-12.4c-10.5-13.5-27.6-9.2-41.3-3.8
				c-18.6,7.2-33.7,13-47.6,18.3c-9,3.4-17.8,6.7-26.6,9.9c-1,0.4-2.2,0.9-3.4,1.4c-1.2,0.5-2.4,1-3.6,1.5l0.3,1c0,0,0,0,0,0
				c1.2-0.5,2.5-1,3.6-1.5c1.2-0.5,2.3-1,3.4-1.4c8.8-3.2,17.6-6.5,26.6-9.9c13.9-5.3,29-11.1,47.6-18.3c13.4-5.2,30.1-9.5,40.2,3.5
				c3,3.9,5.9,8.2,8.8,12.3c9,13.2,18.4,26.9,33.7,33.3c9,3.7,18.3,6.1,25.4,7.7l0.3-1c0,0,0,0,0,0
				C1238.4,1522.8,1229.2,1520.5,1220.2,1516.8z"/>
			<path class="st7" d="M1215.1,1496.8c-9.3-7-17.2-16.5-24.8-25.6c-3.1-3.8-6.4-7.6-9.6-11.3c-10-11.1-23.1-13.4-41.2-7.1
				c-19.9,6.8-36.4,12.6-51.8,18.2c-10,3.7-19.9,7.3-29.7,11.2c-0.9,0.4-2,0.7-3.2,1.1c-0.5,0.2-1,0.3-1.5,0.5l-0.3,1.1
				c0.1,0,0.2,0,0.3,0c0.6-0.2,1.2-0.4,1.8-0.6c1.2-0.4,2.4-0.8,3.3-1.2c9.8-4,19.6-7.6,29.7-11.2c15.4-5.6,31.8-11.4,51.8-18.2
				c17.3-5.9,29.8-4,39.4,6.2c-6.8-5.1-15.2-7.1-23.1-4.9c-3.2,0.9-6.3,1.9-9.4,3c-1.5,0.5-3.1,1-4.6,1.5l-89.5,28.6l0.5,1.9
				c0,0,0,0,0,0l89.5-28.6c1.5-0.5,3.1-1,4.6-1.5c3-1,6.2-2.1,9.3-2.9c10.3-2.8,21.6,2,28.3,12c2.6,3.9,5,8.2,7.3,12.4
				c6.2,11.2,12.6,22.8,24,29c9.9,5.4,20.9,8,30.3,9.8l0.5-1.9c0,0,0,0-0.1,0c-9.3-1.8-20.2-4.4-29.8-9.6c-11-6-17.2-17.3-23.2-28.2
				c-1.8-3.3-3.7-6.8-5.7-10c0.4,0.5,0.9,1,1.3,1.6c7.6,9.2,15.5,18.7,25,25.7c10.5,7.9,22.5,12.2,33.9,15.7c0,0,0,0,0,0l0.3-1
				C1237.4,1508.9,1225.5,1504.6,1215.1,1496.8z"/>
			<path class="st7" d="M1188.1,1460.8c-3.6-3.2-7.2-6.5-10.9-9.6c-12.4-10.6-26.6-12.4-44.7-5.7c-17.1,6.4-32.2,12.3-45.9,18
				c-8.7,3.6-17.9,7.6-26.8,12c-1,0.5-2.3,1.1-3.7,1.8c-0.4,0.2-0.8,0.4-1.2,0.6l-0.7,2.6c0.8-0.4,1.8-0.9,2.7-1.3
				c1.4-0.7,2.7-1.3,3.7-1.8c8.9-4.4,18.1-8.3,26.7-11.9c13.7-5.7,28.7-11.6,45.9-18c17.3-6.5,30.9-4.8,42.7,5.3
				c3.7,3.1,7.3,6.4,10.9,9.6c10,9,20.4,18.3,32.4,25.4c10.3,6.1,21.5,10.5,32.1,14.6c0,0,0.1,0,0.1,0l0.5-1.9
				c-10.5-4-21.5-8.4-31.7-14.4C1208.4,1479,1198.1,1469.8,1188.1,1460.8z"/>
			<path class="st7" d="M1180.5,1446.7c-16.5-9.7-30.6-16.5-48.5-10.3c-11.8,4.1-23.2,9-34.9,14.1c-8.9,3.9-19.3,8.6-29.5,14.2
				l-1.4,0.8c-2.8,1.5-6.4,3.5-9.4,5.4l-0.8,2.9c3.3-2.2,7.7-4.6,11.1-6.5l1.5-0.8c10.2-5.6,20.5-10.3,29.4-14.1
				c11.6-5.1,23-10,34.7-14.1c17.1-6,30.8,0.7,46.8,10.1c26.6,15.5,51.1,28.9,75.1,40.9c0.1,0,0.1,0,0.2,0l0.5-1.9
				C1231.4,1475.5,1207,1462.2,1180.5,1446.7z"/>
			<path class="st7" d="M1100.3,1443c1.2-0.6,2.4-1.2,3.5-1.7c11.2-5.5,22.7-11.2,35.1-11.6c12.4-0.4,23.1,4.5,34.4,9.6
				c2.2,1,4.3,2,6.5,2.9c3.5,1.5,7,3,10.5,4.5c9,3.8,18.2,7.8,27.1,12.1c12.4,6,24.7,13.4,36.4,20.6l-0.4-1.4
				c-11.4-7-23.5-14.2-35.6-20c-8.9-4.3-18.2-8.3-27.2-12.1c-3.5-1.5-7-3-10.5-4.5c-2.2-0.9-4.3-1.9-6.5-2.9
				c-10.9-5-22.2-10.1-34.9-9.7c-12.6,0.4-24.2,6.1-35.5,11.7c-1.2,0.6-2.4,1.2-3.5,1.7l-1.2,0.6c-13,6.3-29,14.1-40.7,23.8
				l-0.4,1.7c11.7-10,28.2-18.1,41.6-24.6L1100.3,1443z"/>
			<path class="st7" d="M1147.8,1425.4c7.4,1.9,14.9,4.3,22.1,6.5c3.6,1.1,7.4,2.3,11.1,3.4c2.9,0.9,5.8,1.7,8.7,2.5
				c9,2.6,18.4,5.2,27,9c12.1,5.4,23.5,13.7,34.1,21.8l-0.9-3.2c-10.1-7.7-20.9-15.3-32.4-20.4c-8.7-3.9-18.2-6.5-27.3-9.1
				c-2.9-0.8-5.8-1.6-8.7-2.5c-3.7-1.1-7.4-2.3-11-3.4c-7.3-2.3-14.8-4.6-22.2-6.5c-17.7-4.6-33.9,1.9-46,8.1
				c-18,9.2-32.3,18.6-42.6,27.9l-0.9,3.6c10.3-9.9,25.3-19.9,44.5-29.7C1120.8,1424.4,1134.5,1422,1147.8,1425.4z"/>
		</g>
	</g>
	<g>
		<g>
			<path class="st7" d="M2046.4,1461.5h32.8v6.8h-24.9v16h23.2v6.8h-23.2v16h25.2v6.8h-33.1V1461.5z"/>
			<path class="st7" d="M2089.8,1461.5h19.2c11.2,0,16.5,6,16.5,13.8c0,6.5-4,9.8-8.8,11v0.5c5.2,0.3,10.9,4.9,10.9,13
				c0,8-5.5,14.1-17.7,14.1h-20.1V1461.5z M2108.3,1484.2c5.3,0,9.5-3.2,9.5-8.3c0-4.3-3-7.6-9.3-7.6h-10.8v15.9H2108.3z
				 M2109.1,1507.1c7.6,0,10.6-3.3,10.6-7.7c0-5-4-9.1-10.3-9.1h-11.7v16.8H2109.1z"/>
			<path class="st7" d="M2136.9,1461.5h18.7c12.1,0,18.1,6.8,18.1,16.4c0,7-3.2,12.4-9.6,14.8l11.6,21.2h-9l-10.6-19.8
				c-0.2,0-0.3,0-0.5,0h-10.7v19.8h-7.9V1461.5z M2154.8,1487.3c7.7,0,10.9-3.4,10.9-9.3c0-5.9-3.2-9.6-11-9.6h-9.9v19H2154.8z"/>
			<path class="st7" d="M2179.3,1513.9l18.8-52.4h9.1l18.8,52.4h-8.4l-4.8-13.9h-20.5l-4.8,13.9H2179.3z M2210.7,1493.4l-7.7-22.4
				h-0.4l-7.7,22.4H2210.7z"/>
			<path class="st7" d="M2241.6,1513.9h-7.9v-52.4h7.9V1513.9z"/>
			<path class="st7" d="M2295.4,1513.9h-7.3l-26.6-38.4h-0.5v38.4h-7.9v-52.4h7.3l26.6,38.5h0.5v-38.5h7.8V1513.9z"/>
			<path class="st7" d="M2324.6,1467.6c-6.4,0-10.5,3.3-10.5,7.7c0,5,5.4,6.9,9.5,8l5.1,1.3c6.6,1.6,15.1,5.3,15.1,14.7
				c0,8.9-7.1,15.3-19.4,15.3c-11.7,0-19.1-5.9-19.6-15.3h7.9c0.5,5.7,5.5,8.4,11.6,8.4c6.7,0,11.6-3.4,11.6-8.5
				c0-4.7-4.3-6.5-9.9-8l-6.2-1.7c-8.4-2.3-13.6-6.5-13.6-13.8c0-9,8.1-15,18.6-15c10.6,0,18.1,6.1,18.3,14.5h-7.6
				C2334.9,1470.4,2330.6,1467.6,2324.6,1467.6z"/>
		</g>
		<polyline class="st7" points="1891.6,1385.1 1840.9,1399 1803.9,1436.4 1790.5,1487.2 1804.4,1537.9 1841.3,1574.7 1892.1,1590.3
			1943.3,1574.4 1980.1,1537.5 1993.7,1486.2 1979.8,1435.5 1942.4,1398.5 1891.6,1385.1 		"/>
		<g>
			<path class="st11" d="M1960.8,1529.5c-8.9-3.3-17.2-8-25.3-12.5c-6.9-3.9-14-7.9-21.5-11.1c-16-6.7-29.2-11.5-41.4-15.1
				c-13-3.7-25.2,0.2-38.4,12.3c-7.6,6.9-14.1,12.4-20.6,17.1l-1.4,1c-3.1,2.3-6.7,4.9-10.5,6.9l0.3,1c0,0,0,0,0.1,0
				c3.9-2.1,7.5-4.7,10.7-7.1l1.4-1c5.7-4.2,11.5-8.9,17.9-14.7c-1.3,1.5-2.6,3.2-3.8,5c-6.5,9.8-14.4,20.6-23.9,26.3
				c0,0,0,0-0.1,0.1l0.1,0.3l1.2,1.2c9.7-5.9,17.8-16.8,24.4-26.7c4.3-6.5,11.8-14.3,22.9-14.4c2.9,0,6,0.5,8.9,1
				c0.7,0.1,1.5,0.3,2.2,0.4c19.8,3.2,34.6,6.8,48.1,11.6c8.6,3.1,16.6,7.7,24.4,12.1c7.4,4.3,15.1,8.6,23.4,11.8
				c5.5,2.1,11.5,4.1,17.1,5.8l1.6-1.6c-5.8-1.7-12.2-3.9-18-6.1c-8.2-3.1-15.8-7.4-23.1-11.6c-7.8-4.5-15.9-9.1-24.7-12.3
				c-13.6-4.8-28.5-8.4-48.4-11.7c-0.7-0.1-1.4-0.2-2.2-0.4c-3-0.5-6.2-1.1-9.3-1.1c-5,0-9.6,1.5-13.9,4.3
				c11.4-9.1,22.1-11.8,33.3-8.5c12.2,3.5,25.3,8.3,41.3,15c7.5,3.1,14.6,7.2,21.4,11c8.1,4.6,16.4,9.3,25.4,12.6
				c6,2.2,12.4,4.3,19.8,6.4c0,0,0,0,0,0l0.3-1C1973.1,1533.8,1966.7,1531.7,1960.8,1529.5z"/>
			<path class="st11" d="M1930.3,1509.1c-4.6-2.9-9.4-6-14.2-8.7c-2.7-1.5-5.4-3.2-8.4-5c-9.7-6-20.8-12.8-31.5-14
				c-13.6-1.5-23.7,5.2-34.4,12.2c-2,1.3-4.1,2.7-6.1,4c-7.5,4.7-16.5,10.1-25.9,15.2c-1,0.5-2.1,1.2-3.2,1.8
				c-2.3,1.3-4.8,2.8-7.4,3.9l0.3,1c0,0,0.1,0,0.1,0c2.6-1.2,5.3-2.7,7.6-4c1.1-0.6,2.2-1.3,3.2-1.8c9.4-5.1,18.4-10.5,25.9-15.2
				c2.1-1.3,4.2-2.7,6.2-4c10.5-6.9,20.5-13.5,33.8-12c10.5,1.1,21.5,7.9,31.1,13.8c2.9,1.8,5.7,3.5,8.4,5.1
				c4.8,2.7,9.6,5.7,14.2,8.6c9.6,6.1,19.5,12.4,30.3,16.3c6.3,2.3,13.2,4.5,21.3,6.6c0,0,0,0,0,0l0.3-1c-8-2.2-14.9-4.4-21.2-6.6
				C1949.7,1521.4,1939.8,1515.1,1930.3,1509.1z"/>
			<path class="st11" d="M1960.1,1520.9c-12.8-4.8-24-14.4-34.8-23.7c-3.1-2.7-6.1-5.2-9.1-7.7l-2-1.6
				c-13.2-10.8-26.8-21.9-45.5-13.6c-6.9,3.1-13.7,6.4-20.3,9.7c-4.5,2.2-9.1,4.5-13.7,6.7c-10.8,5.1-19.9,9.3-29.1,13.3
				c-1.2,0.5-2.5,1.1-3.8,1.8c-1.8,0.9-3.6,1.8-5.5,2.5l0.5,1.9c0,0,0.1,0,0.1,0c2-0.8,3.9-1.7,5.8-2.6c1.3-0.7,2.6-1.3,3.7-1.8
				c9.2-4,18.3-8.2,29.1-13.3c4.6-2.2,9.2-4.5,13.7-6.7c6.6-3.3,13.4-6.7,20.3-9.7c17.6-7.8,30.8,2.9,43.5,13.3l2,1.6
				c3,2.4,5.9,5,9,7.6c10.9,9.4,22.3,19.2,35.4,24.1c6.5,2.4,13.8,4.6,22.8,6.9l0.5-1.9c0,0,0,0,0,0
				C1973.7,1525.5,1966.5,1523.3,1960.1,1520.9z"/>
			<path class="st11" d="M1958.2,1516.8c-15.1-6.2-24.4-19.8-33.3-32.9c-2.8-4.2-5.8-8.5-8.8-12.4c-10.5-13.5-27.6-9.2-41.3-3.8
				c-18.6,7.2-33.7,13-47.6,18.3c-9,3.4-17.8,6.7-26.6,9.9c-1,0.4-2.2,0.9-3.4,1.4c-1.2,0.5-2.4,1-3.6,1.5l0.3,1c0,0,0,0,0,0
				c1.2-0.5,2.5-1,3.6-1.5c1.2-0.5,2.3-1,3.4-1.4c8.8-3.2,17.6-6.5,26.6-9.9c13.9-5.3,29-11.1,47.6-18.3c13.4-5.2,30.1-9.5,40.2,3.5
				c3,3.9,5.9,8.2,8.8,12.3c9,13.2,18.4,26.9,33.7,33.3c9,3.7,18.3,6.1,25.4,7.7l0.3-1c0,0,0,0,0,0
				C1976.4,1522.8,1967.2,1520.5,1958.2,1516.8z"/>
			<path class="st11" d="M1953.2,1496.8c-9.3-7-17.2-16.5-24.8-25.6c-3.1-3.8-6.4-7.6-9.6-11.3c-10-11.1-23.1-13.4-41.2-7.1
				c-19.9,6.8-36.4,12.6-51.8,18.2c-10,3.7-19.9,7.3-29.7,11.2c-0.9,0.4-2,0.7-3.2,1.1c-0.5,0.2-1,0.3-1.5,0.5l-0.3,1.1
				c0.1,0,0.2,0,0.3,0c0.6-0.2,1.2-0.4,1.8-0.6c1.2-0.4,2.4-0.8,3.3-1.2c9.8-4,19.6-7.6,29.7-11.2c15.4-5.6,31.8-11.4,51.8-18.2
				c17.3-5.9,29.8-4,39.4,6.2c-6.8-5.1-15.2-7.1-23.1-4.9c-3.2,0.9-6.3,1.9-9.4,3c-1.5,0.5-3.1,1-4.6,1.5l-89.5,28.6l0.5,1.9
				c0,0,0,0,0,0l89.5-28.6c1.5-0.5,3.1-1,4.6-1.5c3-1,6.2-2.1,9.3-2.9c10.3-2.8,21.6,2,28.3,12c2.6,3.9,5,8.2,7.3,12.4
				c6.2,11.2,12.6,22.8,24,29c9.9,5.4,20.9,8,30.3,9.8l0.5-1.9c0,0,0,0-0.1,0c-9.3-1.8-20.2-4.4-29.8-9.6c-11-6-17.2-17.3-23.2-28.2
				c-1.8-3.3-3.7-6.8-5.7-10c0.4,0.5,0.9,1,1.3,1.6c7.6,9.2,15.5,18.7,25,25.7c10.5,7.9,22.5,12.2,33.9,15.7c0,0,0,0,0,0l0.3-1
				C1975.4,1508.9,1963.6,1504.6,1953.2,1496.8z"/>
			<path class="st11" d="M1926.2,1460.8c-3.6-3.2-7.2-6.5-10.9-9.6c-12.4-10.6-26.6-12.4-44.7-5.7c-17.1,6.4-32.2,12.3-45.9,18
				c-8.7,3.6-17.9,7.6-26.8,12c-1,0.5-2.3,1.1-3.7,1.8c-0.4,0.2-0.8,0.4-1.2,0.6l-0.7,2.6c0.8-0.4,1.8-0.9,2.7-1.3
				c1.4-0.7,2.7-1.3,3.7-1.8c8.9-4.4,18.1-8.3,26.7-11.9c13.7-5.7,28.7-11.6,45.9-18c17.3-6.5,30.9-4.8,42.7,5.3
				c3.7,3.1,7.3,6.4,10.9,9.6c10,9,20.4,18.3,32.4,25.4c10.3,6.1,21.5,10.5,32.1,14.6c0,0,0.1,0,0.1,0l0.5-1.9
				c-10.5-4-21.5-8.4-31.7-14.4C1946.5,1479,1936.1,1469.8,1926.2,1460.8z"/>
			<path class="st11" d="M1918.5,1446.7c-16.5-9.7-30.6-16.5-48.5-10.3c-11.8,4.1-23.2,9-34.9,14.1c-8.9,3.9-19.3,8.6-29.5,14.2
				l-1.4,0.8c-2.8,1.5-6.4,3.5-9.4,5.4l-0.8,2.9c3.3-2.2,7.7-4.6,11.1-6.5l1.5-0.8c10.2-5.6,20.5-10.3,29.4-14.1
				c11.6-5.1,23-10,34.7-14.1c17.1-6,30.8,0.7,46.8,10.1c26.6,15.5,51.1,28.9,75.1,40.9c0.1,0,0.1,0,0.2,0l0.5-1.9
				C1969.4,1475.5,1945,1462.2,1918.5,1446.7z"/>
			<path class="st11" d="M1838.3,1443c1.2-0.6,2.4-1.2,3.5-1.7c11.2-5.5,22.7-11.2,35.1-11.6c12.4-0.4,23.1,4.5,34.4,9.6
				c2.2,1,4.3,2,6.5,2.9c3.5,1.5,7,3,10.5,4.5c9,3.8,18.2,7.8,27.1,12.1c12.4,6,24.7,13.4,36.4,20.6l-0.4-1.4
				c-11.4-7-23.5-14.2-35.6-20c-8.9-4.3-18.2-8.3-27.2-12.1c-3.5-1.5-7-3-10.5-4.5c-2.2-0.9-4.3-1.9-6.5-2.9
				c-10.9-5-22.2-10.1-34.9-9.7c-12.6,0.4-24.2,6.1-35.5,11.7c-1.2,0.6-2.4,1.2-3.5,1.7l-1.2,0.6c-13,6.3-29,14.1-40.7,23.8
				l-0.4,1.7c11.7-10,28.2-18.1,41.6-24.6L1838.3,1443z"/>
			<path class="st11" d="M1885.9,1425.4c7.4,1.9,14.9,4.3,22.1,6.5c3.6,1.1,7.4,2.3,11.1,3.4c2.9,0.9,5.8,1.7,8.7,2.5
				c9,2.6,18.4,5.2,27,9c12.1,5.4,23.5,13.7,34.1,21.8l-0.9-3.2c-10.1-7.7-20.9-15.3-32.4-20.4c-8.7-3.9-18.2-6.5-27.3-9.1
				c-2.9-0.8-5.8-1.6-8.7-2.5c-3.7-1.1-7.4-2.3-11-3.4c-7.3-2.3-14.8-4.6-22.2-6.5c-17.7-4.6-33.9,1.9-46,8.1
				c-18,9.2-32.3,18.6-42.6,27.9l-0.9,3.6c10.3-9.9,25.3-19.9,44.5-29.7C1858.8,1424.4,1872.5,1422,1885.9,1425.4z"/>
		</g>
	</g>
	<g>
		<g>
			<path class="st2" d="M-129.5,1461.5h32.8v6.8h-24.9v16h23.2v6.8h-23.2v16h25.2v6.8h-33.1V1461.5z"/>
			<path class="st2" d="M-86.1,1461.5h19.2c11.2,0,16.5,6,16.5,13.8c0,6.5-4,9.8-8.8,11v0.5c5.2,0.3,10.9,4.9,10.9,13
				c0,8-5.5,14.1-17.7,14.1h-20.1V1461.5z M-67.6,1484.2c5.3,0,9.5-3.2,9.5-8.3c0-4.3-3-7.6-9.3-7.6h-10.8v15.9H-67.6z
				 M-66.8,1507.1c7.6,0,10.6-3.3,10.6-7.7c0-5-4-9.1-10.3-9.1h-11.7v16.8H-66.8z"/>
			<path class="st2" d="M-39,1461.5h18.7c12.1,0,18.1,6.8,18.1,16.4c0,7-3.2,12.4-9.6,14.8l11.6,21.2h-9l-10.6-19.8
				c-0.2,0-0.3,0-0.5,0h-10.7v19.8H-39V1461.5z M-21.1,1487.3c7.7,0,10.9-3.4,10.9-9.3c0-5.9-3.2-9.6-11-9.6h-9.9v19H-21.1z"/>
			<path class="st2" d="M3.5,1513.9l18.8-52.4h9.1l18.8,52.4h-8.4l-4.8-13.9H16.7l-4.8,13.9H3.5z M34.8,1493.4l-7.7-22.4h-0.4
				l-7.7,22.4H34.8z"/>
			<path class="st2" d="M65.7,1513.9h-7.9v-52.4h7.9V1513.9z"/>
			<path class="st2" d="M119.5,1513.9h-7.3l-26.6-38.4h-0.5v38.4h-7.9v-52.4h7.3l26.6,38.5h0.5v-38.5h7.8V1513.9z"/>
			<path class="st2" d="M148.7,1467.6c-6.4,0-10.5,3.3-10.5,7.7c0,5,5.4,6.9,9.5,8l5.1,1.3c6.6,1.6,15.1,5.3,15.1,14.7
				c0,8.9-7.1,15.3-19.4,15.3c-11.7,0-19.1-5.9-19.6-15.3h7.9c0.5,5.7,5.5,8.4,11.6,8.4c6.7,0,11.6-3.4,11.6-8.5
				c0-4.7-4.3-6.5-9.9-8l-6.2-1.7c-8.4-2.3-13.6-6.5-13.6-13.8c0-9,8.1-15,18.6-15c10.6,0,18.1,6.1,18.3,14.5h-7.6
				C159,1470.4,154.7,1467.6,148.7,1467.6z"/>
		</g>
		<polyline class="st6" points="-284.3,1385.1 -335,1399 -372,1436.4 -385.4,1487.2 -371.5,1537.9 -334.6,1574.7 -283.8,1590.3
			-232.6,1574.4 -195.8,1537.5 -182.2,1486.2 -196.1,1435.5 -233.4,1398.5 -284.3,1385.1 		"/>
		<g>
			<path class="st7" d="M-215.1,1529.5c-8.9-3.3-17.2-8-25.3-12.5c-6.9-3.9-14-7.9-21.5-11.1c-16-6.7-29.2-11.5-41.4-15.1
				c-13-3.7-25.2,0.2-38.4,12.3c-7.6,6.9-14.1,12.4-20.6,17.1l-1.4,1c-3.1,2.3-6.7,4.9-10.5,6.9l0.3,1c0,0,0,0,0.1,0
				c3.9-2.1,7.5-4.7,10.7-7.1l1.4-1c5.7-4.2,11.5-8.9,17.9-14.7c-1.3,1.5-2.6,3.2-3.8,5c-6.5,9.8-14.4,20.6-23.9,26.3
				c0,0,0,0-0.1,0.1l0.1,0.3l1.2,1.2c9.7-5.9,17.8-16.8,24.4-26.7c4.3-6.5,11.8-14.3,22.9-14.4c2.9,0,6,0.5,8.9,1
				c0.7,0.1,1.5,0.3,2.2,0.4c19.8,3.2,34.6,6.8,48.1,11.6c8.6,3.1,16.6,7.7,24.4,12.1c7.4,4.3,15.1,8.6,23.4,11.8
				c5.5,2.1,11.5,4.1,17.1,5.8l1.6-1.6c-5.8-1.7-12.2-3.9-18-6.1c-8.2-3.1-15.8-7.4-23.1-11.6c-7.8-4.5-15.9-9.1-24.7-12.3
				c-13.6-4.8-28.5-8.4-48.4-11.7c-0.7-0.1-1.4-0.2-2.2-0.4c-3-0.5-6.2-1.1-9.3-1.1c-5,0-9.6,1.5-13.9,4.3
				c11.4-9.1,22.1-11.8,33.3-8.5c12.2,3.5,25.3,8.3,41.3,15c7.5,3.1,14.6,7.2,21.4,11c8.1,4.6,16.4,9.3,25.4,12.6
				c6,2.2,12.4,4.3,19.8,6.4c0,0,0,0,0,0l0.3-1C-202.7,1533.8-209.2,1531.7-215.1,1529.5z"/>
			<path class="st7" d="M-245.6,1509.1c-4.6-2.9-9.4-6-14.2-8.7c-2.7-1.5-5.4-3.2-8.4-5c-9.7-6-20.8-12.8-31.5-14
				c-13.6-1.5-23.7,5.2-34.4,12.2c-2,1.3-4.1,2.7-6.1,4c-7.5,4.7-16.5,10.1-25.9,15.2c-1,0.5-2.1,1.2-3.2,1.8
				c-2.3,1.3-4.8,2.8-7.4,3.9l0.3,1c0,0,0.1,0,0.1,0c2.6-1.2,5.3-2.7,7.6-4c1.1-0.6,2.2-1.3,3.2-1.8c9.4-5.1,18.4-10.5,25.9-15.2
				c2.1-1.3,4.2-2.7,6.2-4c10.5-6.9,20.5-13.5,33.8-12c10.5,1.1,21.5,7.9,31.1,13.8c2.9,1.8,5.7,3.5,8.4,5.1
				c4.8,2.7,9.6,5.7,14.2,8.6c9.6,6.1,19.5,12.4,30.3,16.3c6.3,2.3,13.2,4.5,21.3,6.6c0,0,0,0,0,0l0.3-1c-8-2.2-14.9-4.4-21.2-6.6
				C-226.2,1521.4-236,1515.1-245.6,1509.1z"/>
			<path class="st7" d="M-215.8,1520.9c-12.8-4.8-24-14.4-34.8-23.7c-3.1-2.7-6.1-5.2-9.1-7.7l-2-1.6
				c-13.2-10.8-26.8-21.9-45.5-13.6c-6.9,3.1-13.7,6.4-20.3,9.7c-4.5,2.2-9.1,4.5-13.7,6.7c-10.8,5.1-19.9,9.3-29.1,13.3
				c-1.2,0.5-2.5,1.1-3.8,1.8c-1.8,0.9-3.6,1.8-5.5,2.5l0.5,1.9c0,0,0.1,0,0.1,0c2-0.8,3.9-1.7,5.8-2.6c1.3-0.7,2.6-1.3,3.7-1.8
				c9.2-4,18.3-8.2,29.1-13.3c4.6-2.2,9.2-4.5,13.7-6.7c6.6-3.3,13.4-6.7,20.3-9.7c17.6-7.8,30.8,2.9,43.5,13.3l2,1.6
				c3,2.4,5.9,5,9,7.6c10.9,9.4,22.3,19.2,35.4,24.1c6.5,2.4,13.8,4.6,22.8,6.9l0.5-1.9c0,0,0,0,0,0
				C-202.2,1525.5-209.3,1523.3-215.8,1520.9z"/>
			<path class="st7" d="M-217.6,1516.8c-15.1-6.2-24.4-19.8-33.3-32.9c-2.8-4.2-5.8-8.5-8.8-12.4c-10.5-13.5-27.6-9.2-41.3-3.8
				c-18.6,7.2-33.7,13-47.6,18.3c-9,3.4-17.8,6.7-26.6,9.9c-1,0.4-2.2,0.9-3.4,1.4c-1.2,0.5-2.4,1-3.6,1.5l0.3,1c0,0,0,0,0,0
				c1.2-0.5,2.5-1,3.6-1.5c1.2-0.5,2.3-1,3.4-1.4c8.8-3.2,17.6-6.5,26.6-9.9c13.9-5.3,29-11.1,47.6-18.3c13.4-5.2,30.1-9.5,40.2,3.5
				c3,3.9,5.9,8.2,8.8,12.3c9,13.2,18.4,26.9,33.7,33.3c9,3.7,18.3,6.1,25.4,7.7l0.3-1c0,0,0,0,0,0
				C-199.4,1522.8-208.7,1520.5-217.6,1516.8z"/>
			<path class="st7" d="M-222.7,1496.8c-9.3-7-17.2-16.5-24.8-25.6c-3.1-3.8-6.4-7.6-9.6-11.3c-10-11.1-23.1-13.4-41.2-7.1
				c-19.9,6.8-36.4,12.6-51.8,18.2c-10,3.7-19.9,7.3-29.7,11.2c-0.9,0.4-2,0.7-3.2,1.1c-0.5,0.2-1,0.3-1.5,0.5l-0.3,1.1
				c0.1,0,0.2,0,0.3,0c0.6-0.2,1.2-0.4,1.8-0.6c1.2-0.4,2.4-0.8,3.3-1.2c9.8-4,19.6-7.6,29.7-11.2c15.4-5.6,31.8-11.4,51.8-18.2
				c17.3-5.9,29.8-4,39.4,6.2c-6.8-5.1-15.2-7.1-23.1-4.9c-3.2,0.9-6.3,1.9-9.4,3c-1.5,0.5-3.1,1-4.6,1.5l-89.5,28.6l0.5,1.9
				c0,0,0,0,0,0l89.5-28.6c1.5-0.5,3.1-1,4.6-1.5c3-1,6.2-2.1,9.3-2.9c10.3-2.8,21.6,2,28.3,12c2.6,3.9,5,8.2,7.3,12.4
				c6.2,11.2,12.6,22.8,24,29c9.9,5.4,20.9,8,30.3,9.8l0.5-1.9c0,0,0,0-0.1,0c-9.3-1.8-20.2-4.4-29.8-9.6c-11-6-17.2-17.3-23.2-28.2
				c-1.8-3.3-3.7-6.8-5.7-10c0.4,0.5,0.9,1,1.3,1.6c7.6,9.2,15.5,18.7,25,25.7c10.5,7.9,22.5,12.2,33.9,15.7c0,0,0,0,0,0l0.3-1
				C-200.4,1508.9-212.3,1504.6-222.7,1496.8z"/>
			<path class="st7" d="M-249.7,1460.8c-3.6-3.2-7.2-6.5-10.9-9.6c-12.4-10.6-26.6-12.4-44.7-5.7c-17.1,6.4-32.2,12.3-45.9,18
				c-8.7,3.6-17.9,7.6-26.8,12c-1,0.5-2.3,1.1-3.7,1.8c-0.4,0.2-0.8,0.4-1.2,0.6l-0.7,2.6c0.8-0.4,1.8-0.9,2.7-1.3
				c1.4-0.7,2.7-1.3,3.7-1.8c8.9-4.4,18.1-8.3,26.7-11.9c13.7-5.7,28.7-11.6,45.9-18c17.3-6.5,30.9-4.8,42.7,5.3
				c3.7,3.1,7.3,6.4,10.9,9.6c10,9,20.4,18.3,32.4,25.4c10.3,6.1,21.5,10.5,32.1,14.6c0,0,0.1,0,0.1,0l0.5-1.9
				c-10.5-4-21.5-8.4-31.7-14.4C-229.4,1479-239.7,1469.8-249.7,1460.8z"/>
			<path class="st7" d="M-257.4,1446.7c-16.5-9.7-30.6-16.5-48.5-10.3c-11.8,4.1-23.2,9-34.9,14.1c-8.9,3.9-19.3,8.6-29.5,14.2
				l-1.4,0.8c-2.8,1.5-6.4,3.5-9.4,5.4l-0.8,2.9c3.3-2.2,7.7-4.6,11.1-6.5l1.5-0.8c10.2-5.6,20.5-10.3,29.4-14.1
				c11.6-5.1,23-10,34.7-14.1c17.1-6,30.8,0.7,46.8,10.1c26.6,15.5,51.1,28.9,75.1,40.9c0.1,0,0.1,0,0.2,0l0.5-1.9
				C-206.4,1475.5-230.9,1462.2-257.4,1446.7z"/>
			<path class="st7" d="M-337.6,1443c1.2-0.6,2.4-1.2,3.5-1.7c11.2-5.5,22.7-11.2,35.1-11.6c12.4-0.4,23.1,4.5,34.4,9.6
				c2.2,1,4.3,2,6.5,2.9c3.5,1.5,7,3,10.5,4.5c9,3.8,18.2,7.8,27.1,12.1c12.4,6,24.7,13.4,36.4,20.6l-0.4-1.4
				c-11.4-7-23.5-14.2-35.6-20c-8.9-4.3-18.2-8.3-27.2-12.1c-3.5-1.5-7-3-10.5-4.5c-2.2-0.9-4.3-1.9-6.5-2.9
				c-10.9-5-22.2-10.1-34.9-9.7c-12.6,0.4-24.2,6.1-35.5,11.7c-1.2,0.6-2.4,1.2-3.5,1.7l-1.2,0.6c-13,6.3-29,14.1-40.7,23.8
				l-0.4,1.7c11.7-10,28.2-18.1,41.6-24.6L-337.6,1443z"/>
			<path class="st7" d="M-290,1425.4c7.4,1.9,14.9,4.3,22.1,6.5c3.6,1.1,7.4,2.3,11.1,3.4c2.9,0.9,5.8,1.7,8.7,2.5
				c9,2.6,18.4,5.2,27,9c12.1,5.4,23.5,13.7,34.1,21.8l-0.9-3.2c-10.1-7.7-20.9-15.3-32.4-20.4c-8.7-3.9-18.2-6.5-27.3-9.1
				c-2.9-0.8-5.8-1.6-8.7-2.5c-3.7-1.1-7.4-2.3-11-3.4c-7.3-2.3-14.8-4.6-22.2-6.5c-17.7-4.6-33.9,1.9-46,8.1
				c-18,9.2-32.3,18.6-42.6,27.9l-0.9,3.6c10.3-9.9,25.3-19.9,44.5-29.7C-317.1,1424.4-303.3,1422-290,1425.4z"/>
		</g>
	</g>
</g>
<g id="FONDS">
</g>
<g id="base">
</g>
<g id="texts">
</g>
<g id="grid">
</g>
<g id="shapes">
</g>
<g id="LIGNES">
	<g id="Mode_Isolation_3_">
		<g id="Calque_2">
		</g>
	</g>
	<g id="Mode_Isolation_1_">
	</g>
	<g id="Mode_Isolation_2_">
	</g>
	<g id="Calque_8">
	</g>
</g>
<g id="Calque_13">
</g>
<g id="Mode_Isolation">
</g>
<g id="Calque_15">
	<g>
		<linearGradient id="SVGID_3_" gradientUnits="userSpaceOnUse" x1="4289.7349" y1="821.7323" x2="4570.5059" y2="821.7323">
			<stop  offset="0" style="stop-color:#5BA1A9"/>
			<stop  offset="1" style="stop-color:#6EC3B2"/>
		</linearGradient>
		<polygon class="st12" points="4429.4,691.8 4359.3,711 4289.7,832.9 4500.3,951.7 4551.7,902.4 4570.5,830.1 		"/>
		<linearGradient id="SVGID_4_" gradientUnits="userSpaceOnUse" x1="4570.5059" y1="855.7689" x2="4289.7349" y2="855.7689">
			<stop  offset="0" style="stop-color:#5BA1A9"/>
			<stop  offset="1" style="stop-color:#6EC3B2"/>
		</linearGradient>
		<polyline class="st13" points="4289.7,832.9 4308.5,900.3 4500.3,951.7 4551.7,902.4 4570.5,830.1 4551.7,759.9 4289.7,832.9
			"/>
	</g>
	<g>
		<polygon class="st14" points="4304.8,806.5 4302.8,810 4302.9,810 4304.8,806.5 		"/>
		<path class="st14" d="M4372.1,836c0.2,0.5,18.1,46.6,23.8,87.7l3.6,1c-2.6-19.4-7.9-39.7-12.3-54.5c-6-20.2-11.9-35.2-11.9-35.3
			c-4.8-12.3-16.6-22.5-29.7-27c0,0-0.1,0-0.1,0c-1.5-0.1-13.4-0.5-29.7-1.7c-3.2,0.1-6.8,0.3-10.8,0.4l-2,3.5
			c14.5-0.3,24.8-1,26.2-1.1C4346.4,807.6,4365.7,819.8,4372.1,836z"/>

			<rect x="4304.5" y="803.7" transform="matrix(0.4957 -0.8685 0.8685 0.4957 1473.7681 4145.4502)" class="st14" width="3.8" height="0"/>
		<path class="st14" d="M4328.8,805.4c5.5-0.4,11.2,0.5,16.7,2.4c17.4,0.7,35.3,14.9,39.9,31.6c0.2,0.6,13.8,50,19.1,86.6l3.6,1
			c-5.2-37-19.2-87.9-19.4-88.5c-4-14.4-17.1-27.1-31.7-32c-3.9-0.5-9.7-1.3-16.9-2.4c-6.6-0.3-18.6-1-32.7-2.1l-1.9,3.3
			c3.5,0.3,7,0.5,10.2,0.8C4323.6,805.8,4328.6,805.5,4328.8,805.4z"/>
		<path class="st14" d="M4328.8,805.4c-0.2,0-5.2,0.4-13.1,0.7c16.3,1.2,28.2,1.6,29.7,1.7c0,0,0.1,0,0.1,0
			C4340,805.9,4334.3,805,4328.8,805.4z"/>

			<rect x="4308" y="797.7" transform="matrix(0.4957 -0.8685 0.8685 0.4957 1480.7284 4145.4575)" class="st14" width="3.6" height="0"/>
		<path class="st14" d="M4345.5,804.4c3.8,0.1,7.7,0.9,11.4,2.2c3.2,0.4,5.1,0.7,5.2,0.7c17.3,2.3,33.9,18,37.1,35.2
			c0.1,0.6,9.6,51.9,14.1,86l3.5,1c-4.5-34.2-14.2-86.9-14.3-87.5c-3.4-18.5-21.4-35.5-40-37.9c-12.4-1.6-31.5-4.4-51.8-7.7
			l-1.8,3.1c11.5,1.9,22.3,3.5,31.1,4.8C4343.5,804.3,4345.4,804.4,4345.5,804.4z"/>
		<path class="st14" d="M4340.1,804.1c7.2,1.1,13,1.9,16.9,2.4c-3.7-1.3-7.6-2-11.4-2.2C4345.4,804.4,4343.5,804.3,4340.1,804.1z"/>

			<rect x="4312" y="790.9" transform="matrix(0.4957 -0.8685 0.8685 0.4957 1488.6813 4145.4067)" class="st14" width="3.5" height="0"/>
		<path class="st14" d="M4413.5,845.2c0.1,0.7,5.8,52.6,9.1,85.7l3.5,0.9c-3.2-33.1-9.1-86.3-9.2-87c-2.1-18.7-18.7-37.1-37.1-41
			c-25.1-5.3-46.7-10.2-65.1-14.5l-1.7,3c31,7.3,59.6,13.4,66.1,14.8C4396.1,810.8,4411.5,827.8,4413.5,845.2z"/>

			<rect x="4316.4" y="783.2" transform="matrix(0.4957 -0.8685 0.8685 0.4957 1497.5415 4145.3027)" class="st14" width="3.5" height="0"/>
		<path class="st14" d="M4428.1,847.7c0,0.7,2.6,52.6,4.3,85.8l3.5,0.9c-1.7-33.1-4.3-86.1-4.3-86.8c-0.9-18.8-16.4-38.2-34.5-43.3
			c-23.6-6.7-51.8-14.8-78-22.6l-1.7,3c39.4,11.6,78.4,22.7,78.8,22.8C4412.8,812.3,4427.2,830.3,4428.1,847.7z"/>

			<rect x="4321.1" y="775" transform="matrix(0.4957 -0.8685 0.8685 0.4957 1507.0007 4145.2173)" class="st14" width="3.5" height="0"/>
		<path class="st14" d="M4443,850.2l-0.2,82.2c0,1.3,0,2.6,0.1,4l3.4,0.9c-0.1-1.7-0.1-3.3-0.1-4.9l0.2-82.2
			c0-18.8-14.4-39.1-32.1-45.2l-90.6-31.5l-1.7,3l91.2,31.7C4429.6,813.9,4443,832.7,4443,850.2z"/>

			<rect x="4328.7" y="761.9" transform="matrix(0.4957 -0.8685 0.8685 0.4957 1522.0973 4145.0952)" class="st14" width="3.1" height="0"/>
		<path class="st14" d="M4446.8,835.5l9.1,83.8c0.7,6.2,1.8,13.6,3.3,21.4l3.3,0.9c-1.5-8.2-2.8-16.1-3.5-22.6l-9.1-83.8
			c-2-18.5-17.9-38.8-35.4-45.1c-3.2-1.2-43.7-15.8-83.4-29.5l-1.5,2.7c31.4,10.8,64.8,22.7,83.9,29.7
			C4429.9,798.9,4444.9,818,4446.8,835.5z"/>

			<rect x="4336.4" y="748.8" transform="matrix(0.4957 -0.8685 0.8685 0.4957 1537.2578 4144.9883)" class="st14" width="2.8" height="0"/>
		<path class="st14" d="M4450.5,820.4l18.7,86.1c2.3,10.7,5.7,25.4,9,39.2l3,0.8c-3.4-14.2-7-29.6-9.4-40.6l-18.7-86.1
			c-3.9-18.1-21.2-38.2-38.5-44.8c-2.8-1.1-39.4-15-76.2-27.4l-1.4,2.4c37.8,12.8,75.9,27.3,76.6,27.6
			C4430.2,783.9,4446.7,803.1,4450.5,820.4z"/>

			<rect x="4344" y="735.7" transform="matrix(0.4957 -0.8685 0.8685 0.4957 1552.4944 4144.9238)" class="st14" width="2.5" height="0"/>
		<path class="st14" d="M4456.1,804.2c-5.7-17.5-24.2-37.4-41.3-44.3c-2.4-1-35-14.1-69-25.3l-1.2,2.2c35,11.5,68.7,25.1,69.3,25.3
			c16.5,6.7,34.4,25.9,39.9,42.9l28.8,89c4.9,15.3,11.2,39.3,14.9,57l2.6,0.7c-3.7-17.8-10.2-42.7-15.2-58.4L4456.1,804.2z"/>

			<rect x="4351.7" y="722.6" transform="matrix(0.4957 -0.8685 0.8685 0.4957 1567.6321 4144.8228)" class="st14" width="2.1" height="0"/>
		<path class="st14" d="M4458.8,788.5c-7.2-16.9-26.8-36.6-43.6-43.9c-0.5-0.2-29.5-12.8-62-22.8l-1,1.8
			c32.5,10,61.7,22.7,62.2,22.9c16.4,7.2,35.5,26.4,42.5,42.9l39.6,92.4c6.6,15.3,13.4,40.4,16.1,58.3l1.8-1.7
			c-2.8-17.9-9.6-42.3-16-57.4L4458.8,788.5z"/>
		<path class="st14" d="M4364.1,709.7l-3.2,0.9c0,0,0,0,0,0L4364.1,709.7C4364.1,709.7,4364.1,709.7,4364.1,709.7z"/>
		<path class="st14" d="M4461.1,772.6c-8.6-16.1-28.9-35.8-45.3-43.8c-0.2-0.1-16.7-8.1-39.4-15.5c-3.8-1.2-7.9-2.5-12.2-3.7
			l-3.2,0.9c5.3,1.4,10.3,3,14.9,4.4c22.7,7.3,39.1,15.3,39.2,15.4c16.2,7.9,36.2,27.2,44.6,43l51,96c7.8,14.6,14.6,39,16.2,56.8
			l1.6-1.5c-1.8-17.9-8.6-41.7-16.3-56.1L4461.1,772.6z"/>
	</g>
	<rect x="4653.3" y="840.8" class="st22" width="445" height="62"/>
	<text transform="matrix(1 0 0 1 4653.3071 893.5959)" class="st15" style="font-family:'Inter-Regular'; font-size:61.1484;">AI and robotics</text>
	<rect x="4653.3" y="752.8" class="st22" width="392.5" height="88.2"/>
	<text transform="matrix(1.0131 0 0 1 4653.3052 805.6272)" class="st15" style="font-family:'Inter-Bold'; font-size:61.1484;">SC4</text>
	<linearGradient id="SVGID_5_" gradientUnits="userSpaceOnUse" x1="4557.7363" y1="1225.5685" x2="4276.9629" y2="1225.5685">
		<stop  offset="0" style="stop-color:#3B689B"/>
		<stop  offset="1" style="stop-color:#5BA1A9"/>
	</linearGradient>
	<polygon class="st16" points="4538.6,1129.3 4295.8,1130.1 4277,1200.2 4295.8,1270.4 4487.5,1321.8 4538.9,1270.4 4557.7,1200.2
		"/>
	<linearGradient id="SVGID_6_" gradientUnits="userSpaceOnUse" x1="4276.9629" y1="1202.2905" x2="4557.7329" y2="1202.2905">
		<stop  offset="0" style="stop-color:#3B689B"/>
		<stop  offset="1" style="stop-color:#5BA1A9"/>
	</linearGradient>
	<polygon class="st17" points="4347.2,1323.1 4295.8,1270.4 4277,1200.2 4295.8,1130.1 4345.4,1080.4 4417.3,1059.9 4557.7,1201
		4417.3,1344.7 	"/>
	<g>
		<path class="st14" d="M4331,1183.8c18.6,2.6,47-1.3,84.2-11.8c27.7-7.8,50.2-16.4,50.4-16.5c9.5-3.7,17.5-11.1,22.6-20.4
			c0.5-1.4,1.1-3.3,1.9-5.6l-3,0c-4.6,10.4-12.8,19-22.8,22.8c-0.9,0.3-89.6,34.3-133,28.1c-14.4-2.1-31.8-1.2-49.5,1.1l-1,3.5
			C4299,1182.7,4316.5,1181.7,4331,1183.8z"/>
		<path class="st14" d="M4323.4,1189.1c4.5,0.6,9.8,0.9,15.7,0.9c40.3,0,106.7-13,107.4-13.2c18-3.6,37.2-20.8,42.6-38.4
			c0-0.2,1.1-3.6,3-9l-1,0c-0.8,1.9-1.7,3.8-2.7,5.6c-0.5,1.5-0.8,2.5-0.9,2.8c-5.3,17-23.8,33.7-41.3,37.2
			c-0.9,0.2-87.6,17.2-122.6,12.3c-11.5-1.6-27.2-0.5-43.8,2.1l-0.5,1.8C4296.1,1188.7,4311.9,1187.4,4323.4,1189.1z"/>
		<path class="st14" d="M4488.4,1135.1c1-1.8,1.9-3.7,2.7-5.6l-0.8,0C4489.4,1131.8,4488.8,1133.7,4488.4,1135.1z"/>
		<path class="st14" d="M4315.6,1195.2c26.4,3.8,112.1,3,112.9,3c18.4-0.2,40.4-13.5,49.1-29.7c0.2-0.4,9.7-18.2,21.8-39l-2,0
			c-11.4,19.7-20.4,36.6-21.3,38.2c-8.4,15.7-29.7,28.7-47.6,28.8c-0.9,0-86.5,0.7-112.7-3c-8.7-1.2-22.5,0.2-37.8,2.9l-0.5,1.9
			C4293,1195.5,4307,1193.9,4315.6,1195.2z"/>
		<path class="st14" d="M4307.7,1202.1c22.9,2.4,103,18.1,103.8,18.2c18.4,3.4,42.2-6.3,53-21.6c11.1-15.7,31.5-44.2,50.2-69.3
			l-4.3,0c-23.1,31-47,64.8-48.8,67.3c-10.1,14.3-32.4,23.4-49.6,20.3c-0.8-0.2-81-15.9-104.1-18.3c-6.9-0.7-18,0.7-30.7,3.1
			l0.9,3.3C4290.5,1202.8,4301.3,1201.4,4307.7,1202.1z"/>
		<path class="st14" d="M4393,1239.7c1.1,0.6,2,1.1,2.8,1.5c3.6,1.9,8.2,2.8,13.3,2.8c13.9,0,31.3-6.6,39.8-16.6
			c18.9-22.3,56.7-66.8,83.9-98.2l-2.3,0c-33.2,38.3-80,93.5-82.9,97c-11.1,13.1-38.2,20.2-50.9,13.4c-0.8-0.4-1.7-0.9-2.8-1.5
			c-15.6-8.6-63.3-34.6-93.8-32.5c-5.6,0.4-12.8,1.6-20.8,3.2l0.4,1.6c7.9-1.6,15-2.8,20.5-3.1
			C4330.2,1205.3,4377.5,1231.2,4393,1239.7z"/>
		<path class="st14" d="M4333.5,1223l50.3,29.4l19.3,7c2.8,0.4,5.6,0.7,8.4,0.7c11.2,0,22.3-3.4,29.7-11.1l101.3-105.7l-1-3.8
			l-102.7,107.1c-9.9,10.4-32.7,14.5-50.8,4.2l-52.6-30.8c-14-8-37.2-6.3-53.7-3l0.9,3.3c7.2-1.4,14.7-2.3,21.6-2.6
			C4316.6,1217.3,4326.8,1219.1,4333.5,1223z"/>
		<path class="st14" d="M4339.8,1238.2l64.8,23.6c4.7,1.7,10,2.5,15.3,2.5c14.3,0,29.7-5.8,38.7-15.6c3.2-3.4,51.1-55.3,86.3-95.8
			l-0.5-2c-28.7,33-67.2,75.1-87,96.6c-12.1,13.1-35.5,18.7-52.3,12.6l-2.1-0.8c-6.2-0.9-12-2.9-16.9-5.6l-2.4-1.4l-43.4-15.8
			c-14.7-5.4-37.7-7.6-55.2-5.9l0.4,1.7C4302.8,1230.7,4325.4,1232.9,4339.8,1238.2z"/>
		<path class="st14" d="M4386.1,1253.8c4.9,2.8,10.7,4.7,16.9,5.6l-19.3-7L4386.1,1253.8z"/>
		<path class="st14" d="M4351.4,1256.7c0.5,0.1,55.1,13,72.7,16.3c2.2,0.4,4.5,0.6,6.8,0.6c17.2,0,36.7-10.7,47.3-22.7
			c0.3-0.3,26.2-29.7,52.1-61.3c6.8-8.3,12.9-15.9,18.4-22.9l-1.1-4.1c-5.7,7.3-12.3,15.5-19.9,24.8c-25.9,31.5-51.8,60.9-52.1,61.2
			c-11.4,12.9-33.5,24.3-50.9,21c-17.5-3.3-72-16.1-72.6-16.3c-16.7-3.1-43.3-4.1-61.5-2.3l0.9,3.3
			C4309.4,1252.7,4335.2,1253.6,4351.4,1256.7z"/>
		<path class="st14" d="M4358.9,1278.5l79,2.5c0.5,0,0.9,0,1.4,0c18.4,0,42.2-10.9,53.8-24.8c2.2-2.5,34.2-39.1,59.6-74.6l-1.2-4.3
			c-26.1,36.7-60.5,76-61,76.6c-11.3,13.6-34.9,24.1-52.5,23.6l-79-2.5c-15.9-0.5-40.5-0.4-58.6,0.1l3.2,3.3
			C4321.3,1278.1,4344,1278,4358.9,1278.5z"/>
		<path class="st14" d="M4369.1,1292.2l89.2-7.8c18.2-1.9,42.1-15.3,53.3-29.8c0.4-0.5,23.9-29.3,44.2-61.5l-0.6-2.2
			c-20.5,32.6-44.6,62.2-45,62.7c-10.9,14.2-34.3,27.3-52.2,29.1l-89.2,7.8c-13.9,1.5-34.5,2.3-51.5,2.1l1.7,1.7c0.8,0,1.6,0,2.4,0
			C4337.7,1294.3,4356.3,1293.6,4369.1,1292.2z"/>
		<path class="st14" d="M4528.2,1251.9c-10.1,14.6-32.4,29.7-49.7,33.6l-99.5,20.9c-12,2.7-29.2,4-44.5,3.7l3.4,3.4c0.5,0,1,0,1.5,0
			c14.3,0,29.5-1.3,40.4-3.8l99.5-20.9c18-4.1,41.2-19.8,51.7-34.9c0.1-0.1,9.4-12.2,20.4-29.8l3.1-11.8
			C4541.1,1235.1,4528.4,1251.6,4528.2,1251.9z"/>
	</g>
	<rect x="4653.3" y="1195" class="st22" width="675" height="68"/>
	<text transform="matrix(1 0 0 1 4653.3071 1247.8142)" class="st15" style="font-family:'Inter-Regular'; font-size:61.1484;">Medical data platform</text>
	<rect x="4653.3" y="1114.9" class="st22" width="392.5" height="88.2"/>
	<text transform="matrix(1.0131 0 0 1 4653.3052 1167.738)" class="st15" style="font-family:'Inter-Bold'; font-size:61.1484;">SC5</text>

		<linearGradient id="SVGID_7_" gradientUnits="userSpaceOnUse" x1="3565.8638" y1="820.326" x2="3284.9197" y2="820.326" gradientTransform="matrix(0.5075 0.8616 -0.8616 0.5075 3363.4775 -1799.278)">
		<stop  offset="0" style="stop-color:#004A97"/>
		<stop  offset="0.9998" style="stop-color:#01A3AB"/>
	</linearGradient>
	<polygon class="st18" points="4485.7,1678.2 4539.7,1623.9 4345.9,1434.5 4295,1484.9 4346.7,1676.1 4416.9,1697.7 	"/>
	<linearGradient id="SVGID_8_" gradientUnits="userSpaceOnUse" x1="4294.958" y1="1565.1593" x2="4557.2681" y2="1565.1593">
		<stop  offset="0" style="stop-color:#004A97"/>
		<stop  offset="0.9998" style="stop-color:#01A3AB"/>
	</linearGradient>
	<polygon class="st19" points="4486.5,1432.6 4557.3,1553.8 4485.7,1678.2 4416.9,1697.7 4346.7,1676.1 4295,1484.9 	"/>
	<g>
		<path class="st14" d="M4447.9,1651.5c0.8,2.3,1.7,4.8,2.6,7.3c0.4,0.6,0.8,1.1,1.3,1.6c0.2,0.2,7.9,9.8,15.5,23l1.8-0.5
			c-7.5-13.1-15.2-22.7-16-23.5C4451.1,1657,4449.4,1654.3,4447.9,1651.5z"/>
		<path class="st14" d="M4473.3,1543.6c-18,27.7-30.1,55.7-30.2,56c-3.8,8.8-4.8,19.7-3.4,30.4c0,0.1,0,0.1,0.1,0.2
			c0.2,0.6,1.4,3.4,3.1,7.8c-3.2-12.7-2.8-26.9,1.8-37.7c0.4-1,36.1-83.6,77.7-106.2l-0.9-1.5
			C4506.2,1500.8,4490,1517.9,4473.3,1543.6z"/>
		<path class="st14" d="M4445.5,1650.4c-1.4-3.8-2.6-7.1-3.7-10C4442.8,1643.9,4444,1647.2,4445.5,1650.4z"/>
		<path class="st14" d="M4442.8,1638c1.2,4.8,2.9,9.4,5,13.5C4446,1646.2,4444.2,1641.5,4442.8,1638z"/>
		<path class="st14" d="M4445.5,1650.4c3.6,10.1,8,23,11.4,35.9l1.8-0.5c-2.5-9.4-5.5-18.7-8.3-27
			C4448.6,1656.2,4446.9,1653.4,4445.5,1650.4z"/>
		<path class="st14" d="M4443.7,1567.7c-6.6,10.2-10.1,24.8-10.1,38.8c1.2,6,2.9,15,4.9,25.6c0.6,1.5,1.8,4.4,3.2,8.2
			c-1-3.4-1.7-6.9-2.1-10.4c-7.3-17.8-4.8-45.2,5.6-61.3c0.5-0.7,38-58.3,73.2-81.4l-1-1.7
			C4482.3,1508.6,4445.7,1564.7,4443.7,1567.7z"/>
		<path class="st14" d="M4445.5,1650.4c1.4,3,3.1,5.9,5,8.4c-0.9-2.5-1.7-5-2.6-7.3c-2.2-4.1-3.9-8.7-5-13.5
			c-1.7-4.4-2.9-7.2-3.1-7.8c0-0.1,0-0.1-0.1-0.2c0.4,3.5,1.1,7,2.1,10.4C4442.9,1643.2,4444.1,1646.6,4445.5,1650.4z"/>
		<path class="st14" d="M4438,1630.9c-2.9-7-4.3-15.6-4.4-24.4c-0.8-4.1-1.4-6.8-1.5-7.4c-3.9-18.8,3.9-45.3,17.3-59.1
			c0.5-0.5,35.1-39.2,65-59.6l-1-1.8c-29.8,20.2-63.5,57.9-65.4,60c-10.1,10.4-17.1,27.7-18.5,43.9c0.4,5.7,0.9,12.8,1.5,20.6
			c2.5,12.4,10.5,53.6,14.5,86.4l2-0.6c-2.2-18.6-5.8-39.7-8.9-56.8C4438.2,1631.4,4438.1,1631,4438,1630.9z"/>
		<path class="st14" d="M4438,1630.9c0,0.1,0.2,0.5,0.5,1.2c-1.9-10.6-3.7-19.7-4.9-25.6C4433.7,1615.3,4435.1,1623.9,4438,1630.9z"
			/>
		<path class="st14" d="M4430.2,1599.5c-1.1-5.2-1.3-11-0.7-17c-0.6-8.5-1.1-14.1-1.2-15.2c-1.5-19.1,10.3-43.2,26.3-53.7
			c0.4-0.3,28.7-21.5,56.7-38.4l-1.1-1.9c-28.2,17-56.5,38.2-56.9,38.5c-11.6,7.7-21.1,22.3-25.2,37.2c-0.4,8.9-0.9,18.2-1.3,27.7
			c2.6,34.2,5.9,83.3,6.9,116.2l2.2-0.6c-0.8-26.7-3.1-62.6-4.9-89.1C4430.5,1600.9,4430.2,1599.6,4430.2,1599.5z"/>
		<path class="st14" d="M4430.2,1599.5c0,0.1,0.3,1.4,0.7,3.7c-0.5-7.9-1.1-14.9-1.5-20.6
			C4428.9,1588.5,4429.1,1594.3,4430.2,1599.5z"/>
		<path class="st14" d="M4426.1,1567.5c-0.5-5.9,0.3-12.2,2-18.5c0.2-5,0.5-9.8,0.7-14.5c1-18.9,16.3-39.5,34.1-45.9l46.5-16.6
			l-1.6-2.7l-34.3,12.3l-26.6,14.9c-2,1.1-3.9,2.4-5.8,3.9c-8.7,9.6-14.6,22.1-15.3,34c-0.7,14.2-5.5,106.9-5.9,162.5l3.1-0.9
			c0.3-31.7,2-77.2,3.9-119.3C4426.6,1573.4,4426.4,1570.4,4426.1,1567.5z"/>
		<path class="st14" d="M4426.1,1567.5c0.2,2.9,0.5,6,0.7,9.1c0.4-9.5,0.9-18.8,1.3-27.7C4426.4,1555.2,4425.7,1561.6,4426.1,1567.5
			z"/>
		<path class="st14" d="M4429.6,1506.6c-0.2,0.2-0.4,0.3-0.6,0.5c-9.6,11.6-16.3,26.8-16.7,40.2c-0.2,5.1-2.8,94.8,0.9,149.2
			l3.7,1.1l0,0c-1-14.9-1.8-35.5-2-63.8c-0.3-43.9,1-86,1-86.4c0.5-16.6,11.3-36.3,25.2-47.1c6-6.6,13.2-11.9,20.9-14.6l11.6-4.2
			l31.3-17.5l-1.8-3.1l-52.1,29.1L4429.6,1506.6z"/>
		<path class="st14" d="M4441.1,1500.3c1.9-1.5,3.9-2.8,5.8-3.9l26.6-14.9l-11.6,4.2C4454.3,1488.4,4447,1493.7,4441.1,1500.3z"/>
		<path class="st14" d="M4427,1503.3c-15.8,12.3-28.7,38.7-28.8,58.7c0,4.3,0,80.9,7.6,132.2l4.4,1.4c-7.9-51.5-7.9-132.5-7.9-133.6
			c0-18.7,11.9-43.1,26.6-55c4.8-5.8,10.3-10.6,16.1-13.9l5.8-3.2l45.7-35.6c0.6-0.5,1.2-0.9,1.8-1.4l-2.1-3.7
			c-0.8,0.6-1.5,1.2-2.2,1.7L4427,1503.3z"/>
		<path class="st14" d="M4450.9,1490l-5.8,3.2c-5.8,3.2-11.3,8.1-16.1,13.9c0.2-0.2,0.4-0.3,0.6-0.5L4450.9,1490z"/>
		<path class="st14" d="M4473.6,1445.2l-66.7,68.5c-14,14.4-24.8,42.4-24,62.4c0,0.3,1.1,29.9,5.3,63.8c2.5,19.9,5.4,37.2,8.8,51.6
			l5.3,1.6c-12-48.7-14.6-116.3-14.7-117.2c-0.7-18.9,9.5-45.3,22.7-58.9l66.7-68.5c3.4-3.5,7.5-7.5,12-11.7l-2.5-4.2
			C4481.7,1437.1,4477.3,1441.4,4473.6,1445.2z"/>
		<path class="st14" d="M4373.3,1589.6c-1.7-18.8,6.3-46.4,17.8-61.4l66.2-86.4c0.4-0.6,0.9-1.1,1.3-1.7l-8.5,2.3l-63.3,82.6
			c-12.2,15.9-20.7,45.1-18.9,65.1c0,0.2,2.2,23.6,8.1,52.5c3.5,17.2,7.6,32.6,12.1,46.2l6.3,1.9
			C4378.5,1644.5,4373.4,1590.4,4373.3,1589.6z"/>
	</g>
	<rect x="4653.3" y="1560.5" class="st22" width="633.6" height="65"/>
	<text transform="matrix(1 0 0 1 4653.3062 1613.3513)" class="st15" style="font-family:'Inter-Regular'; font-size:61.1484;">Interactive workflows</text>
	<rect x="4653.3" y="1478.2" class="st22" width="392.5" height="88.2"/>
	<text transform="matrix(1.0131 0 0 1 4653.3062 1531.0603)" class="st15" style="font-family:'Inter-Bold'; font-size:61.1484;">SC6</text>
	<g>
		<linearGradient id="SVGID_9_" gradientUnits="userSpaceOnUse" x1="3173.2937" y1="810.0707" x2="2893.24" y2="810.0707">
			<stop  offset="0" style="stop-color:#DE8124"/>
			<stop  offset="1" style="stop-color:#FFC701"/>
		</linearGradient>
		<polygon class="st20" points="3032.2,681.5 2962.1,700.7 2893.2,818.1 3104.4,938.6 3155.2,887.6 3173.3,819.1 		"/>
		<linearGradient id="SVGID_10_" gradientUnits="userSpaceOnUse" x1="2893.24" y1="828.0164" x2="3173.2937" y2="828.0164">
			<stop  offset="0" style="stop-color:#DE8124"/>
			<stop  offset="1" style="stop-color:#FFC701"/>
		</linearGradient>
		<polygon class="st21" points="3103.2,695.5 2912.1,750 2893.2,818.1 3033.6,960.6 3104.4,938.6 3155.2,887.6 3173.3,819.1
			3154.8,746.6 		"/>
	</g>
	<g>

			<rect x="2944.4" y="869.9" transform="matrix(0.6725 -0.7401 0.7401 0.6725 320.4432 2464.1885)" class="st22" width="0" height="0.3"/>
		<linearGradient id="SVGID_11_" gradientUnits="userSpaceOnUse" x1="2893.24" y1="818.6988" x2="3173.2937" y2="818.6988">
			<stop  offset="0" style="stop-color:#DE8124"/>
			<stop  offset="1" style="stop-color:#FFC701"/>
		</linearGradient>
		<rect x="2893" y="818.7" class="st23" width="1.7" height="0"/>
		<path class="st22" d="M2943.5,870.8c0.3-0.2,0.7-0.4,1-0.7l-0.2-0.2C2944.1,870.2,2943.8,870.5,2943.5,870.8z"/>
		<linearGradient id="SVGID_12_" gradientUnits="userSpaceOnUse" x1="2893.24" y1="870.0433" x2="3173.2937" y2="870.0433">
			<stop  offset="0" style="stop-color:#DE8124"/>
			<stop  offset="1" style="stop-color:#FFC701"/>
		</linearGradient>
		<polygon class="st24" points="2944.3,869.9 2944.5,870.1 2944.5,870.1 2944.3,869.9 		"/>

			<rect x="3139" y="902.1" transform="matrix(-0.7053 0.7089 -0.7089 -0.7053 5995.335 -688.0688)" class="st14" width="3.4" height="0"/>
		<path class="st14" d="M2951.8,877.5l2.8,2.8c0,0,0,0,0,0L2951.8,877.5C2951.8,877.5,2951.8,877.5,2951.8,877.5z"/>
		<path class="st14" d="M3134.4,893.1c-15.6-20.6-50.8-29.5-104.7-26.5c-39.8,2.2-75.6,10.4-76,10.5c-0.6,0.1-1.3,0.3-1.9,0.5
			l2.8,2.8c1.8-0.4,36.6-8.3,75.3-10.4c36.2-2,83.3,0.8,101.8,25.2c2.3,3.1,4.9,5.8,7.8,8.2l2.4-2.4
			C3139.1,898.6,3136.6,896,3134.4,893.1z"/>
		<polygon class="st14" points="2944.5,870.1 2946.6,872.3 2946.7,872.3 2944.5,870.1 		"/>

			<rect x="3148" y="893.3" transform="matrix(-0.7053 0.7089 -0.7089 -0.7053 6004.0801 -709.3831)" class="st14" width="3" height="0"/>
		<path class="st14" d="M3145.7,887.1c-29.5-38.9-155.1-32.2-160.4-31.9c-13.1,0.8-28,6.5-40.8,14.9l2.1,2.2
			c12.2-7.9,26.3-13.3,38.8-14c0.3,0,32.8-1.8,68.4,1.1c46.8,3.9,77.7,14.1,89.5,29.6c1.5,2,3.2,3.8,5.1,5.4l2.1-2.1
			C3148.7,890.7,3147.1,889,3145.7,887.1z"/>

			<rect x="2943.3" y="867.5" transform="matrix(0.7643 -0.6449 0.6449 0.7643 133.4248 2102.8809)" class="st14" width="0" height="2.8"/>
		<path class="st14" d="M3016.6,838.6c-16.6-2.4-37.3,2.6-53.8,11.9c-5.5,4.7-12.5,10.6-20.5,17.4l2,2c1.4-1.5,2.3-2.5,2.6-2.9
			c15.4-17,46.5-28.3,69.3-25c1.1,0.1,114.4,11.3,135.7,39.4c1.1,1.4,2.4,2.7,3.8,3.9l1-3.7c-0.8-0.7-1.5-1.5-2.1-2.3
			C3132.5,850.1,3021.3,839.1,3016.6,838.6z"/>

			<rect x="2941.2" y="865.7" transform="matrix(0.762 -0.6475 0.6475 0.762 138.6357 2110.7942)" class="st14" width="0" height="2.1"/>
		<path class="st14" d="M2944.4,864.8c4.9-5.4,11.2-10.2,18.4-14.2c6.7-5.7,11-9.4,11.9-10.2c17.5-15,49.3-20.7,70.9-12.6
			c0.7,0.2,62.9,19.3,102.3,39l-14-9.5c-38.6-17.1-86.9-31.9-87.5-32.1c-15.9-5.9-37.2-4.7-54.7,2.2c-8.5,5.6-17.3,11.4-26.2,17.3
			c-7.6,6.5-16.2,13.8-25.1,21.3l1.4,1.5C2943.5,865.8,2944.4,864.8,2944.4,864.8z"/>
		<path class="st14" d="M3159.8,870.1L3159.8,870.1c-0.9-0.5-1.8-1-2.7-1.5C3158,869.1,3158.9,869.6,3159.8,870.1z"/>

			<rect x="2942.1" y="867.4" transform="matrix(0.6725 -0.7401 0.7401 0.6725 321.4148 2461.7285)" class="st14" width="0" height="0.6"/>
		<path class="st14" d="M2944.4,864.8c-0.1,0.1-1,1.1-2.5,2.7l0.4,0.4c8-6.7,15-12.7,20.5-17.4
			C2955.7,854.6,2949.3,859.4,2944.4,864.8z"/>
		<polygon class="st14" points="2935.3,860.8 2937.8,863.3 2937.8,863.3 2935.3,860.8 		"/>
		<path class="st14" d="M2973,838.3c5.2-4.5,11.7-8.2,18.8-10.9c5.2-3.4,10.3-6.8,15.2-10c19.1-12.5,50.1-12.2,69,0.6l58,39.3
			c8.3,3.7,16.2,7.5,23.1,11.3c-1.8-1.1-3.6-2.2-5.2-3.3l-65.9-44.7l-28.7-13.2c-1.2-0.5-2.4-1-3.7-1.5c-16.8-2.8-35.2,0.1-48.4,8.7
			c-7.4,4.9-36.2,23.7-69.8,46.2l2.4,2.5c9.3-6.2,18.7-12.5,27.8-18.6C2968.2,842.5,2970.7,840.4,2973,838.3z"/>
		<path class="st14" d="M3148,866.7l2,1.3c2.7,1.8,5.7,3.6,9,5.4l0.2-0.7C3155.7,870.7,3152,868.7,3148,866.7z"/>
		<path class="st14" d="M2965.6,844.7c8.9-5.9,17.7-11.7,26.2-17.3c-7.1,2.8-13.6,6.5-18.8,10.9
			C2970.7,840.4,2968.2,842.5,2965.6,844.7z"/>
		<path class="st14" d="M3148,866.7c4,2,7.7,4,11.1,6l0.7-2.6c-0.9-0.5-1.8-1-2.7-1.5c-6.9-3.8-14.7-7.6-23.1-11.3L3148,866.7z"/>

			<rect x="2925.6" y="852.5" transform="matrix(-0.7019 -0.7123 0.7123 -0.7019 4374.3403 3535.8386)" class="st14" width="3.1" height="0"/>
		<path class="st14" d="M3058.4,804.7c-1.3-0.6-2.7-1.2-4.1-1.7l-8.7-2.5c-20.7-4.4-46.3-0.5-62.4,10.6
			c-2.6,1.8-27.1,18.6-57.1,40.3l2.2,2.2c31-22.4,56-39.5,56.7-40c17.9-12.3,47.8-15.4,68.7-7.7c9,1.5,17.4,4.6,24.4,9.3l8,5.4
			l56.3,25.8c6.2,2.8,13.6,5.7,21.6,8.4l0.8-2.9c-7.8-2.7-15.1-5.5-21.2-8.3L3058.4,804.7z"/>
		<path class="st14" d="M3085.9,820.6l-8-5.4c-6.9-4.7-15.4-7.8-24.4-9.3c1.3,0.5,2.5,1,3.7,1.5L3085.9,820.6z"/>

			<rect x="2915.4" y="842.2" transform="matrix(-0.7018 -0.7123 0.7123 -0.7018 4364.2803 3511.1104)" class="st14" width="3.1" height="0"/>
		<path class="st14" d="M3134.2,822.6l-98.4-28c-23-6.5-57.3-0.4-76.6,13.6c-2,1.5-20.1,14.7-43.2,32.8l2.2,2.2
			c23.9-18.8,42.3-32.2,42.8-32.6c18.6-13.6,51.9-19.5,74-13.2l10.7,3c3,0.6,6,1.5,8.7,2.5l79,22.5c9.9,2.8,22.7,6.2,35.8,9.4
			l0.8-2.9C3156.8,828.8,3144.1,825.4,3134.2,822.6z"/>
		<path class="st14" d="M3045.6,800.5l8.7,2.5C3051.6,802,3048.6,801.2,3045.6,800.5z"/>

			<rect x="3168.9" y="809.2" transform="matrix(0.2467 0.9691 -0.9691 0.2467 3172.802 -2463.2053)" class="st14" width="3.8" height="0"/>

			<rect x="2903.5" y="830.2" transform="matrix(-0.7018 -0.7123 0.7123 -0.7018 4352.8018 3482.3423)" class="st14" width="3.4" height="0"/>
		<path class="st14" d="M3011,786l114,16.1c12.8,1.8,29.8,5.1,46.3,8.9l-0.9-3.7c-16-3.6-32.4-6.8-44.9-8.6l-114-16.1
			c-23.6-3.3-58.1,6-76.9,20.7c-0.2,0.1-13.1,10.3-30.7,25.6l2.4,2.4c17.3-15.1,30-25.1,30.3-25.4
			C2954.9,791.8,2988.2,782.8,3011,786z"/>
		<polygon class="st14" points="2893.2,818.1 2893.2,818.1 2893.2,818.1 2893.2,818.1 		"/>
		<rect x="2894.1" y="811.6" class="st14" width="0" height="6.5"/>
		<polygon class="st14" points="2893.2,818.1 2893.2,818.1 2893.2,818.1 		"/>

			<rect x="3160.5" y="782.9" transform="matrix(0.2467 0.9691 -0.9691 0.2467 3142.2639 -2476.5361)" class="st14" width="7.2" height="0"/>
		<path class="st14" d="M2893.2,818.1L2893.2,818.1L2893.2,818.1L2893.2,818.1L2893.2,818.1l1.2,1.2l0,0l1,1c0,0,0,0,0,0
			L2893.2,818.1L2893.2,818.1z"/>
		<path class="st14" d="M2986.3,776.5l131.1,2.9c13.3,0.3,31,3,47.6,7l-1.8-7c-16.1-3.7-32.8-6.1-45.7-6.4l-131.1-2.9
			c-24.1-0.5-58.6,12-76.7,27.9c-0.1,0.1-5.9,5.2-14.8,13.8l-1.7,6.3l2.2,2.2c10.9-10.7,18.3-17.3,18.5-17.5
			C2931.1,787.8,2963.5,775.9,2986.3,776.5z"/>
	</g>
	<rect x="3224.7" y="828.4" class="st22" width="392.5" height="60.5"/>
	<text transform="matrix(1.0131 0 0 1 3224.7249 881.2286)" class="st15" style="font-family:'Inter-Regular'; font-size:61.1484;">Shared data  </text>
	<rect x="3224.7" y="747" class="st22" width="392.5" height="88.2"/>
	<text transform="matrix(1.0131 0 0 1 3224.7249 799.7882)" class="st15" style="font-family:'Inter-Bold'; font-size:61.1484;">SC1</text>
	<g>
		<linearGradient id="SVGID_13_" gradientUnits="userSpaceOnUse" x1="3152.1292" y1="1165.8837" x2="2890.1665" y2="1165.8837">
			<stop  offset="0" style="stop-color:#EF3824"/>
			<stop  offset="1" style="stop-color:#DE8124"/>
		</linearGradient>
		<polygon class="st25" points="2890.2,1261.8 3081.9,1070 3133.3,1121.4 3152.1,1191.6 3133.3,1261.8 		"/>
		<linearGradient id="SVGID_14_" gradientUnits="userSpaceOnUse" x1="2871.3557" y1="1200.9806" x2="3133.3162" y2="1200.9806">
			<stop  offset="0" style="stop-color:#EF3824"/>
			<stop  offset="1" style="stop-color:#DE8124"/>
		</linearGradient>
		<polygon class="st26" points="3081.9,1313.2 3011.7,1332 2941.5,1313.2 2890.2,1261.8 2871.4,1191.6 2890.2,1121.4 3081.9,1070
			3133.3,1121.4 		"/>
		<g>
			<linearGradient id="SVGID_15_" gradientUnits="userSpaceOnUse" x1="2871.356" y1="1090.7947" x2="3152.1292" y2="1090.7947">
				<stop  offset="0" style="stop-color:#EF3824"/>
				<stop  offset="1" style="stop-color:#DE8124"/>
			</linearGradient>
			<path class="st27" d="M3013.2,1088.5l-0.4,0.1c0.6,1.7,1.1,3.2,1.6,4.5C3014,1091.6,3013.6,1090.1,3013.2,1088.5z"/>
			<path class="st14" d="M2999.4,1137.3c9.6-9.2,14.5-23.9,13.7-37.8c0,0,0-0.1,0-0.1c-0.3-0.8-1.6-4.4-3.6-10l-1.6,0.4
				c4.7,15.1,0.4,34.2-10.9,44.9c-0.5,0.4-46.2,44-86,62.8c-10.5,5-21.5,12.5-32.4,21.2l1,3.6c11.1-9,22.3-16.7,32.8-21.7
				C2952.7,1181.7,2998.9,1137.7,2999.4,1137.3z"/>
			<path class="st14" d="M3001,1151.2c11.8-9.2,18.5-26.1,17.5-41.5c-1-3.8-2.4-9.5-4.2-16.5c-0.5-1.3-1-2.8-1.6-4.5l-1.6,0.4
				c1,3.4,1.7,6.9,1.9,10.5c5.9,16.3-0.4,38.3-14.1,48.9c-0.6,0.4-57.4,44.4-89.3,59.5c-8.6,4.1-18.5,11.1-28.7,19.5l1,3.6
				c10.4-8.7,20.5-15.9,29.2-20C2943.3,1195.8,3000.4,1151.6,3001,1151.2z"/>
			<path class="st14" d="M3013,1099.4c0,0,0,0.1,0,0.1c-0.2-3.6-0.8-7.2-1.9-10.5l-1.7,0.5C3011.4,1095.1,3012.7,1098.7,3013,1099.4
				z"/>
			<path class="st14" d="M3003.3,1165.3c15.8-10.2,24.7-33.3,19.9-51.4c-1.8-6.9-4.2-16-6.7-26.2l-3.3,0.9c0.4,1.6,0.8,3.1,1.1,4.6
				c1.1,3.2,1.8,5.1,1.9,5.1c1.3,3.6,2.1,7.4,2.3,11.4c0.8,3.1,1.3,5,1.3,5c4.5,16.9-3.8,38.3-18.4,47.7
				c-0.7,0.4-69.2,44.6-93.1,55.9c-6.1,2.9-14.5,8.9-25.1,17.8l1,3.6c9.9-8.4,18.9-15.2,25.5-18.3
				C2933.9,1210,3002.6,1165.7,3003.3,1165.3z"/>
			<path class="st14" d="M3016.2,1098.3c0-0.1-0.7-1.9-1.9-5.1c1.8,7,3.2,12.8,4.2,16.5C3018.3,1105.7,3017.5,1101.9,3016.2,1098.3z
				"/>
			<path class="st14" d="M3005.9,1179.6c16.5-9,27.2-31.4,23.8-49.9c-2.4-13.4-5.1-28.3-7.6-43.6l-3.3,0.9
				c3.6,21.3,6.7,38.4,7.6,43.3c3.1,17.2-6.8,37.9-22.1,46.3c-0.8,0.4-81.3,44.5-97.3,52.1c-4.5,2.1-12.3,8.2-21.4,16.1l1,3.7
				c9.4-8.2,17.4-14.6,21.9-16.7C2924.5,1224.1,3005.1,1180,3005.9,1179.6z"/>
			<path class="st14" d="M3008.9,1194.2c17-8,29.1-29.7,27-48.4c-2.1-18.7-4.5-40.3-6.8-61.6l-3.3,0.9c3.5,32.9,6.7,60.8,6.7,61.1
				c2,17.3-9.3,37.5-25.1,44.9c-0.9,0.4-93.8,44.1-101.8,47.9c-2.4,1.1-9.2,6.8-17.7,14.5l1,3.7c8.9-8,16-14,18.2-15.1
				C2915.1,1238.3,3008,1194.6,3008.9,1194.2z"/>
			<path class="st14" d="M3012.2,1209c17.4-7.1,30.7-28.1,29.6-46.9l-4.5-80.1l-3.4,0.9l4.4,79.3c1,17.4-11.4,37-27.5,43.6
				l-76.1,31.1c-12.9,5.3-30.3,15.7-43.8,25.8l2.4,2.4c13.2-9.9,30.1-19.9,42.7-25.1L3012.2,1209z"/>
			<path class="st14" d="M3027.4,1206.5c16.4-8.9,29.1-31.3,28.3-49.9c-0.1-3.1-1.7-39.9-3.9-78.4l-3,0.8
				c1.7,29.7,3.1,59.7,3.8,77.7c0.7,17.6-11.2,38.7-26.7,47.1l-74,40.2c-13.7,7.5-33.6,20.7-47.8,31.7l2.2,2.2
				c14-10.9,33.6-23.9,47.1-31.2L3027.4,1206.5z"/>
			<path class="st14" d="M3042.8,1203.6c15.3-10.5,27.3-34.1,26.8-52.6c-0.1-2.9-1.1-39.4-3.3-76.7l-2.7,0.7
				c2.3,38.1,3.3,75.4,3.3,76.1c0.5,17.7-11,40.3-25.6,50.3l-72.5,50c-14.4,9.9-37.2,26.3-51.8,37.1l1.9,1.9
				c14.6-10.9,37.2-27,51.4-36.8L3042.8,1203.6z"/>
			<path class="st14" d="M2987,1261l71.4-60.5c14.1-11.9,25.4-36.6,25.3-55c0-2.7-0.2-38.8-3-75.1l-2.4,0.6c2.7,37,3,73.8,3,74.5
				c0.1,17.8-10.9,41.7-24.5,53.2l-71.4,60.5c-13.8,11.7-37.3,29.2-52.5,39.1l-3.9,2.5l1.7,1.7l3.4-2.2
				C2949.5,1290.3,2973.1,1272.7,2987,1261z"/>
			<path class="st14" d="M3003.6,1268.7l70.4-71.7c12.8-13.1,23.7-38.7,24.1-57c0-0.5,0.5-25.8-1.6-55.4l-2.2-2.2
				c2.3,30.4,1.7,57,1.7,57.5c-0.4,17.9-11,42.8-23.5,55.6l-70.4,71.7c-12.6,12.9-35.7,30.5-51.5,39.2l-10.1,5.6l1.1,1.1l0.7,0.2
				l9.3-5.2C2967.5,1299.4,2990.8,1281.7,3003.6,1268.7z"/>
			<path class="st14" d="M3020.1,1276.8l69.4-83.7c11.7-14.1,22.1-40.3,23.3-58.6c0-0.3,0.8-14.3-0.2-33.8l-1.8-1.8
				c1.2,20.4,0.3,35.2,0.3,35.5c-1.1,17.9-11.4,43.8-22.9,57.6l-69.4,83.7c-11.5,13.9-34.2,31.2-50.6,38.7l-8.3,3.8l2.6,0.7l6.4-2.9
				C2985.5,1308.4,3008.5,1290.8,3020.1,1276.8z"/>
		</g>
	</g>
	<rect x="3213.7" y="1186.5" class="st22" width="392.5" height="65"/>

		<text transform="matrix(1.0131 0 0 1 3213.7124 1239.2694)" class="st15" style="font-family:'Inter-Regular'; font-size:61.1484;">Brain atlas </text>
	<rect x="3213.7" y="1105.4" class="st22" width="392.5" height="88.2"/>
	<text transform="matrix(1.0131 0 0 1 3213.7124 1158.1835)" class="st15" style="font-family:'Inter-Bold'; font-size:61.1484;">SC2</text>
	<g>
		<linearGradient id="SVGID_16_" gradientUnits="userSpaceOnUse" x1="2869.2659" y1="1529.9148" x2="3150.0347" y2="1529.9148">
			<stop  offset="0" style="stop-color:#EF3824"/>
			<stop  offset="1" style="stop-color:#DE8124"/>
		</linearGradient>
		<polygon class="st28" points="2869.3,1540 2887.7,1469.7 2938.9,1418.1 3008.9,1398.9 3150,1538.6 2939.5,1660.9 		"/>
		<linearGradient id="SVGID_17_" gradientUnits="userSpaceOnUse" x1="2887.7246" y1="1549.9503" x2="3150.0347" y2="1549.9503">
			<stop  offset="0" style="stop-color:#EB0029"/>
			<stop  offset="0.9998" style="stop-color:#EF3824"/>
		</linearGradient>
		<polygon class="st29" points="3079.2,1417.4 3150,1538.6 3078.4,1663 3009.7,1682.5 2939.5,1660.9 2887.7,1469.7 		"/>
		<g>
			<path class="st14" d="M3098.6,1540.5c3.3,0.8,6.7,1.3,10.1,1.3c6.9,0,13.8-1.7,20.3-4.7c2.8-2.1,7.9-5.8,14.2-10.1l-1.8-3
				c-11.1,11.4-27.8,17-41.9,13.3c-0.9-0.2-92.8-24.2-124.6-54.4c-15.1-14.4-38.7-27.5-62-38.4l-2.5,2.6
				c23.4,10.8,47.1,23.9,62.2,38.3C3004.9,1516.1,3094.8,1539.5,3098.6,1540.5z"/>
			<path class="st14" d="M3070.6,1546.6c6.3,2.9,13.9,4.2,21.6,4.2c12.8,0,26.2-3.7,35.3-10.7c0.2-0.2,6.8-5.2,16.5-11.8l-0.9-1.5
				c-4.2,4.2-9,7.6-14.2,10.1c-1.3,1-2.2,1.6-2.4,1.8c-14.2,10.8-39,13.6-55.2,6.3c-0.8-0.4-81.3-36.9-106.9-61.2
				c-12.2-11.6-34.8-23.4-57.4-33.5l-1.3,1.3c22.7,10.1,45.4,21.9,57.5,33.5C2989,1509.6,3069.8,1546.3,3070.6,1546.6z"/>
			<path class="st14" d="M3143.2,1526.9c0.1-0.1,0.1-0.1,0.2-0.2C3143.3,1526.8,3143.2,1526.8,3143.2,1526.9L3143.2,1526.9z"/>
			<path class="st14" d="M3128.9,1537c5.2-2.5,10.1-5.9,14.2-10.1l0,0C3136.8,1531.2,3131.8,1534.9,3128.9,1537z"/>
			<path class="st14" d="M3043.5,1553.6c8.8,6.2,21.2,9.4,33.2,9.4c8.6,0,17.1-1.7,24-5.1c0.5-0.2,22.6-11.2,47.5-22.3l-0.9-1.5
				c-24.1,10.8-45.6,21.4-47.4,22.3c-16,7.9-40.9,6.1-55.5-4.2c-0.7-0.5-70.8-49.7-90-67.9c-9.3-8.8-30.8-19.4-52.7-28.7l-1.3,1.3
				c22,9.4,43.8,20,52.9,28.6C2972.6,1503.9,3042.8,1553.1,3043.5,1553.6z"/>
			<path class="st14" d="M3016.8,1561.8c9.5,9.8,25.5,15.6,40.2,15.6c5.4,0,10.7-0.8,15.5-2.4c16-5.6,43.6-15,70.3-23.7l2.5-4.4
				c-35.3,11.4-71.1,23.9-73.9,24.9c-16.5,5.8-39.9,0.2-52.1-12.3c-0.6-0.6-56.7-60-74.1-75.3c-8.1-7.2-27.6-16.1-47.6-24.2
				l-2.6,2.6c20.1,8.1,40.1,17.2,48,24.1C2960.2,1501.9,3016.2,1561.2,3016.8,1561.8z"/>
			<path class="st14" d="M2990.5,1566.8c0.5,1.1,1,2.1,1.4,2.9c5.6,11.4,25.8,20.6,42.4,20.6c3.1,0,6.1-0.3,8.8-1
				c20.9-5.3,57.2-14.5,91-22.8l1.2-2c-43.4,10.7-89,22.3-92.6,23.2c-16.6,4.2-42.9-5.7-49.2-18.7c-0.4-0.8-0.9-1.8-1.4-2.9
				c-7.8-16.1-31.4-65-57.4-81c-9.5-5.9-26.2-13-42.8-19.4l-1.3,1.3c16.7,6.5,33.7,13.6,43.2,19.5
				C2959.3,1502.3,2982.8,1550.8,2990.5,1566.8z"/>
			<path class="st14" d="M3023.6,1599c-14.1,2.7-35-7.2-43.8-26.1l-24.9-55.7c-8.3-17.9-36.1-32-51.4-37.5l-16.9-5.6l-0.9,3.3
				l16.7,5.5c9.6,3.5,19.9,8.7,28.3,14.3c10.5,7,17.8,14.4,21,21.4l23.8,53.2l11.7,17c8.5,8.2,19.9,14.1,31.2,14.1
				c1.9,0,3.8-0.2,5.8-0.5l100.1-18.9l2.2-3.9L3023.6,1599z"/>
			<path class="st14" d="M2988.4,1590.5l-1.2-1.7c-4.5-4.4-8.2-9.4-10.5-14.5l-1.1-2.5l-26.1-38.1c-10.3-15.1-32.3-33.3-49-40.7
				l-16.8-7.4l-0.4,1.7l16.6,7.3c16.5,7.3,38.1,25.2,48.3,40.1l39,56.9c8.9,12.9,27,21.6,43.3,21.6c2.9,0,5.7-0.3,8.4-0.8
				c3.2-0.7,39.4-8.2,78.8-17l1.2-2c-30.8,6.9-61.5,13.4-80.3,17.3C3020.9,1614.2,2998.5,1605.2,2988.4,1590.5z"/>
			<path class="st14" d="M2987.2,1588.8l-11.7-17l1.1,2.5C2979.1,1579.4,2982.7,1584.4,2987.2,1588.8z"/>
			<path class="st14" d="M2998.9,1609.5c-12.4-12.8-49.2-54.9-49.6-55.4c-12.7-13.2-36.1-30.9-52.2-39.5l-18.5-9.9l-0.9,3.4
				l17.8,9.5c15.8,8.5,38.9,25.9,51.3,38.8c0.4,0.4,37.3,42.6,49.7,55.5c9.8,10.2,27,14.9,42.4,14.9c5.1,0,10-0.5,14.4-1.5
				c2.4-0.6,25.9-6,54.6-13.4l2.4-4.1c-31.3,8.1-57.4,14.1-57.8,14.2C3035.8,1625.8,3011.1,1622.2,2998.9,1609.5z"/>
			<path class="st14" d="M3005.1,1623.8l-62.8-47.9c-14.4-11-38.6-28-53.8-37.9l-15.9-10.4l-0.9,3.5l15,9.8
				c15.1,9.9,39.2,26.8,53.6,37.8l62.8,47.9c11.1,8.5,29,13.6,44.8,13.6c5.2,0,10.1-0.5,14.5-1.7c1.7-0.4,16.1-3.8,35.5-9.1l2.4-4.2
				c-21.9,6-38.3,9.9-38.8,10C3044.4,1639.5,3019.1,1634.5,3005.1,1623.8z"/>
			<path class="st14" d="M3018.5,1639.6l-77.1-45.5c-15.7-8.9-40-25.3-54.2-36.6l-14.4-11.5l2.3,4l11,8.7
				c14.2,11.3,38.6,27.8,54.4,36.7l77.1,45.5c10.6,6,26.3,9.4,40.7,9.4c7.2,0,14.1-0.8,20-2.6c0.2-0.1,4.2-1.1,10.7-3.1l1.2-2.1
				c-7.5,2.3-12.2,3.5-12.4,3.6C3060.7,1651.4,3034,1648.4,3018.5,1639.6z"/>
			<path class="st14" d="M3033.5,1653.7l-93.2-40.8c-13.5-5.6-31.8-17.2-45.1-28.1l4.6,7.9c12.5,9.4,27.6,18.5,39.1,23.3l93.2,40.8
				c9.3,3.9,21.7,5.9,34,5.9c4.4,0,8.8-0.3,13-0.8l2.1-3.7C3065.5,1660.7,3046.2,1659.1,3033.5,1653.7z"/>
		</g>
	</g>
	<rect x="3213.7" y="1541.6" class="st22" width="738.6" height="72.6"/>
	<text transform="matrix(1 0 0 1 3213.7124 1594.3953)" class="st15" style="font-family:'Inter-Regular'; font-size:61.1484;">Modelling and simulation</text>
	<rect x="3213.7" y="1462.8" class="st22" width="392.5" height="88.2"/>
	<text transform="matrix(1.0131 0 0 1 3213.7124 1515.6121)" class="st15" style="font-family:'Inter-Bold'; font-size:61.1484;">SC3</text>
	<g>
		<g>
			<path class="st2" d="M304.2,109.3H337v6.8h-24.9v16h23.2v6.8h-23.2v16h25.2v6.8h-33.1V109.3z"/>
			<path class="st2" d="M347.6,109.3h19.2c11.2,0,16.5,6,16.5,13.8c0,6.5-4,9.8-8.8,11v0.5c5.2,0.3,10.9,4.9,10.9,13
				c0,8-5.5,14.1-17.7,14.1h-20.1V109.3z M366.1,132c5.3,0,9.5-3.2,9.5-8.3c0-4.3-3-7.6-9.3-7.6h-10.8V132H366.1z M366.9,154.9
				c7.6,0,10.6-3.3,10.6-7.7c0-5-4-9.1-10.3-9.1h-11.7v16.8H366.9z"/>
			<path class="st2" d="M394.7,109.3h18.7c12.1,0,18.1,6.8,18.1,16.4c0,7-3.2,12.4-9.6,14.8l11.6,21.2h-9l-10.6-19.8
				c-0.2,0-0.3,0-0.5,0h-10.7v19.8h-7.9V109.3z M412.6,135.1c7.7,0,10.9-3.4,10.9-9.3c0-5.9-3.2-9.6-11-9.6h-9.9v19H412.6z"/>
			<path class="st2" d="M437.1,161.7l18.8-52.4h9.1l18.8,52.4h-8.4l-4.8-13.9h-20.5l-4.8,13.9H437.1z M468.5,141.2l-7.7-22.4h-0.4
				l-7.7,22.4H468.5z"/>
			<path class="st2" d="M499.4,161.7h-7.9v-52.4h7.9V161.7z"/>
			<path class="st2" d="M553.2,161.7h-7.3l-26.6-38.4h-0.5v38.4h-7.9v-52.4h7.3l26.6,38.5h0.5v-38.5h7.8V161.7z"/>
			<path class="st2" d="M582.4,115.4c-6.4,0-10.5,3.3-10.5,7.7c0,5,5.4,6.9,9.5,8l5.1,1.3c6.6,1.6,15.1,5.3,15.1,14.7
				c0,8.9-7.1,15.3-19.4,15.3c-11.7,0-19.1-5.9-19.6-15.3h7.9c0.5,5.7,5.5,8.4,11.6,8.4c6.7,0,11.6-3.4,11.6-8.5
				c0-4.7-4.3-6.5-9.9-8l-6.2-1.7c-8.4-2.3-13.6-6.5-13.6-13.8c0-9,8.1-15,18.6-15c10.6,0,18.1,6.1,18.3,14.5h-7.6
				C592.7,118.2,588.4,115.4,582.4,115.4z"/>
		</g>
		<linearGradient id="SVGID_18_" gradientUnits="userSpaceOnUse" x1="48.3115" y1="135.5226" x2="251.4753" y2="135.5226">
			<stop  offset="0" style="stop-color:#F7DB2E"/>
			<stop  offset="0.5" style="stop-color:#82C558"/>
			<stop  offset="1" style="stop-color:#127E7A"/>
		</linearGradient>
		<polyline class="st30" points="149.4,32.9 98.7,46.8 61.7,84.2 48.3,135 62.2,185.7 99.1,222.5 149.9,238.1 201.1,222.2
			237.9,185.3 251.5,134 237.6,83.3 200.2,46.3 149.4,32.9 		"/>
		<g>
			<g>
				<path class="st4" d="M235.5,187.7c-5.9-1.8-11.8-3.7-17.6-5.9c-16.9-6.4-30.8-17.9-47.8-23.9c-15.6-5.5-31.9-9-48.2-11.6
					c-3.7-0.6-7.5-1.4-11.3-1.4c-10.4,0.1-18.3,6.5-23.7,14.8c-5.7,8.6-14.1,20.5-24.2,26.6"/>
			</g>
			<g>
				<path class="st5" d="M238.2,184.1c-6.7-1.9-13.3-4-19.8-6.4c-16.6-6.1-30.5-16.8-46.8-23.6c-13.4-5.7-27.3-11-41.4-15
					c-15-4.3-27.3,2.4-37.9,12.2c-6.6,6-13.4,11.9-20.6,17.1c-3.5,2.5-7.6,5.7-12,8.1"/>
			</g>
			<g>
				<path class="st5" d="M239.2,180.2c-7.1-2-14.2-4.1-21.2-6.6c-15.9-5.8-29.7-16.6-44.4-24.9c-11.7-6.6-25.9-17.5-39.7-19
					c-16.1-1.7-27.5,8.2-40.2,16.1c-8.5,5.3-17.1,10.5-25.9,15.2c-3.1,1.7-6.9,4.1-10.8,5.8"/>
			</g>
			<g>
				<path class="st4" d="M240.2,176.5c-7.7-1.9-15.3-4.1-22.7-6.9c-16.6-6.2-30.6-20.6-44.1-31.6c-13.7-11.1-27.4-23.6-46.5-15.1
					c-11.5,5.1-22.6,11-34,16.4c-9.6,4.6-19.3,9.1-29.1,13.3c-2.8,1.2-6.1,3-9.5,4.4"/>
			</g>
			<g>
				<path class="st5" d="M241.2,172.8c-8.6-2-17.2-4.3-25.3-7.7c-20.1-8.3-29.8-29.3-42.3-45.5c-10.4-13.5-27.6-8.8-40.7-3.7
					c-15.8,6.1-31.7,12.3-47.6,18.3c-8.8,3.4-17.7,6.7-26.6,9.9c-2,0.7-4.5,2-7,2.9"/>
			</g>
			<g>
				<path class="st4" d="M242.7,166.9c-10.5-2.1-20.9-4.7-30.1-9.7c-15.5-8.4-21.6-27-31-41.1c-6.4-9.6-17.9-15.5-29.4-12.4
					c-4.7,1.3-9.3,3-14,4.5c-19.2,6.1-38.3,12.2-57.5,18.4c-10.7,3.4-21.3,6.8-32,10.2"/>
			</g>
			<g>
				<path class="st5" d="M244.4,160.6c-11.9-3.6-23.5-7.9-33.7-15.6c-13.3-10-23.4-24.6-34.5-36.9c-11.5-12.8-26-12.1-40.7-7
					c-17.3,5.9-34.6,12-51.8,18.2c-9.9,3.6-19.9,7.3-29.7,11.2c-1.3,0.5-3.1,1.1-5.1,1.8"/>
			</g>
			<g>
				<path class="st4" d="M247.5,149.1c-10.9-4.2-21.8-8.5-31.9-14.5c-16-9.4-29-22.8-43.1-34.9c-13.3-11.4-27.9-11.3-43.7-5.5
					c-15.4,5.7-30.7,11.7-45.9,18c-9,3.8-18,7.6-26.8,12c-1.7,0.8-3.6,1.7-5.6,2.7"/>
			</g>
			<g>
				<path class="st4" d="M250.9,136.2c-25.5-12.8-50.4-26.4-75.1-40.8c-15-8.8-29.6-16.5-47.7-10.2c-11.8,4.1-23.4,9.1-34.8,14.1
					c-10,4.4-19.9,8.9-29.5,14.2c-3.7,2-8,4.2-11.8,6.9"/>
			</g>
			<g>
				<path class="st5" d="M249.4,126.5c-11.8-7.2-23.5-14.3-36-20.3c-12.3-6-25.1-11.1-37.6-16.6c-13.4-5.8-26.1-13-41.1-12.6
					c-13.8,0.4-26.6,7.4-38.8,13.3c-13.6,6.6-30.3,14.1-42.4,24.8"/>
			</g>
			<g>
				<path class="st4" d="M246.2,114.9c-10.5-8-20.9-15.6-33.2-21.1c-11.4-5.1-23.9-8-35.8-11.6c-11.1-3.3-22.1-7-33.2-9.9
					c-16-4.1-31.2,0.8-45.3,8.1c-15.1,7.7-31.2,17-43.7,29.2"/>
			</g>
		</g>
	</g>
</g>
</svg>
