<?xml version="1.0" encoding="UTF-8" standalone="no"?>
<!-- Generator: Adobe Illustrator 26.0.2, SVG Export Plug-In . SVG Version: 6.00 Build 0)  -->

<svg
   xmlns:dc="http://purl.org/dc/elements/1.1/"
   xmlns:cc="http://creativecommons.org/ns#"
   xmlns:rdf="http://www.w3.org/1999/02/22-rdf-syntax-ns#"
   xmlns:svg="http://www.w3.org/2000/svg"
   xmlns="http://www.w3.org/2000/svg"
   xmlns:sodipodi="http://sodipodi.sourceforge.net/DTD/sodipodi-0.dtd"
   xmlns:inkscape="http://www.inkscape.org/namespaces/inkscape"
   version="1.1"
   x="0px"
   y="0px"
   viewBox="0 0 1834.73 775.39"
   style="enable-background:new 0 0 1834.73 775.39;"
   xml:space="preserve"
   id="svg241"
   sodipodi:docname="ebrains_logo.svg"
   inkscape:version="0.92.5 (2060ec1f9f, 2020-04-08)"><metadata
   id="metadata247"><rdf:RDF><cc:Work
       rdf:about=""><dc:format>image/svg+xml</dc:format><dc:type
         rdf:resource="http://purl.org/dc/dcmitype/StillImage" /><dc:title></dc:title></cc:Work></rdf:RDF></metadata><defs
   id="defs245" /><sodipodi:namedview
   pagecolor="#ffffff"
   bordercolor="#666666"
   borderopacity="1"
   objecttolerance="10"
   gridtolerance="10"
   guidetolerance="10"
   inkscape:pageopacity="0"
   inkscape:pageshadow="2"
   inkscape:window-width="2560"
   inkscape:window-height="1375"
   id="namedview243"
   showgrid="false"
   inkscape:zoom="0.32961254"
   inkscape:cx="656.27508"
   inkscape:cy="118.6061"
   inkscape:window-x="0"
   inkscape:window-y="28"
   inkscape:window-maximized="1"
   inkscape:current-layer="svg241" />
<style
   type="text/css"
   id="style201">
	.st0{fill:#FFFFFF;}
	.st1{fill:url(#SVGID_1_);}
	.st2{display:none;}
	.st3{display:inline;fill:#CCCCCC;}
</style>

<g
   id="Logo"
   transform="matrix(1.2194406,0,0,1.2194406,-201.32502,-86.691775)"
   style="opacity:1">
	<g
   id="g220">
		<path
   class="st0"
   d="m 820.81,445.19 -62.9,0.13 c -11.15,-0.08 -15.09,-5.71 -15.11,-15.54 l -0.04,-20.05 c -0.02,-9.88 3.92,-15.53 15.2,-15.61 l 56.29,-0.11 c 1.45,0 2.62,-1.18 2.62,-2.63 l -0.03,-16.4 c 0,-1.45 -1.18,-2.62 -2.63,-2.62 l -56.72,0.11 c -10.94,-0.17 -14.82,-5.79 -14.84,-15.53 l -0.04,-19.81 c -0.02,-9.92 3.96,-15.59 15.36,-15.61 l 61.61,-0.12 c 1.45,0 2.62,-1.18 2.62,-2.63 l -0.03,-16.48 c 0,-1.45 -1.18,-2.62 -2.63,-2.62 l -99.6,0.2 c -1.45,0 -2.62,1.18 -2.62,2.63 l 0.32,161.99 c 0,1.45 1.18,2.62 2.63,2.62 l 100.58,-0.2 c 1.45,0 2.62,-1.18 2.62,-2.63 l -0.03,-16.48 c 0,-1.44 -1.18,-2.61 -2.63,-2.61 z"
   id="path206"
   inkscape:connector-curvature="0"
   style="fill:#ffffff" />
		<path
   class="st0"
   d="m 958.26,385.59 c -0.73,-0.45 -1.47,-0.87 -2.21,-1.27 0,0 0,-0.01 0,-0.01 -4.4,-2.75 -3.73,-9.71 -0.02,-11.95 4.27,-2.87 7.67,-6.68 10.23,-11.45 2.55,-4.77 3.82,-10.64 3.8,-17.6 -0.02,-8.27 -1.97,-15.72 -5.84,-22.32 -3.88,-6.61 -9.71,-11.85 -17.51,-15.72 -7.79,-3.88 -17.62,-5.8 -29.49,-5.78 l -58.62,0.12 c -1.45,0 -2.62,1.18 -2.62,2.63 l 0.32,161.99 c 0,1.45 1.18,2.62 2.63,2.62 l 61.48,-0.12 c 12.96,-0.03 23.6,-2.02 31.92,-5.98 8.32,-3.96 14.47,-9.34 18.46,-16.12 3.99,-6.79 5.97,-14.45 5.96,-23 -0.02,-8.65 -1.77,-16 -5.27,-22.04 -3.5,-6.06 -7.91,-10.71 -13.22,-14 z m -76.98,-49.57 c 0.14,-9.44 4.08,-14.86 14.92,-15.02 l 19.51,-0.04 c 10.02,-0.02 17.45,2.31 22.31,6.98 4.85,4.67 7.29,10.47 7.3,17.38 0.01,5.39 -1.33,10.06 -4.01,14.01 -2.69,3.95 -6.3,7.02 -10.84,9.21 -4.54,2.19 -9.64,3.29 -15.3,3.3 l -18.72,0.04 c -10.95,-0.07 -14.94,-5.49 -15.12,-14.97 z M 943.87,438 c -5.22,4.69 -13.87,7.05 -25.95,7.07 l -21.36,0.04 c -10.93,-0.08 -14.92,-5.5 -15.09,-14.97 l -0.05,-23.58 c 0.14,-9.4 4.05,-14.82 14.81,-15.02 l 22.48,-0.04 c 6.75,-0.01 12.59,1.28 17.52,3.88 4.93,2.6 8.73,6.11 11.41,10.51 2.68,4.4 4.02,9.25 4.03,14.53 0.02,7.04 -2.58,12.89 -7.8,17.58 z"
   id="path208"
   inkscape:connector-curvature="0"
   style="fill:#ffffff" />
		<path
   class="st0"
   d="m 1097.5,406.14 c -1.68,-3.06 -0.87,-8.11 3.42,-10.88 0,0 -0.02,0 -0.03,0 7.32,-4.2 12.91,-9.78 16.75,-16.77 4.26,-7.77 6.38,-16.77 6.36,-27 -0.02,-10.29 -2.16,-19.36 -6.42,-27.22 -4.26,-7.86 -10.68,-14.01 -19.27,-18.46 -8.58,-4.45 -19.35,-6.66 -32.31,-6.63 l -56.99,0.11 c -1.45,0 -2.62,1.18 -2.62,2.63 l 0.32,161.99 c 0,1.45 1.18,2.62 2.63,2.62 l 19.99,-0.04 c 1.45,0 2.62,-1.18 2.62,-2.63 l -0.09,-45.22 c 0.02,-9.79 3.98,-15.4 15.21,-15.47 l 13.75,-0.03 c 4.67,0.08 7.8,2.01 10.11,5.86 l 30.18,55.96 c 0.46,0.85 1.35,1.38 2.31,1.38 l 22.75,-0.05 c 1.99,0 3.25,-2.14 2.29,-3.89 z m -13.75,-28.27 c -5.14,2.35 -11.79,3.54 -19.96,3.55 l -16.74,0.03 c -11.26,-0.02 -15.24,-5.61 -15.3,-15.41 l -0.06,-29.57 c -0.02,-9.92 3.96,-15.59 15.36,-15.61 l 16.3,-0.03 c 8.33,-0.02 15.07,1.21 20.22,3.68 5.15,2.47 8.94,6.01 11.37,10.63 2.43,4.62 3.65,10.09 3.67,16.41 0.01,6.26 -1.18,11.63 -3.56,16.09 -2.4,4.47 -6.16,7.88 -11.3,10.23 z"
   id="path210"
   inkscape:connector-curvature="0"
   style="fill:#ffffff" />
		<path
   class="st0"
   d="m 1231.98,300.59 c -0.38,-1.04 -1.36,-1.73 -2.47,-1.73 l -25.47,0.05 c -1.11,0 -2.09,0.7 -2.46,1.74 l -57.97,162.11 c -0.61,1.71 0.66,3.51 2.47,3.5 l 21.19,-0.04 c 1.12,0 2.11,-0.71 2.47,-1.77 l 10.72,-31.16 c 1.44,-4.2 5.68,-11.36 14.74,-11.38 l 43.68,-0.09 c 8.81,-0.02 13.08,6.74 14.65,10.97 l 10.94,31.47 c 0.37,1.06 1.36,1.76 2.48,1.76 l 21.19,-0.04 c 1.82,0 3.08,-1.81 2.46,-3.51 z m -1.96,100.02 -26.02,0.05 c -9.97,0.02 -9.48,-8.28 -8.24,-11.88 l 14.59,-42.43 c 1.64,-5.95 11.14,-5.68 13.11,-0.03 l 14.9,42.85 c 1.12,3.79 1.23,11.42 -8.34,11.44 z"
   id="path212"
   inkscape:connector-curvature="0"
   style="fill:#ffffff" />
		<path
   class="st0"
   d="m 1338.23,298.64 -19.99,0.04 c -1.45,0 -2.62,1.18 -2.62,2.63 l 0.32,161.99 c 0,1.45 1.18,2.62 2.63,2.62 l 19.99,-0.04 c 1.45,0 2.62,-1.18 2.62,-2.63 l -0.32,-161.99 c 0,-1.45 -1.18,-2.62 -2.63,-2.62 z"
   id="path214"
   inkscape:connector-curvature="0"
   style="fill:#ffffff" />
		<path
   class="st0"
   d="m 1509.96,298.3 -19.74,0.04 c -1.45,0 -2.62,1.18 -2.62,2.63 l 0.2,99.87 c -0.02,8.27 -9.16,9.07 -13.32,3.35 l -72.74,-104.54 c -0.49,-0.71 -1.3,-1.13 -2.16,-1.12 l -19.36,0.04 c -1.45,0 -2.62,1.18 -2.62,2.63 l 0.32,161.99 c 0,1.45 1.18,2.62 2.63,2.62 l 19.99,-0.04 c 1.45,0 2.62,-1.18 2.62,-2.63 l -0.2,-99.66 c -0.02,-8.33 9.19,-9.13 13.35,-3.36 l 72.63,104.35 c 0.49,0.71 1.3,1.13 2.16,1.12 l 19.2,-0.04 c 1.45,0 2.62,-1.18 2.62,-2.63 l -0.32,-161.99 c -0.02,-1.46 -1.19,-2.63 -2.64,-2.63 z"
   id="path216"
   inkscape:connector-curvature="0"
   style="fill:#ffffff" />
		<path
   class="st0"
   d="m 1662.91,399.66 c -2.98,-5.38 -6.87,-9.89 -11.66,-13.53 -4.8,-3.64 -10,-6.57 -15.61,-8.79 -5.61,-2.22 -11.09,-3.98 -16.43,-5.28 l -16.34,-4.21 c -3.27,-0.81 -6.67,-1.85 -10.21,-3.12 -3.54,-1.27 -6.85,-2.87 -9.93,-4.8 -3.08,-1.93 -5.56,-4.33 -7.45,-7.21 -1.88,-2.88 -2.83,-6.31 -2.84,-10.28 -0.01,-4.74 1.36,-8.97 4.1,-12.71 2.74,-3.73 6.62,-6.68 11.62,-8.84 5,-2.16 10.94,-3.25 17.79,-3.26 9.58,-0.02 17.53,2.1 23.86,6.36 5.73,3.86 9.23,9.15 10.5,15.87 0.23,1.23 1.32,2.12 2.57,2.11 l 19.31,-0.04 c 1.53,0 2.75,-1.32 2.62,-2.85 -0.67,-7.83 -3.24,-14.84 -7.73,-21.03 -5.02,-6.93 -11.88,-12.37 -20.57,-16.33 -8.69,-3.96 -18.7,-5.92 -30.02,-5.9 -11.21,0.02 -21.28,2.04 -30.2,6.06 -8.92,4.02 -15.99,9.63 -21.2,16.82 -5.21,7.2 -7.81,15.61 -7.79,25.25 0.02,11.65 3.95,21.01 11.78,28.07 7.83,7.06 18.44,12.4 31.84,16.02 l 19.77,5.35 c 5.99,1.57 11.37,3.38 16.14,5.44 4.77,2.06 8.55,4.66 11.37,7.82 2.81,3.15 4.22,7.21 4.23,12.16 0.01,5.44 -1.59,10.2 -4.79,14.26 -3.21,4.06 -7.6,7.23 -13.17,9.5 -5.58,2.27 -11.93,3.41 -19.06,3.43 -6.48,0.01 -12.43,-0.94 -17.85,-2.86 -5.42,-1.92 -9.86,-4.88 -13.33,-8.88 -3.03,-3.49 -4.92,-7.76 -5.69,-12.81 -0.19,-1.28 -1.29,-2.24 -2.59,-2.24 l -20.15,0.04 c -1.56,0 -2.77,1.36 -2.61,2.91 0.92,8.85 3.71,16.57 8.4,23.17 5.19,7.31 12.36,12.95 21.51,16.9 9.15,3.96 19.99,5.92 32.51,5.9 13.07,-0.03 24.21,-2.17 33.43,-6.44 9.22,-4.27 16.25,-10.08 21.11,-17.44 4.86,-7.36 7.28,-15.77 7.26,-25.25 -0.03,-7.5 -1.53,-13.95 -4.5,-19.34 z"
   id="path218"
   inkscape:connector-curvature="0"
   style="fill:#ffffff" />
	</g>
	
		<linearGradient
   id="SVGID_1_"
   gradientUnits="userSpaceOnUse"
   x1="235.81129"
   y1="548.21899"
   x2="540.59918"
   y2="243.43111"
   gradientTransform="matrix(1,-0.001992,0.001992,1,-0.7765,-6.0276)">
		<stop
   offset="0"
   style="stop-color:#00A595"
   id="stop222" />
		<stop
   offset="0.4813"
   style="stop-color:#00C959"
   id="stop224" />
		<stop
   offset="1"
   style="stop-color:#9CE142"
   id="stop226" />
	</linearGradient>
	<path
   class="st1"
   d="m 258.97,240.6 c 40.72,-26.78 76.97,-32.65 110.28,-25.5 0,0 0,-0.01 0,-0.01 13.87,0.52 9.38,-8.52 3.01,-12.53 -8.39,-5.03 -16.87,-9.55 -25.45,-13.41 -6.23,-2.8 -12.38,-5.2 -18.46,-7.2 l -35.8,9.67 c -10.67,2.88 -20.39,8.52 -28.19,16.35 l -57.7,57.93 c -7.8,7.83 -13.4,17.57 -16.24,28.25 l -2.19,8.24 c 22.31,-22.75 45.47,-45.16 70.74,-61.79 z m 251.2,143 c -0.03,-0.02 -0.07,-0.05 -0.07,-0.05 8.88,4.41 17.23,-0.19 6.23,-8.66 -71.12,-54.2 -145.36,-100.09 -229.78,-70.23 -43.92,15.53 -81.98,45.49 -118.54,75.62 -1.23,8.48 -0.75,17.15 1.5,25.47 l 7.18,26.57 c 0.06,-0.05 0.13,-0.1 0.19,-0.15 44.35,-34.43 90.21,-70.04 146.64,-83.67 62.87,-15.19 126.17,4.47 186.65,35.1 z m 70.29,-31.34 c 8.57,5.39 16.84,10.07 24.87,14.07 l -19.71,-72.97 c -2.88,-10.67 -8.52,-20.39 -16.35,-28.19 l -57.93,-57.7 c -7.83,-7.8 -17.57,-13.4 -28.25,-16.24 l -79.01,-21 c -10.68,-2.84 -21.92,-2.82 -32.59,0.06 l -18.42,4.97 c 45.55,24.86 80.87,47.96 134.92,101.19 53.04,52.26 61.72,56.47 92.47,75.81 z M 337.53,528.62 c -36.44,-0.62 -67.62,6.59 -96.28,18.2 l 23.84,23.75 c 7.83,7.8 17.57,13.4 28.25,16.24 l 79.02,21 c 10.68,2.84 21.92,2.82 32.59,-0.06 l 78.93,-21.32 c 10.67,-2.88 20.39,-8.52 28.19,-16.35 l 1.53,-1.54 C 455.38,546.27 396.44,529.62 337.53,528.62 Z M 608.94,384.65 c -56.3,-28.37 -93.16,-63.84 -102.3,-73.01 -42.98,-43.16 -142.72,-141.27 -244.56,-66.32 -26.44,19.46 -52.53,43.23 -76.76,68.16 l -11.29,42.48 c 32.89,-26.46 67.54,-51.35 107.51,-65.49 104.7,-37.03 191.5,31.07 275.44,96.94 15.5,12.16 30.57,23.98 45.41,34.85 L 606.98,405 c 1.43,-5.38 2.13,-10.9 2.11,-16.41 -0.02,-1.31 -0.07,-2.63 -0.15,-3.94 z M 324.83,353.99 c -55.25,13.35 -100.62,48.58 -144.5,82.65 -0.68,0.53 -1.37,1.06 -2.06,1.6 l 12.55,46.45 c 1.09,4.05 2.59,7.95 4.44,11.67 5.75,-4.14 11.45,-8.29 17.1,-12.42 47.64,-34.8 96.9,-70.79 162.8,-78.53 71.49,-8.39 147.02,15.95 219.1,47.42 l 3.18,-11.97 C 512.6,387.59 417.68,331.55 324.83,353.99 Z m 52.09,66.35 c -39.12,4.59 -71.68,19.54 -102.49,38.79 -10.97,7.1 -6.77,14.41 3.77,11.29 0.01,0 0.02,-0.01 0.03,-0.01 21.13,-6.84 44.44,-10.92 71.35,-10.83 75.82,0.28 150.74,21.6 224.12,48.18 5.75,-6.97 9.97,-15.1 12.31,-23.87 l 4.35,-16.36 C 519.5,436.45 445.58,412.28 376.92,420.34 Z m -169.93,92.34 c 0.06,0.06 0.12,0.13 0.18,0.19 l 22.48,22.39 c 31.77,-13.69 66.56,-22.38 108.14,-21.68 63.27,1.08 125.88,19.33 187.42,43.31 L 569.63,512.3 C 497.4,486.26 423.75,465.51 349.56,465.24 288.93,465.01 248.17,485.67 206.99,512.68 Z"
   id="path229"
   style="fill:url(#SVGID_1_)"
   inkscape:connector-curvature="0" />
</g>
<g
   id="Margins"
   class="st2">
	<path
   class="st3"
   d="M438.49,145.52h-62.9c-11.15-0.11-15.08-5.74-15.08-15.57v-20.05c0-9.88,3.96-15.52,15.23-15.58h56.29   c1.45,0,2.62-1.17,2.62-2.62V75.3c0-1.45-1.17-2.62-2.62-2.62h-56.72c-10.94-0.2-14.81-5.81-14.81-15.56V37.3   c0-9.92,3.99-15.58,15.39-15.58h61.61c1.45,0,2.62-1.17,2.62-2.62V2.62c0-1.45-1.17-2.62-2.62-2.62h-99.6   c-1.45,0-2.62,1.17-2.62,2.62v161.99c0,1.45,1.17,2.62,2.62,2.62h100.58c1.45,0,2.62-1.17,2.62-2.62v-16.48   C441.11,146.69,439.94,145.52,438.49,145.52z"
   id="path232" />
	<path
   class="st3"
   d="M145.51,339.22l0.13,62.9c-0.08,11.15-5.71,15.09-15.54,15.11l-20.05,0.04c-9.88,0.02-15.53-3.92-15.61-15.2   l-0.11-56.29c0-1.45-1.18-2.62-2.63-2.62l-16.4,0.03c-1.45,0-2.62,1.18-2.62,2.63l0.11,56.72c-0.17,10.94-5.79,14.82-15.53,14.84   l-19.81,0.04c-9.92,0.02-15.59-3.96-15.61-15.36l-0.12-61.61c0-1.45-1.18-2.62-2.63-2.62l-16.48,0.03c-1.45,0-2.62,1.18-2.62,2.63   l0.2,99.6c0,1.45,1.18,2.62,2.63,2.62l161.99-0.32c1.45,0,2.62-1.18,2.62-2.63l-0.2-100.58c0-1.45-1.18-2.62-2.63-2.62l-16.48,0.03   C146.68,336.59,145.51,337.77,145.51,339.22z"
   id="path234" />
	<path
   class="st3"
   d="M1812.91,339.22l0.13,62.9c-0.08,11.15-5.71,15.09-15.54,15.11l-20.05,0.04c-9.88,0.02-15.53-3.92-15.61-15.2   l-0.11-56.29c0-1.45-1.18-2.62-2.63-2.62l-16.4,0.03c-1.45,0-2.62,1.18-2.62,2.63l0.11,56.72c-0.17,10.94-5.79,14.82-15.53,14.84   l-19.81,0.04c-9.92,0.02-15.59-3.96-15.61-15.36l-0.12-61.61c0-1.45-1.18-2.62-2.63-2.62l-16.48,0.03c-1.45,0-2.62,1.18-2.62,2.63   l0.2,99.6c0,1.45,1.18,2.62,2.63,2.62l161.99-0.32c1.45,0,2.62-1.18,2.62-2.63l-0.2-100.58c0-1.45-1.18-2.62-2.63-2.62l-16.48,0.03   C1814.08,336.59,1812.91,337.77,1812.91,339.22z"
   id="path236" />
	<path
   class="st3"
   d="M438.49,754.55h-62.9c-11.15-0.11-15.08-5.74-15.08-15.57v-20.05c0-9.88,3.96-15.52,15.23-15.58h56.29   c1.45,0,2.62-1.17,2.62-2.62v-16.4c0-1.45-1.17-2.62-2.62-2.62h-56.72c-10.94-0.2-14.81-5.81-14.81-15.56v-19.81   c0-9.92,3.99-15.58,15.39-15.58h61.61c1.45,0,2.62-1.17,2.62-2.62v-16.48c0-1.45-1.17-2.62-2.62-2.62h-99.6   c-1.45,0-2.62,1.17-2.62,2.62v161.99c0,1.45,1.17,2.62,2.62,2.62h100.58c1.45,0,2.62-1.17,2.62-2.62v-16.48   C441.11,755.73,439.94,754.55,438.49,754.55z"
   id="path238" />
</g>
</svg>