<?xml version="1.0" encoding="utf-8"?>
<!-- Generator: Adobe Illustrator 26.0.2, SVG Export Plug-In . SVG Version: 6.00 Build 0)  -->
<svg version="1.1" id="Favicon" xmlns="http://www.w3.org/2000/svg" xmlns:xlink="http://www.w3.org/1999/xlink" x="0px" y="0px"
	 viewBox="0 0 32 32" style="enable-background:new 0 0 32 32;" xml:space="preserve">
<style type="text/css">
	.st0{fill:url(#SVGID_1_);}
</style>
<g>
	<linearGradient id="SVGID_1_" gradientUnits="userSpaceOnUse" x1="4.9631" y1="27.0381" x2="27.0392" y2="4.9619">
		<stop  offset="0" style="stop-color:#00A595"/>
		<stop  offset="0.4813" style="stop-color:#00C959"/>
		<stop  offset="1" style="stop-color:#9CE142"/>
	</linearGradient>
	<path class="st0" d="M6.66,5.23c2.95-1.93,5.58-2.35,7.99-1.83c0,0,0,0,0,0c1,0.04,0.68-0.62,0.22-0.91
		c-0.61-0.37-1.22-0.69-1.84-0.97c-0.45-0.2-0.9-0.38-1.34-0.52L9.1,1.69C8.33,1.9,7.62,2.3,7.06,2.87L2.87,7.06
		C2.3,7.62,1.9,8.33,1.69,9.1L1.53,9.7C3.15,8.05,4.83,6.43,6.66,5.23z M24.84,15.62C24.83,15.62,24.83,15.62,24.84,15.62
		c0.64,0.32,1.24-0.02,0.45-0.63c-5.14-3.94-10.51-7.27-16.63-5.12c-3.18,1.12-5.94,3.28-8.6,5.46c-0.09,0.61-0.06,1.24,0.1,1.85
		l0.52,1.93c0,0,0.01-0.01,0.01-0.01c3.22-2.49,6.54-5.06,10.63-6.04C15.88,11.96,20.46,13.4,24.84,15.62z M29.93,13.37
		c0.62,0.39,1.22,0.73,1.8,1.02L30.31,9.1c-0.21-0.77-0.61-1.48-1.18-2.04l-4.19-4.19C24.38,2.3,23.67,1.9,22.9,1.69l-5.72-1.53
		c-0.77-0.21-1.59-0.21-2.36,0l-1.33,0.36c3.3,1.81,5.85,3.49,9.76,7.35C27.08,11.65,27.71,11.96,29.93,13.37z M12.31,26.1
		c-2.64-0.05-4.9,0.47-6.98,1.3l1.72,1.72c0.57,0.57,1.27,0.97,2.04,1.18l5.72,1.53c0.77,0.21,1.59,0.21,2.36,0l5.72-1.53
		c0.77-0.21,1.48-0.61,2.04-1.18l0.11-0.11C20.84,27.4,16.58,26.18,12.31,26.1L12.31,26.1z M31.99,15.71
		c-4.07-2.06-6.74-4.64-7.4-5.3C21.48,7.28,14.27,0.16,6.89,5.57C4.97,6.98,3.07,8.7,1.32,10.5l-0.82,3.08
		c2.39-1.91,4.9-3.71,7.8-4.73c7.59-2.67,13.87,2.28,19.94,7.06c1.12,0.88,2.21,1.74,3.28,2.53l0.33-1.25C31.95,16.8,32,16.4,32,16
		C32,15.91,31.99,15.81,31.99,15.71z M11.41,13.45c-4,0.96-7.3,3.5-10.48,5.97c-0.05,0.04-0.1,0.08-0.15,0.12l0.9,3.37
		c0.08,0.29,0.19,0.58,0.32,0.85c0.42-0.3,0.83-0.6,1.24-0.9c3.46-2.51,7.03-5.11,11.8-5.66c5.18-0.6,10.65,1.18,15.86,3.47
		l0.23-0.87C25.01,15.91,18.14,11.84,11.41,13.45z M15.18,18.27c-2.83,0.33-5.19,1.4-7.43,2.79c-0.8,0.51-0.49,1.04,0.27,0.82
		c0,0,0,0,0,0c1.53-0.49,3.22-0.78,5.17-0.77c5.49,0.03,10.91,1.59,16.23,3.52c0.42-0.5,0.72-1.09,0.89-1.73l0.32-1.18
		C25.5,19.45,20.15,17.69,15.18,18.27z M2.86,24.93c0,0,0.01,0.01,0.01,0.01l1.63,1.63c2.3-0.99,4.82-1.61,7.84-1.55
		c4.58,0.09,9.12,1.42,13.57,3.16l3.22-3.22c-5.23-1.9-10.56-3.41-15.93-3.44C8.8,21.49,5.84,22.98,2.86,24.93z"/>
</g>
</svg>
